<mxfile host="65bd71144e">
    <diagram id="vct3z-Lzlmh1_4RW5Pc4" name="Page-1">
        <mxGraphModel dx="1169" dy="802" grid="1" gridSize="10" guides="1" tooltips="1" connect="1" arrows="1" fold="1" page="1" pageScale="1" pageWidth="850" pageHeight="1100" math="0" shadow="0">
            <root>
                <mxCell id="0"/>
                <mxCell id="1" parent="0"/>
                <mxCell id="2" value="SALESFORCE" style="rounded=0;whiteSpace=wrap;html=1;" vertex="1" parent="1">
                    <mxGeometry x="63" y="140" width="140" height="370" as="geometry"/>
                </mxCell>
                <mxCell id="3" value="Salesforce&lt;br&gt;&lt;b&gt;Apex&lt;/b&gt; Callout to AWS" style="whiteSpace=wrap;html=1;aspect=fixed;" vertex="1" parent="1">
                    <mxGeometry x="93" y="180" width="80" height="80" as="geometry"/>
                </mxCell>
                <mxCell id="4" value="" style="endArrow=classic;html=1;exitX=1;exitY=0.5;exitDx=0;exitDy=0;" edge="1" parent="1" source="3">
                    <mxGeometry width="50" height="50" relative="1" as="geometry">
                        <mxPoint x="483" y="420" as="sourcePoint"/>
                        <mxPoint x="253" y="280" as="targetPoint"/>
                    </mxGeometry>
                </mxCell>
                <mxCell id="5" value="" style="edgeStyle=none;html=1;" edge="1" parent="1" source="6" target="8">
                    <mxGeometry relative="1" as="geometry"/>
                </mxCell>
                <mxCell id="6" value="AWS S3 Inbound Bucket" style="shape=cylinder3;whiteSpace=wrap;html=1;boundedLbl=1;backgroundOutline=1;size=15;" vertex="1" parent="1">
                    <mxGeometry x="500" y="256" width="60" height="80" as="geometry"/>
                </mxCell>
                <mxCell id="7" value="" style="html=1;startArrow=block;startFill=1;" edge="1" parent="1" source="8" target="9">
                    <mxGeometry relative="1" as="geometry"/>
                </mxCell>
                <mxCell id="8" value="Processing Lambda" style="rhombus;whiteSpace=wrap;html=1;" vertex="1" parent="1">
                    <mxGeometry x="630" y="256" width="80" height="80" as="geometry"/>
                </mxCell>
                <mxCell id="9" value="AWS Textract" style="whiteSpace=wrap;html=1;" vertex="1" parent="1">
                    <mxGeometry x="770" y="266" width="120" height="60" as="geometry"/>
                </mxCell>
                <mxCell id="10" style="edgeStyle=none;html=1;exitX=0.5;exitY=0;exitDx=0;exitDy=0;" edge="1" parent="1" source="11">
                    <mxGeometry relative="1" as="geometry">
                        <mxPoint x="133" y="260" as="targetPoint"/>
                    </mxGeometry>
                </mxCell>
                <mxCell id="11" value="Uploaded file on Case Object" style="whiteSpace=wrap;html=1;aspect=fixed;" vertex="1" parent="1">
                    <mxGeometry x="93" y="310" width="80" height="80" as="geometry"/>
                </mxCell>
                <mxCell id="13" value="Case Object" style="shape=cylinder3;whiteSpace=wrap;html=1;boundedLbl=1;backgroundOutline=1;size=15;" vertex="1" parent="1">
                    <mxGeometry x="103" y="410" width="60" height="80" as="geometry"/>
                </mxCell>
                <mxCell id="14" value="Salesforce" style="text;html=1;align=center;verticalAlign=middle;resizable=0;points=[];autosize=1;strokeColor=none;fillColor=none;" vertex="1" parent="1">
                    <mxGeometry x="93" y="520" width="80" height="30" as="geometry"/>
                </mxCell>
                <mxCell id="15" value="Document upload &lt;br&gt;triggers lambda" style="text;html=1;align=center;verticalAlign=middle;resizable=0;points=[];autosize=1;strokeColor=none;fillColor=none;" vertex="1" parent="1">
                    <mxGeometry x="547" y="220" width="120" height="40" as="geometry"/>
                </mxCell>
                <mxCell id="16" value="Grabs doc and &lt;br&gt;sends to Textract" style="text;html=1;align=center;verticalAlign=middle;resizable=0;points=[];autosize=1;strokeColor=none;fillColor=none;" vertex="1" parent="1">
                    <mxGeometry x="680" y="226" width="110" height="40" as="geometry"/>
                </mxCell>
                <mxCell id="18" value="Inbound Lambda" style="rhombus;whiteSpace=wrap;html=1;" vertex="1" parent="1">
                    <mxGeometry x="370" y="260" width="80" height="80" as="geometry"/>
                </mxCell>
                <mxCell id="19" value="" style="edgeStyle=none;html=1;" edge="1" parent="1">
                    <mxGeometry relative="1" as="geometry">
                        <mxPoint x="450" y="300" as="sourcePoint"/>
                        <mxPoint x="500" y="299.5" as="targetPoint"/>
                    </mxGeometry>
                </mxCell>
                <mxCell id="20" value="AWS API Gateway" style="whiteSpace=wrap;html=1;" vertex="1" parent="1">
                    <mxGeometry x="250" y="251" width="80" height="110" as="geometry"/>
                </mxCell>
                <mxCell id="21" value="" style="edgeStyle=none;html=1;" edge="1" parent="1">
                    <mxGeometry relative="1" as="geometry">
                        <mxPoint x="330" y="300" as="sourcePoint"/>
                        <mxPoint x="370" y="299.5" as="targetPoint"/>
                    </mxGeometry>
                </mxCell>
                <mxCell id="22" value="" style="endArrow=classic;startArrow=classic;html=1;exitX=0;exitY=0.5;exitDx=0;exitDy=0;entryX=1;entryY=1;entryDx=0;entryDy=0;" edge="1" parent="1" target="8">
                    <mxGeometry width="50" height="50" relative="1" as="geometry">
                        <mxPoint x="800" y="470" as="sourcePoint"/>
                        <mxPoint x="680" y="330" as="targetPoint"/>
                        <Array as="points">
                            <mxPoint x="690" y="470"/>
                        </Array>
                    </mxGeometry>
                </mxCell>
                <mxCell id="23" value="1" style="text;html=1;align=center;verticalAlign=middle;resizable=0;points=[];autosize=1;strokeColor=none;fillColor=none;" vertex="1" parent="1">
                    <mxGeometry x="724" y="272" width="30" height="30" as="geometry"/>
                </mxCell>
                <mxCell id="24" value="2" style="text;html=1;align=center;verticalAlign=middle;resizable=0;points=[];autosize=1;strokeColor=none;fillColor=none;" vertex="1" parent="1">
                    <mxGeometry x="685" y="375" width="30" height="30" as="geometry"/>
                </mxCell>
                <mxCell id="25" value="" style="endArrow=classic;startArrow=classic;html=1;exitX=1;exitY=0.5;exitDx=0;exitDy=0;exitPerimeter=0;" edge="1" parent="1" source="13">
                    <mxGeometry width="50" height="50" relative="1" as="geometry">
                        <mxPoint x="617" y="440" as="sourcePoint"/>
                        <mxPoint x="670" y="340" as="targetPoint"/>
                        <Array as="points">
                            <mxPoint x="670" y="450"/>
                        </Array>
                    </mxGeometry>
                </mxCell>
                <mxCell id="26" value="3" style="text;html=1;align=center;verticalAlign=middle;resizable=0;points=[];autosize=1;strokeColor=none;fillColor=none;" vertex="1" parent="1">
                    <mxGeometry x="640" y="375" width="30" height="30" as="geometry"/>
                </mxCell>
                <mxCell id="27" value="Return ML response to Salesforce" style="text;html=1;align=center;verticalAlign=middle;resizable=0;points=[];autosize=1;strokeColor=none;fillColor=none;" vertex="1" parent="1">
                    <mxGeometry x="285" y="425" width="210" height="30" as="geometry"/>
                </mxCell>
                <mxCell id="28" value="AWS Translate" style="whiteSpace=wrap;html=1;" vertex="1" parent="1">
                    <mxGeometry x="800" y="440" width="120" height="60" as="geometry"/>
                </mxCell>
                <mxCell id="29" value="Upload docs for translation by ML service&lt;br&gt;" style="text;html=1;align=center;verticalAlign=middle;resizable=0;points=[];autosize=1;strokeColor=none;fillColor=none;" vertex="1" parent="1">
                    <mxGeometry x="45" y="100" width="240" height="30" as="geometry"/>
                </mxCell>
                <mxCell id="30" value="SALESFORCE" style="rounded=0;whiteSpace=wrap;html=1;" vertex="1" parent="1">
                    <mxGeometry x="81" y="620" width="140" height="370" as="geometry"/>
                </mxCell>
                <mxCell id="31" value="Salesforce&lt;br&gt;&lt;b&gt;Apex&lt;/b&gt; Callout to AWS" style="whiteSpace=wrap;html=1;aspect=fixed;" vertex="1" parent="1">
                    <mxGeometry x="111" y="660" width="80" height="80" as="geometry"/>
                </mxCell>
                <mxCell id="32" value="" style="endArrow=classic;html=1;exitX=1;exitY=0.5;exitDx=0;exitDy=0;" edge="1" parent="1" source="31">
                    <mxGeometry width="50" height="50" relative="1" as="geometry">
                        <mxPoint x="501" y="900" as="sourcePoint"/>
                        <mxPoint x="271" y="760" as="targetPoint"/>
                    </mxGeometry>
                </mxCell>
                <mxCell id="33" value="" style="edgeStyle=none;html=1;" edge="1" parent="1" source="34" target="36">
                    <mxGeometry relative="1" as="geometry"/>
                </mxCell>
                <mxCell id="34" value="DynamoDB" style="shape=cylinder3;whiteSpace=wrap;html=1;boundedLbl=1;backgroundOutline=1;size=15;" vertex="1" parent="1">
                    <mxGeometry x="518" y="736" width="60" height="80" as="geometry"/>
                </mxCell>
                <mxCell id="36" value="Processing Lambda" style="rhombus;whiteSpace=wrap;html=1;" vertex="1" parent="1">
                    <mxGeometry x="648" y="736" width="80" height="80" as="geometry"/>
                </mxCell>
                <mxCell id="38" style="edgeStyle=none;html=1;exitX=0.5;exitY=0;exitDx=0;exitDy=0;" edge="1" parent="1" source="39">
                    <mxGeometry relative="1" as="geometry">
                        <mxPoint x="151" y="740" as="targetPoint"/>
                    </mxGeometry>
                </mxCell>
                <mxCell id="39" value="LWC Input form - Community Portal" style="whiteSpace=wrap;html=1;aspect=fixed;" vertex="1" parent="1">
                    <mxGeometry x="111" y="790" width="80" height="80" as="geometry"/>
                </mxCell>
                <mxCell id="40" value="Case Object" style="shape=cylinder3;whiteSpace=wrap;html=1;boundedLbl=1;backgroundOutline=1;size=15;" vertex="1" parent="1">
                    <mxGeometry x="121" y="890" width="60" height="80" as="geometry"/>
                </mxCell>
                <mxCell id="41" value="Salesforce" style="text;html=1;align=center;verticalAlign=middle;resizable=0;points=[];autosize=1;strokeColor=none;fillColor=none;" vertex="1" parent="1">
                    <mxGeometry x="111" y="1000" width="80" height="30" as="geometry"/>
                </mxCell>
                <mxCell id="42" value="Document upload &lt;br&gt;triggers lambda" style="text;html=1;align=center;verticalAlign=middle;resizable=0;points=[];autosize=1;strokeColor=none;fillColor=none;" vertex="1" parent="1">
                    <mxGeometry x="565" y="700" width="120" height="40" as="geometry"/>
                </mxCell>
                <mxCell id="44" value="Inbound Lambda" style="rhombus;whiteSpace=wrap;html=1;" vertex="1" parent="1">
                    <mxGeometry x="388" y="740" width="80" height="80" as="geometry"/>
                </mxCell>
                <mxCell id="45" value="" style="edgeStyle=none;html=1;" edge="1" parent="1">
                    <mxGeometry relative="1" as="geometry">
                        <mxPoint x="468" y="780" as="sourcePoint"/>
                        <mxPoint x="518" y="779.5" as="targetPoint"/>
                    </mxGeometry>
                </mxCell>
                <mxCell id="46" value="AWS API Gateway" style="whiteSpace=wrap;html=1;" vertex="1" parent="1">
                    <mxGeometry x="268" y="731" width="80" height="110" as="geometry"/>
                </mxCell>
                <mxCell id="47" value="" style="edgeStyle=none;html=1;" edge="1" parent="1">
                    <mxGeometry relative="1" as="geometry">
                        <mxPoint x="348" y="780" as="sourcePoint"/>
                        <mxPoint x="388" y="779.5" as="targetPoint"/>
                    </mxGeometry>
                </mxCell>
                <mxCell id="48" value="" style="endArrow=classic;startArrow=classic;html=1;exitX=0;exitY=0.5;exitDx=0;exitDy=0;entryX=1;entryY=1;entryDx=0;entryDy=0;" edge="1" parent="1" target="36">
                    <mxGeometry width="50" height="50" relative="1" as="geometry">
                        <mxPoint x="818" y="950" as="sourcePoint"/>
                        <mxPoint x="698" y="810" as="targetPoint"/>
                        <Array as="points">
                            <mxPoint x="708" y="950"/>
                        </Array>
                    </mxGeometry>
                </mxCell>
                <mxCell id="50" value="1" style="text;html=1;align=center;verticalAlign=middle;resizable=0;points=[];autosize=1;strokeColor=none;fillColor=none;" vertex="1" parent="1">
                    <mxGeometry x="703" y="855" width="30" height="30" as="geometry"/>
                </mxCell>
                <mxCell id="51" value="" style="endArrow=classic;startArrow=classic;html=1;exitX=1;exitY=0.5;exitDx=0;exitDy=0;exitPerimeter=0;" edge="1" parent="1" source="40">
                    <mxGeometry width="50" height="50" relative="1" as="geometry">
                        <mxPoint x="635" y="920" as="sourcePoint"/>
                        <mxPoint x="688" y="820" as="targetPoint"/>
                        <Array as="points">
                            <mxPoint x="688" y="930"/>
                        </Array>
                    </mxGeometry>
                </mxCell>
                <mxCell id="52" value="2" style="text;html=1;align=center;verticalAlign=middle;resizable=0;points=[];autosize=1;strokeColor=none;fillColor=none;" vertex="1" parent="1">
                    <mxGeometry x="658" y="855" width="30" height="30" as="geometry"/>
                </mxCell>
                <mxCell id="53" value="Return ChatGPT Response To Salesforce - 3 options" style="text;html=1;align=center;verticalAlign=middle;resizable=0;points=[];autosize=1;strokeColor=none;fillColor=none;" vertex="1" parent="1">
                    <mxGeometry x="253" y="905" width="310" height="30" as="geometry"/>
                </mxCell>
                <mxCell id="55" value="Real Time Language Detection and Translation - With translation variability" style="text;html=1;align=center;verticalAlign=middle;resizable=0;points=[];autosize=1;strokeColor=none;fillColor=none;" vertex="1" parent="1">
                    <mxGeometry x="48" y="580" width="420" height="30" as="geometry"/>
                </mxCell>
                <mxCell id="56" value="ChatGPT" style="ellipse;whiteSpace=wrap;html=1;aspect=fixed;" vertex="1" parent="1">
                    <mxGeometry x="820" y="905" width="80" height="80" as="geometry"/>
                </mxCell>
                <mxCell id="57" value="1. Raw Response for initial translation&lt;br&gt;2. Option to vary the translation to make it sound more formal&lt;br&gt;3. Option to vary translation to make it less formal&lt;br&gt;4. Make translation clear and concise" style="text;html=1;align=center;verticalAlign=middle;resizable=0;points=[];autosize=1;strokeColor=none;fillColor=none;" vertex="1" parent="1">
                    <mxGeometry x="270" y="960" width="350" height="70" as="geometry"/>
                </mxCell>
                <mxCell id="58" value="" style="shape=image;verticalLabelPosition=bottom;labelBackgroundColor=default;verticalAlign=top;aspect=fixed;imageAspect=0;image=data:image/png,iVBORw0KGgoAAAANSUhEUgAABGEAAANQCAIAAAAHc+XjAAAAAXNSR0IArs4c6QAAAGxlWElmTU0AKgAAAAgABAEaAAUAAAABAAAAPgEbAAUAAAABAAAARgEoAAMAAAABAAIAAIdpAAQAAAABAAAATgAAAAAAAABIAAAAAQAAAEgAAAABAAKgAgAEAAAAAQAABGGgAwAEAAAAAQAAA1AAAAAAcbtd3AAAAAlwSFlzAAALEwAACxMBAJqcGAAAQABJREFUeAHs3QVcFkkfB/CjUVEQBBEQxe7u7jy7u05Pzzzj9M64s7v1jLPO7u5u7G4BJURQQgEFJHx/D4N7++4TkhL+OD/PzTM7O7v73X2e3f/O7Dx6QcHBP/CPAhSgAAUoQAEKUIACFKAABWIE9OlAAQpQgAIUoAAFKEABClCAApIAYySJggkKUIACFKAABShAAQpQgAI/MEbiQUABClCAAhSgAAUoQAEKUOA/AcZI/1kwRQEKUIACFKAABShAAQpQgDESjwEKUIACFKAABShAAQpQgAL/CTBG+s+CKQpQgAIUoAAFKEABClCAAoZpkSAqMjIiMgprbmRkaGBgkBY34btd56ioqIiISGy+gYG+kZHRd+vADacABShAAQpQgAIUSLUCabIdafGSZcVLlMO/TZu3Jq1scHDw2bPn37x5m7TVsjZJ4LLzFbHvhgwdIWUmeSIiIuLqlavPn7skec2skAIUoAAFKEABClAg3QvEox1p1eq1Dx8+Uojo6+nnzOmQO3euihUr5Mhhq5iatt6GhoaWKVtFrPOJ4wexUWlr/bm2ksDAQb+eOXMOb+fOmd68+Y9SPhMUoAAFKEABClCAAhT4qkA8YqTTZ85dv3ZTR41jxozo3q1LKu9A9eTJ0xs3b6GLXuvWLY2NjeWb8+zZc+ntnTt3U22MpGMTpPVP94mAgIDDR45hM+vWqa0IztGIJAIkTHV2vsIYKd0fDNxAClCAAhSgAAUokLQC8YiRpAVnt7WxMLcQb71fvw4OChbpGTPmhoWGDRzYXyqZChMXLlyaNXs+VqxG9Wp29nbyNSxcuBA2zdfnDTLRLCaflKrSOjYhVa1nsq6Mm9uLiROnYRHZrKwUMRKi9HbtWu3YsQdT6zeol6yrwcopQAEKUIACFKAABdKfQEJipEUL5pQpU1qy8Pf3X7Ro6eYtO5CzYOHSOnVqIdiQpqa2hI+Pj7ZVQrPSudPH3F68RO9BU1NTbcVSPF/HJqT4un2zFfDzD9CxrGlTJ/X/ua9ZpoyWVlY6inESBShAAQpQgAIUoAAF1AWSYMwGKyurCRPGFi1aWNR+9ep19cWknhwfX1UzkbY/A0PD/PnzpeYACWuuexO0bVo6y3/79ivjajg65mSAlM52OjeHAhSgAAUoQAEKfBuBhLQjqa8ZBuBu0rjhw4ePMQlPyygKoKFp3/6Dz54+v3Pv3qdPn4oXK1qyZImOHdplzJhRXtL7lbfzlat3797zeuWNLnxv3vjZ2GQrV7ZMk8aNqlSpJC+ZgDQGrHv50t3Xx/fuvfti9vUbN2W3yS7STZs2trGxRnr9+o1RUdFGxkZYPUPDWJy9e/cHBr4ztzBv3arFhw8fjhw5du/e/Xv3HwYFB1WrUrl+/brVq1fDvMEhIceOHn/46PH9+w8QxhQpXLhlix8bN26op6cnliK9AuHAgUMPHj4SJQsXLFCocMHOnToq+oxJ5UUiLpsQFha+Zcs2lC9SpBC6C+Lt2bPnXFxcQ8PC2rRumSeP0+fPn7GD4IxXHx9fNJp9/BiaxylXhfLl2rZtjQLyhco3PDIy8uSpM/fu3nv0+Am2vUD+fOXKlendq4elZVb5LFjiwQMHz5y74OrmFhLyAYFK/rx5ateuValSha9GnnE5AMLDP710d/d57XPhwmWx3N179r9+Hds2iFUqXrwY8k+ePO3p6YVE4yYNbbPH7mVpPfGQ0pUr1x49evz46TOsYZFCBXFA4gBGhCyVQcLDw/PUqTNI1K5dEw+n4fg5dfrM06fP7t1/gD1YtEiRtm1a1axZXT4L0xSgAAUoQAEKUIAC6UDg/y4KE7M9GTJmELO/DwqS13Pu3IVfR4yWnlnCJE+PV4cPH9+4acuKZUvQaCMK33/wsHXrjvIZkcZcri4vtm3bNXTIL4MGDVBMjdfbnTv3TJs+Wz7L6tXrpbeIDUSMNHnKTJHZuFEDtI+J9Lp/N4rw7+PHj/PmL5ZvyxaPnVu27ly8aO77oPczZ82XT8JzTRg5wN3DY0D/ftKCkHB1dRsxcoyoUOSj5NlzF5cvX7106bwG9evLC8vTcdmE8PAwsZktWjRF4Nqv/2BplRAFYTMxWrp4jEde8927D/Dvn1Xr1q1dWbVqZWmStOHmWbLMnjsf+0KadPPmbfzbvGX7uTPHMmfOLPLRCbBz157Yv1IxbBrG+UA/zNmzprZs2VzKV0/E8QB48uRJ23Zd5LMDWRqhoX//PiJGOnT4yMGDR1EsV25HeYwUEhIye/Y80S9UVCLW8IcfNm/ZtmPm9CnoZilVjn0nMP0DAvCLXPIDBmWwmUePnhg/fgzGKZFmYYICFKAABShAAQpQIB0IJFmM9PjxE8Ehb4vAb9T81PcXkV+5coUSJYojvXffAVyY4hJz/IRJmzauFT8Ci7HIRDH02XNyymVlaYkWm2MnTotL/IWL/m7QoF6BAvlFmQS86uvr6lWo3tSjcREiusC4DiVLFPf3D0CQIIoNHjJCJDJnyYyGr7CwUGfnayJn3rzFHdq1kTp9YTS2Ro1biEl58znVqVUTAwxcvXZDVDVw4PDLl85YW2cTBRSv8dqEffsO4Z+iBrwNDw8XmdgdtrbZzc3N/fz8RDiB/MFDR1y+eMbU1EQxY/8BQ6S5EBEdP35KvMXeQWzxc7+fxNs/xv4pBUiNGtW3t8/x5MmzS5euKGrT+DaOB4Bam9z/VWagr+sHhdGGhh9lkhqg4F+saBEvL2+Bj1iuRav28pBPqnrFitUindPRHq2gCOekzZw8eUarVi0ym5lJhZmgAAUoQAEKUIACFEjrAkkTI926dVsMIwaOypUrCpSoqKjJU2eJ9IzpkzDWtghF+v/8U89efdFwgWvTy5edRUc1NCitWbMcsUeWLFkk0z//DEdJcQmLbmmJiZF69OiKf6i5TLkqIu7C1bBiXDtpudoS6HPVv/9PZUqXEgUuXLjYu09s61b5CmUHDvi5UqWKBgaqYOzOnXvt2sc2L7x46S7FSP/8s0bM27lTu99/Hy2iEfTumz595r/rN2PSpk1bhg0bLMooXhOwCR06tKlWrap9zPB9+fPlRYV1atfCeBuFCxWSB0IjRwyrVbsRpkLmlZdX3piS8qUjNhg2ZBD6DSKiQ/67d+/7Dxgs9su9ew9ESYR/Uvght0Vkgt/kFTPK61Sk43gAlChR4vkzVW/J338ft3PXPiTQiNeoUQNFbRrfXrhwSVrDJUvmNWwQ22SH7nN9+g5A3I7NX73m32FDB6nPDsmf+vQSw8FHR0cfPXp86LBRopiHu0fRokXUZ2EOBShAAQpQgAIUoEAaFUhIjHT58hVc9YoNDggIvH//vrhaRQ5aJ6pWie2shUtSXH0is0GDum3atJKAzMzMBg7s36+f6kr0uYuriJFwJ756tapSGZHAdXz79m3EtTieQlFM/fZvBw8egGYEabmVK//3lNSgX/rLH5oqWbK4NIy4n7+/mAXPZa1a/S/SaG4aNWq4FKUgrPplQD8RI6n/Sq+0uPgm9u7Zpn7t7uSUW70ee3v7tm1aiJ2Ih8HUY6SF8+eIPmxiXgsLc/RFFPvF3d1TZEZERIoEti67ra20FATG2bPbSG+1Jb7BATBv/iKx9GFDB0oBEnIKFiwwa8bUHj37Ir106Yoe3btmzRo7tL0oX69e7SmT/xJpvKJBr27dOtLbt2/9pDQTFKAABShAAQpQgALpQCAhMRJ6vmnc8h9/bDR+7Bip3xqe2hfF8DS8onzuXLlEjvvLr0Q+UsezyC+X4IqqUvCtoaFh1aqVNPYlA0KliuVFb7fPn2PX0SNmFAG8ada0EQJF+ZqjoQmhBdoxMIqAPD8x6SJFCsd99uxfBjbA2Awa5lLr4laqVAlFMQRC6L2GZ5awFfPmL+zTu6diOAdF+Ti+TaoDAH35pGfA0DtOsXSMb4G2MtGDzsvTUxEjKQrjrYmJca2a1fAUGdKf8R//KEABClCAAhSgAAXSkUBCYiSNm6943B9l0AdJlMTwaNeuXZfPhRHPxNuo6Gh5foC//41bt/CISND7oBx2tmjfeP7cRV5AR/rW7TurV6/TWGDM6JE5Zc/iayyTsExjY+WjO1I9hgZK21evvMXUm7fu/vnnJKmkSCC0QAKjzCnyk+Otm9sLDE/n6ekZHRWNnnj483r1Kl4Lwm9JqZfv3LG9GPRi5co1+NepY9sWLZqVKlVK9D9UL6+ek5gDQL02eY7vmzfSW/XxA7GGGKdOxEieXq+Kxzw4J5XXmMiYKaPGfPXM6JgYSl9PfUpsTkTU530P/DbceZvV1HBdhwJay3ECBShAAQpQgAIUoMA3EVBex8dlofPnzyoa00aBcd5atuogZlH/YVN3j9heWOJ2u8aara1VI27jD0+trFn774wZc8XbBLwGBgRKYwkoZu/Vs1syxUiKBel++9r7tSiALoiiF6J6eQzDrZ6ZhDkYoHzmzDkYKjAJ65Sq6t69a6ZMmcb8PkHkYMQ//ENPtt/HjJQPlyeVlycSfwDIa1NPY7hwkYn2IqmpU14se8zg78h5rf1XhuXl455uvPqBs1fI8xFlsmfWEFiinksv3vfe45rRxKCkdYa4V8uSFKAABShAAQpQgALJJJCQGMkuh62TU26xQhiMQVwT47VmzRrZssWOl42p5uaxoy/geXdtwy2ULlVS1LNhwyZ5gIQnQDJlyohfpMHQDqLAV1+NjY3QXU1jsa8OGKBxriTPNDPLJOrEU1v16v33QIt8QXayJ3nk+UmSRhwyZsw4KZIEV53aNfCLQ8/xC0qycb0Tsyw8eFauXNn9Bw6uXbdRtIwhGuzZq9/CBbObNFENC6HtL/EHgLaaRb7UufHdu/8bm16aC+MoinTmzP/XDVIqkHyJM67vUPmhroXK5tR8ACffolkzBShAAQpQgAIUoIC6QEJiJHkt+NGbLVu3i0hm1uy5s2ZOk6ZKDx1haLVGDWPHEJOmyhNRkZELvjzjNGhQ/wH9+0pduS5dcsYVtrywtjTGfrh147K2qakhH10HxWpgiLkU+VEddFyUAqSVK5fUrFFdGk984aKlS5YsTxKlXLkcBw/6Bb8Kdf7CxVmz54noa/2GzTpipCQ5AHSvvNS/DpEbfuhWGjBDmuvVl1Y+B3sHKTNpE67+ob13Pm9RyDI4PGr9Pb9i1hmWtcx71vXdiluqEVAG7HNzyGK8u3vh088DJ572vP36Y6FsGUZVs2tXKratNWlXhrVRgAIUoAAFKEABCmgT0Nc2IY75+HWjiX+NF4X37DmAIe+kGXM6xIYEzpedpUyNCbQXiTYHTO3apaMUIGksnFSZ3/5Re+ky/cy589LPASVmc+K7CRg/XSwO/d9q1awhBUiJWQdt82JAC4wzvn/vTtG4h0HwfH3/eyJIMVdiDgCMxK2oTeNb/BKU1Mx45cpVRRmM0yj9pJW0mxRlEv829FMUIp9Vt97aZjaq6Zj5zIug3ff9clmYFrRUPdXWrKBF22KWrn6hLTc99QqOmFE/JzL77HW95PY+8YtmDRSgAAUoQAEKUIACcRdIbIyEJWGA6T59uotFjpvwV2ho7KgDZcuVFZmbt+zADyjpWCfDmF/dEQUiZOOq4YeDHj95omHGL8OsSZGVhjJasjJmjH3k4+GjR1qKJFc2GljwMAxqx9gA6zdsSvBiErwJUp/DyKgI+dLxXJnbl0EI5fmJT0eL8QpiKsJS8H/pWaDAQFUHM/EX7wPghx8yZowdMuH2nbtfqvnK/zu2byNKLFm6TOpZhxxEWStXrhKT8BPGjo6q4CT5/hrlzfJzZbs+5bJjEQGhkVXzmJe0UW1L2xLZOpfJjmeTkB5e2faXqvZja6latE7H9MRDgn8UoAAFKEABClCAAt9GILF97cRa/jLg5+079iBiwdU/BpcbNGgA8p2ccv/Up4f4RaAOHbv//HOf6tWq2NraYnRpf/+A+w8enDhxumfPbuiG5xDzI6eiKowo0LVLJwsLCxdXV/ziqsbnkYp9+cnOLdt24DkTBwf7unVri9m/+oofOMKvhaLYjJlzXV1f2NjY4Gn+qlWrqA9m/dWq4lsA7WNjfx/df8AQ1dJnzL11607HDm3tcuQwMDQMfPfO1cX1zNnzOXPajxk9SnfNCd4EpzxOomb0f/v77xV4Jgrhwb3792fOmp+AaFOxks7OV1asXF2tWpVSJUtky5YN+8XV1fXw4aOiZvxalIg9CuTPL2ZEy9LSpcutbbK1ad0qvgcAakDAKepZt26jkaFh/vz58fNTGH+8WbOmihWT3vbt2+efVevwFgcVDsjBg/sD/927d7v37Dt48KgoNn7cGDSNSrMkX0LbMHciqDSMmWwUcwdDFmYm3+qwZgpQgAIUoAAFKECB/wSSJkbKkiXLlEkThg5TXdzj15PwA6Pid0hxVep85Zr4XZoVK1bj339Ljkl179YZ/0eQMHr08Jkz5yGNq1XpglVRWHpbsVIFkUa0M2XqTAyBEPcYqW2bVidPnsHsCOfmzVss6sG19TeIkbCs2rVrSr/WikeDpKeDxGrgtWvXjlJaWyLBm1CkcGHpV30WLFyKf9oWkYB8/IYsfipK469FoTYp9rCxsS5foez1azeRKVagebMfTU1N43UAYN769euJccaRFpEPEi1aNNURI+FXj5b9vXDAL0NREiNJDBo0HAn538CBP5ctW0ae8+3T5R1VwzYsv/7G3NRw1Q1fpKvm4kAO334/cIkUoAAFKEABCnzXAgnpayd12ZLLNWrUAD+oKnJmzp4vEvgV0R3bN40ZM0JeUkojHihZsrh427NHt1+HDZImIYGnR8aNHX3V+aw8U6Qzm5lNnzZRykdrgJT+aqJOnVpTp/4pPZqC8iVLFsNvBIkZ5flSVTp+CQe/JSqK4fEbqbwigVYOKQePAE2fPmXFisUaF9SgQd2mOgd/E/XU0b4J6j/KJC0aCfwK0IwZU5o3ayLPRPc/jN+w/t9/5JkirWPD1Qvnz59PY4CHZ5/WrF7WsMF/g3b8NnI4mpVEDTEjcasOwngdACiPp4Y2bVyLX62V1gTpYkWLircmWn63Ck1np04eRlAtzSUSWJ+N61cNG/p/R6CxbMcpyifgrd6XeURHUanP4Zfs2P8Xtc20rJmTa0BYv31u1159GF/Tvl5BS0UZvqUABShAAQpQgAIUSFYBvaDg4GRdgKg8KioKP6Dk5ekV+O59VgtzSysrdJDLkCH20SBpBd6/f49fng0KDsmd2zFHjhy6BxXA00ofP35AE4TGmE2qU2MCfcwCAwPDwsLQ9+/b9K1SrAaG4Q4ICPDw9PL18c1klsnK0hLbi4YORTEdbxOzCdgXHh5eqDxfXifsCx1Lie8kkHp6evn5+b1/H4TB37PbZs/l6KhR+EPIBz19PemxIrGgeB0AYpbg4GA82oQ+k+pD1elYefxOFAaK8Pb2hryTU26rJEXQsdw4TsKvyr4N+WSVycjEMCF3MeK4FBajAAUoQAEKUIACFNAo8I1iJI3LZiYFKEABClCAAhSgAAUoQIHUJsC71Kltj3B9KEABClCAAhSgAAUoQIGUFGCMlJL6XDYFKEABClCAAhSgAAUokNoEGCOltj3C9aEABShAAQpQgAIUoAAFUlKAMVJK6nPZFKAABShAAQpQgAIUoEBqE2CMlNr2CNeHAhSgAAUoQAEKUIACFEhJAcZIKanPZVOAAhSgAAUoQAEKUIACqU2AMVJq2yNcHwpQgAIUoAAFKEABClAgJQUYI6WkPpdNAQpQgAIUoAAFKEABCqQ2AcZIqW2PcH0oQAEKUIACFKAABShAgZQUYIyUkvpcNgUoQAEKUIACFKAABSiQ2gQYI6W2PcL1oQAFKEABClCAAhSgAAVSUoAxUkrqc9kUoAAFKEABClCAAhSgQGoTYIyU2vYI14cCFKAABShAAQpQgAIUSEkBxkgpqc9lU4ACFKAABShAAQpQgAKpTYAxUmrbI1wfClCAAhSgAAUoQAEKUCAlBdJejOTj+3bn7gN+/v5xZEPJz58/x7FwiheLiozE1j1++jxea5Jqt/GS89VTZy7o2JZTZy+eu+gsCnz8GBoSEqKjcMpOCgh8h13j4/smBVfjuYsr1iEyMvJbrkN8P3FYt6ioqICAwCRZSa9X3pu371qyfM2DR0+SpMLkqOTBwyfYL8lRM+tUF9i979D9+4/U89NiTgI+XKl2M5PqU5AavmlTLTJXjAIU+JYCcY2RRvz+19Yde+Rr9vfKtVNmzpfnfJv02zdvDx8/7a/lCgyXj89cXD9FRIiVuXn73m9jp0hX4UmyhjirvfbxTZKq1CuJjIrG1j1+8pUY6cVLj/dBwcm3jdKKyRckZcY9cfrcpeOnzuoof+rs+XPnL4sCf06dPeKPSToKp+wkf39/7BrfFI2RHjx+hnWIjIxSUCTrMan7EyfWRPG527xt98g/JiU+nsTdjckzFzhfuWlsbPThw0fFVsfxbYKP4aDgEFe3lxqXopj04NFj7BeNJTVmKmbXWCalMhPM9c1W+OCRk/cePf5mi0vAghQfB3kNiklx+XDpmF0+KcXT8f0UaFvh1PBNq23dmE8BCnxXAnGNkQID3797HySnQZSiLVCRF/vG6VfePjPmLHn9OjaGyeOUq36d6oUL5k/C1diwefvGLTuTsMIEVDVtzkLnq9fFjMmxjdIqyRckZSZTokXThu1a/phMlafvalP8mFR87ipXKNuwXk1Ly6yJZPfwfBXxKaJrp7b9enerWL5MwmpL8DF8+cq1GfMWa1yojkkayysyEzm7orakfZtgrqRdjTRdm+LjIN8WHZPkxbSlEzm7tmqZTwEKUIAC6gKG6lkJyDlx8uy5S1fe+gfkc8rVoW1Lx5z2uOm7YcuOh4+eRn2OLlOyePfO7YyNjaWa0c4zadrcVs2b3L338PGz56OG/ZIpY0b18g8fP926Y+8bP//o6Ki8TrlRiV0OW6kS9cT5i1eOnlTdzV20bFUGU9Pe3Tvh9jMWUKFcmew21ivXbLDIkiX6c/TVG7c/hoY1rFurYIG8e/Yf9nz12ilXTqlyb2+fNRu2INPUxLhJgzoN69eRFoSeYGs3bHvm6oaccRNn5HJ06NurK6rN6ZAjOvrzhcvXWjVrbGaWSX2dcTd67YatHVo3P3zitNtLD5tsVu1bNStevAjqUdBhPaXF4Sb6qnWb0MXoY2ioqbFJg3q1mjVpgKrQ1SQqMnr/4eMXL1+rXbNawfx5pG3ELAePnDh74XJQcLB9jhzdOrXNmyc3Kjx55vyjx88qlit98OhJeObP69S1Yxvb7Dbh4Z927Ttw/ebd6Ojo/Pny9O3ZxcTERKyA+oLq1qqGBrR1G7e99PACTqXyZdq1bm5oqDyEcP13+NhpHAyF8udFrwljIyNRoQ5YUQAy4eHhCMXnLPi7VvUq9erUEPkLl/5jniVzz24dNdag8JdfSaPz3qZtu+7df4SDsGC+vD26drAwz4I6MUs2Kys9fb3LV67jjn75MiW7d2kvradYqHgNDgnZuGXXnfsPzTJlBJo0CVz7Dh27ePkqnJ0cHfv16YoKgXz/weOSJYoeP3XOPyCgSMEC7Vo327P/CI7wLJkzd2jTrHTJEhr3KarVtoMwye2F+/bd+1+4e+KwyZgxg7QOIqF+TGIzFR+uu3cfHD9z/t3795ilQtnSONSxl7UtUf2QkC8RPehW/7v5hYdnRESElaWl2Cj1z53Pm7cPHj1t1aIp5tV2TH51L1y9dhOHK2rYvH33gcPHmzWuX7FC2bv3Hmzbvf+tn7+lhUWTRvVqVquMAtiWJ89cqleusHv/kQL583Tp0Eass8ZjWP0owoIOHDmBD0vBAvk+hHyYvXBZmVLFseuvXL2JDxo+6Xp6en/+MUI61HFQKSaJxYkVln++NHKpzy7VPHv+UgsLc3yriArxWb5x6+74Mb9ip2g8khf9vcrWxrp92xYoj1Y79EgUWyFmF68av4o14nt6vlJ8t+Ajr212+Zee/EOnY3drmwXfgerHp3wTUOeOXfudr9+MjIisVLGsfJLG4wEF0P14w5Zdbm4v8ZHBVlSpVH7G3CUtmjUqX6YUpoo99ceoIRkyZABFws4L4izWuEHtR0+ei46gjerXatygnvrHAbexxDqrTxL5z11e7D94zOWFu3Rq0PhFoT67VPPufYfv3n849reh4jyLU+eW7XtwIOFcrPGMcOjoibv3Hv3x21CxApNnzCtftlQj2ckO+dqOLoiZZ84cFBJy+94DI0PDerVrNmtSX9Qjf9W4a7Sd07V908orZJoCFKDANxaIazuSjtV6+sxly859DvY5cN1vZWUZHh6GwnMXLrt55161yhUqly97+cqNW7fvyWv4HP3Z+7Xv0hVrLzpfy5wpEy4RNJZ/88bPMqsFApX6tWq4vniJ73p5JeppA0N9s4yZkO/oYJ8vr5OJiXFoaBgWhAtZZL708Dx68uztuw+qViyfJbMZapu7cDkuXmtWq/jsudvxk2dRBlfVf06bjSuwHxvVd7DLsW3XgcB3qitL6S9zZjOkEbGgfrsc2ZFGtTt2H9q197C+vh4iB43r/PHDR6zG/KX/4Nq6bo2qPm/ebNy2C/NqpJOWhdMk7hqWLlm8TYum1tmscLUtnvHIkiUzylhlzYp1wEW/fBtxKYlihgYGNapUevX69dRZCwP8A1DYz8//zr2Hq9ZvtrezRaSEeOnUmfPIx5ny5OmLCEgaN6ijr6cXGfV/nbgUCwoLC58wZRZO56ghq4XFidMXEC9JaysSrq4vVq3bEvDuXaN6tYyMjd6/V8nj76uwKOPu4eni+gJbhOvvIydiey7hWufu/UfZs1trq0HhH7O02Jd5i5c7X72Jq4QihQqgkonT5sAf0zAL9v6J0+fKlCyWy8Eex+dDLc+64BC9fvNOoQL5alSrjIBfqnzfwaMHDh3Pl8cJx4m716u9B45iEpDv47mUvQeLFipQIG8epCdMnh0Y+K5Ojao4ijZu3Y0y2vapth2EK9Q5i5bh+KxWuXzhQvncXrpL6yAlFMek+ofL0/t1XqdcrZs3KVuqBEBu3r4r1jYBhwRCyoiIyJpVKzVv0ig0NHTdxu2oSv1zhxZmHLp4uA5TtR2TX90L+gYG5jExLT6JqkM9q7mLi9vCv1f7B7yrXaNKWHj4vxu342JXbMut2/cxCXFgZjPVJ1T6UxzDGo+i0qVL4BJt+er1eIxq2679aLzCF5cJLjZNVLd1sGhxo0GqU9sk9c+XRi5ts6N+3LbADsLKiGUdO3EmQwZTAwMDbUfyC3cPd08vURhxFL5kFK39mKTxq1UbvoJLx+zyLz2xAuJVx+7WNovG41Ne5+FjJ/HVDYqG9WvjsyBN0nY8gGLsxJm4YWFvn6NE8SKhYeFRMWcc8WWI2fEFheMTRzLSoEjYeUF80Fb/uxXfWtWrVNTX18cGIsZW/zhIK6xtEiIcfPfKTw0avyi0zY76ccPO08sb3zliWRcuXfF9+9bBzlbb7vD19Xvh4SGt2IuX2AnKDuTaji6IHTt1DluN74HoqGjcZ1R/VlDbrtF4fsRqaPumldaQCQpQgALfXkDZCJCANXj12gdzNW/aUGrkwWPWaGpo36aZuC/l+sIdTTeVKpZTVF6yeJGfenbJlCmjtvK1a1bFPzEX7s7evHNfUYPibdVKFQwNDF3cXrZs1hjnDEx97vLfCRVvcbn819iRSOR0sFuxZuOwgT+VKF4Ub3FHTQyTcOnyVdw5Hj64P2ZHZ6H+Q0bfunMftyFRBn9mZmY9u3bA7To72+xIiEy8mptnHjtqaLZsViJH2zr/OrCvaDvCHThcl+NErk6HTKlanHTF2iIHkdLvE6bhQh+VI166ev121crlBa98Gw8cOW5llXXmlPGYpXrVSpOmzzt26myn9q1FnUvnTRd3GbEJD588Q6YXmssymDRtVE+6ky1K4hXXhYoFnTx9Hji/9OtZrkxJFJgxdzG2onP71vLGDSwOk2ZPmYDdigQaND58VD1GohsWBeR/dWpWRXT65q2fjXU23EfHpMoVy+uoQeEvqnrl/drthUfN6pV7dGmPnCPHT+IK5sHDx2KPI76dPGE02gfevXs/fMxfCFYhLF8HpBG34IKsds0q3Tq1w9vCBfOhG6coc/j4Kbwd0LcH3uLpoOOnz/Xp0VlMAjKqxdNiv/42oUHdGh3btUJ+aFjYmXOXcYEOK437VJpXsYPwQF1YaPjgAb3QBoUyGUwzHDj8f3cK1I9JcQhJHy7MhQZVUT8uvNBwe/P2/SqVKmhboo5DArPkzpVTuvecOXOm9Zt2oPlC/XMn9ppYhI5jUvdewI1ttMoinm/UoE7xooVR2/zFK/A6d9oEbHWHNq36Dx215+BRNC6JBY0dNSSvrK0PmerHMJosNH7A0ZcPd0z+XrkO91A6tW2BXoJtWzVDhON87Yb8ky4WpG2S+udLI5e22VE5QvEz5y9jp+O2BUK1Dx9Da9eoqvtIFquk7VXbVyvKq+PjWFV85HXMrvFDh2p17G5ts+g4PsV2HTp2yjqb5bS//sDbHxvX793/V5GP1j8k1I8HNPCii2bv7h2rVakoSkpPb4q3iteEnRcQSKOehnVrdmjXEglE8ivXbkKrr/rHQVqc+qQA/0BMVT814Aafxi8KxQlOqrlU8SKIoJyv3ihbukRUVDRuUFauUM7A0FDH7pDmTUACJ9CJ40ZhRrQV9x/82/0Hj4oVKSSvR9uu0XhO1/FNK6+TaQpQgALfWCAJYqQSxQrj23ncxJn16lRDT4OsFuavfVRjf6Gzjbe36tYUbotKd0blm5fTwV5cSesoj5tb12/d0dfTDwoKRo87+exI4z7rc7cXIhPf0biwUBRQvEVTicjJEnN/Wu+H2LfmWbIExvREEkGLNBQbtsvT65WiEvW3Wc3NpQAJU7Wts7FpbG9DtLahGC5Y1ekUlX/69Onug0cv3NyhikmRX8aiUBQTb9HtCtd/aMQQb8GLhIeXt1RYXH/jbTYry5CQD0hUrlQOjQm4mv+xMXpMVJMKSLPIE17er/G2QP68IhPgCCHQ5ibCUZHp7uGVNau52K3IQX82kR8vWEREiJFu3LrTpGE93FbPlyc3Gpd01KDwF0v0jhlXAy1I4m3B/Kpn0lCJiJHQsw6RDHLQtQmvUTHtS+jZiNYJUR6XPghpkC705WG22C2JOZ7hjANmzb9bUMDbxwcXZB8+qDzxJ6pFQ6Uq/eUAszC3wNvPMUvRsU8lf2kHeb5SHX758+bBq+rvywEs3ul4lT5cKIMjDQOZ3Lv3CBepBnr66CMkzai+xK8eEogcrt+4jfaKkJhNxjPoUm3qCd3HpMa9oF6JlIMjEEcXAiTkGBjo58mdS96wpgiQpLnkCW1HUdHCBcuULo7GKFtb63p1a8pniXtaHRPzxosLHyXc47jsfB1fZTj+8f2DXn/o0YR6tB3JuldPx1drXPB1zK7xQ6d7d2ucBeuv4/jEVDRf4zYB+oiqb6m240F8UxUpXFB9Fo05iTkvGH3pQ44dh8rRl1vjInRnqp8aUF7HF4V6bQiHqlWueNH5Kj6P6GKKLyh0Q9W9O9QriXuOgX5sDxQcRfjI3MKdhS934kQl2nYNpqqfH3EXAPnq37RxXx+WpAAFKJAcAnGNkXC2Dgh4J18D6VETPIkxcewo9FFBry3cBP1t2MBPEZ9QEheLBoYGSJQoVsTWJpt8XkVaW3nEKpu27ca5Bz3u0KNJMRfeBgQGog+9yM+eTdci1OfVmBP+SbXm+gY4aaouiXHWwf05jSW1ZX51neUzqtM55lQ1f4k/NAgMGTUOkSGuBUWQ+fmHz18mavj/p0+qa1882SWm4SISvd1wotVQ9EsWeuebDDTasecgYhJ0OJk0/jdFV6UvBVX/x8NCeDU1NRGZuMePhKJ+xBjovigKyF/jBYsOP/nzOaGRCo8RoANJ356dUVW8apBWTGrjyhjDIojkKyZP40kV0eqFzKDgD59itjdjhgzyMkgjIhI54vBGNIJ/on5FSfW38d2nIk6TLr7VK4xLzsx5SxDN4mY5Dgk0TeCSVMdc6oeEvDBuk0+ZuQBtj06OOcWVaJIfk/LFKdKfwj+JmFbkm2XKhGtB3ZujqEHHUYRHLFA4CiNLRn82MJAiYkUF8XsbXy7UjkbUHbsP4jh0vnYTgQEaeMVHLF5HsrSW2r5apQK6E/GdPQFfQVgB3ccnnsZEmUxqH0Nkajse0AtUNcuXb0KkE/mn47BJZM3aZo/vFwXqQVx97oIzekSguwHaeNGIKvpmSw5xOSNoWx8d+fiG9AxQBTnyP2275vTZi+rndPEtp/5NK6+QaQpQgALfXiCuMRL6YKAPG66SxTP96AeFR03Qn0esMXrZ/TqoHzLHT56F3lb1Y562L1GkUP16teKySbhrjmLq5dGjKbejw4Q/RmDqth17T55T/tIO7l0pbl+JxcXrskm+htYxgVa92tUd7O3k+Yq0aHZQZIq3X11nxVwKur49u0oF8LAWLsfHjBxUIF9eXCeh45/ULoEyn9VuWIrLxyfPXUQN6HyP2fGEg1ShxgTaVfDv3v2HC5auQsdC8RC8vKS0IJuY8STc3T3y51M1JT2J+REn0SYmlUeHk8dPXXAvU9F5L46wUj14hgedIcVDU2VKq7r2xbcGPP2MuZ65uKGJAAlXN1WvS5GJhMY/caRJk9DZCWl0wxM1SPnm5qqmJ4xYIHrxSflxSejep+o1ODrYoSUNwzFjOAH1qfIcbcck7toiQMJD1RgiBeX/+GuaiP/l8yrSikPCMmZ7RRk83oDE/BmT0BcIv1GDR+z+/5hURl8JOyYV6yO9tbHJhgcn8JgT7poj89lzV1wLfnVzUFI6hrUdRbj1jvs76D+Jo/foiVNNG9UXC0UMJi1dkdAxSSqpg0vb7OgGiRgJLeT+/oG1elVGVbqPZDyOKC1OPaHtq1W9pDxH4orv7AnY3V89PnGDDHfo0DdY1eH1//+0HQ821tYoiE7IxYrGdgATZwQM1fP/FcT1ncbDRnRq1VGFjtOQjkmiQt1fFBpnRyMkWlkRWuN3iurUro56dO8OHIF4AA9Pu+nYBN1HF2bEE554Ii57DLi8Hm27RuP50T7mbKv+TSuvkGkKUIAC314grjFSnRrVNm/fM2v+0gZ1a0VGRR6KGW+qVnXVKfzpcxc8WY671OgUgUYPPJHslDsX7jQfPHbSNKNpwfz5Xr/2iYiMEg+xaNxCbeXxQE7whw/orIyHka7duiPmxZO7SOAB+hy2tqJHk7xOERJcuHwFd0Bt4t+yVL5cSTzNjzHoMA41QgJ3d090olM8sY1FYAS2R0+eGRkaiGhBvgIa11leQJ5WpzOMaXlzdXvh++ZtVgvVIGyvXvngKuHM2UvSjOjJhouGG7fuYcwA+b03LFr0F8ITwIUL5d974AhmqRrTaV6aV5FAP0bUYJ/DNra94ssYdKKYYkEYyA4DFfy7aUeHti3Q5IIu7zkd7LBu8joRz+Aqc8HSfxrWq/X0qYuH1yuMP4YC2mCxdF/ft7hCVSDjMXpsI569wUMpuBzXUYN86fI0Gt8yZcyAgRmsrSxNTE127j2ECtGkKS+jO40HNnAY4+lkDCtikdXiyLFTojxuxxYvWgiPR+NQKVMKj/sHo7GrXu0aumsTU7XtU23zFkUv/10H1qzfgodY3gcFnT3/32Egn0V+TDrmzCmfhCgCb3H/Ag2/uMeMvpGI7uQFFGn1Q0L+iRO7G88gGRroHz15RppX2+cuAcekVKd6okbVyoiRlq1ej56QV67fQptYk4Z11IvJcxTHsMbjEBeXf/+zDk+8jBg6YOHfqzD+SvmypfEsXA5b1f0FjNOIqLhg/rzysF8xSb5EeVobl2J2ec0YwhFD8+EngHD05ovpY6njSLa3y4HntfA1Ehz8AYe6fNEire2rVb2kyFFwxXf2BOzuuByfxQoXQtsIfkq4RNGil7/85gFWWNvxgG8qfDb/3by9edMGtjY2aFYqWkTVIfzKtZv4wOJm30mdP2ytjqPxsNFxH03xcRCxiqhWMUl9WSJH2xeFYnZ5zZgRj87u3HMIiepVVM9K6dgdGLwHBc6cv4QTN8ZHRVr9T8fR5entjYEWS5UohnYhxFp4ag6zZ4hpuLt15x6+ZrXtGqyS+jld2zct6sQjiEZGRoP691ZfPeZQgAIUSG6BOMdItaq98XuL3nQrVm8Q69SmZZOSJYohjT7rW3bsFR2QcNGMizn0UcZDqIv+Xr12/TYUwMmpYZ1a8hhJ8VSFtvJtW/64ZsPW38ZNQZ8xjD8WFDM8nZNTbnyl4hoiu022qpUripWRXnG5g+tXPB+Pf0N/6YPeONIkeQJj0OGt3pdO1dKknPb2XTq22bR1FxpVkInLFAw5LU0ViSYN665cvWHOgmU4zeC5f8VUjev8w5fHchSF1elwVw+DBGDlEeFgQAun3Dk3xPwWEzYK84p+TSiDUcX2Hz46fc4SDCxRLqaZRdTcvVM7DEKA6wP8Qw6aDsRjDNrutd+5++DazdviljaefKj05fF3UZtiQRjVHY9B48pj/uKVKIBryoE/9xIlpVecpD09vc5fuopLN9zUxAWK6CmkDbZ+7Rqr1m9esGTl4nn/176BQwIdjdCEUqNaJVG5thqkRSsSaGr4dcjPGDd8zfqtmIRDaMiAnzLF9A9UlNT2FleuY4YPnrtoGYZtRJlyZUpgJBJRGONrY2BcxKL4h5w8To6IkdSRlTn6eiWLF9W4T5Ulv6wTrsN6de+AMfGW/fMvPkeFCuSXD6/3pdQP8mMSQ0VL+Uig8ySGjjh+6jzG+cAuszA3FzehtS1R/ZBA3zPpE1e3do1bd+9PnDYXNZcqoRrvRByTis+dvHJtx6R8JeOYxiP4Hp5eaPDBg0OYpXTJYs2aNERCvjhFVerHsPoH/N7h4/j9t3FjhuECrle3jqPGTsToxuNG/1qxfNlzF69gnEbIz50+UX5HRjFJ2wpo41LMLq8Z61+nZjU0/dWsUUVUq+NIblinJgKkmXOXYq5aNapgzEnF5mv7alUUk96qc+n+JpdmlBLx3d3ajk+pQiT69e46e/7fOPvgH3rh4rMspmo7HuzsbMU3lTgB4c4RmkabNKiLey44dDF7yWKFbwTeky9CpON1XsDJTr0GkaP4OMgjGcUkDN6osRJtXxSK2eU1ox40QiJGwoqhF7eoVtvuKF+uNJp0Nm/bg2I4uYhIVbEmOo4uxC3Xbtw+deYiZqlcsay4W4ofUTh56tyS5WtnTRmnbddoPD/q+KZFb1VDo7hepSjWn28pQAEKJFJATwQecawF17tv3/rp6RvYWFvJ731idvTswlC54nFqURsuxTDkMbpd4Y5sXOrXWB5D9AS+C8Sdb8VViNTfRmPN6AVhZGSIKx6NU7+aiR4IuO2eMYOpGAlXvTxWFRTSTwkpCmhbZ0Ux6a06nXzrMCKTsZEhfsdDKi8SKIOOTYq9ICbhUd2goBD0dtA4VVEPOkugzQp9KbUVViwIOGiUwPqI3xpS1CbeYqejYUpdTyMsuHBpoti/GqtFpsYatBVGvuqgCgiMjI7GBsZxEeq14WGwjKamuFRVTBLOGJccV5aKSbrfatun2uYSHw2M26FjE3Qfk6oH38PDdewy+aI1HhLyYxIDsiPWUj9gdHzu4nVMyldGPY2lYAXQRKP+oVAvLHLUj2HdH3B5PaCTnsGT5yOtY5K8pDYubbM7X7n+z7rN0yf9ofi1NI1HMjbN961/dmsr9eNTWgdx/MT9q1jBFd/Zsdz47u64HJ8og06A6jtdx/GAG0Z4jkt6nA9PeaHLQ4K/CuL75aPj46BjkrTXkND2RaFtdjyANPKPSegDjPE85fVo2x1oEMYHWdvhjRo0Hl3or4tfv0DPZHwxGhsZi3Z+sTgcKjGP88WeeTXuGh3nR/VvWgwwg5OD+leNfOuYpgAFKJBMAvGLkZJpJVgtBShAAQrgmtXX982qdZsdHOxGDx9EEArEUQDRBXr87t1/BIMbLZo9Wdv9uzjWpruYFCPpLsapFKAABdK6gPLWeFrfHq4/BShAgTQqgN+3QX8wDKbc98vPbaXRDeFqf2MB/KwZun+jc/igvj2TNUDCdmEMd6lp7htvJhdHAQpQ4FsKsB3pW2pzWRSgAAV0CaBDV3y7buqqjtO+GwH0YcNwMt/N5nJDKUABCiS7AL9Sk52YC6AABSgQRwEGSHGEYjGFAAMkBQjfUoACFEikAGOkRAJydgpQgAIUoAAFKEABClAgXQkwRkpXu5MbQwEKUIACFKAABShAAQokUoAxUiIBOTsFKEABClCAAhSgAAUokK4EGCOlq93JjaEABShAAQpQgAIUoAAFEinAGCmRgJydAhSgAAUoQAEKUIACFEhXAoyR0tXu5MZQgAIUoAAFKEABClCAAokUYIyUSEDOTgEKUIACFKAABShAAQqkKwHGSOlqd3JjKEABClCAAhSgAAUoQIFECjBGSiQgZ6cABShAAQpQgAIUoAAF0pUAY6R0tTu5MRSgAAUoQAEKUIACFKBAIgUYIyUSkLNTgAIUoAAFKEABClCAAulKgDFSutqd3BgKUIACFKAABShAAQpQIJECjJESCcjZKUABClCAAhSgAAUoQIF0JcAYKV3tTm4MBShAAQpQgAIUoAAFKJBIAcZIiQTk7BSgAAUoQAEKUIACFKBAuhJgjJSudic3hgIUoAAFKEABClCAAhRIpABjpEQCcnYKUIACFKAABShAAQpQIF0JMEZKV7uTG0MBClCAAhSgAAUoQAEKJFKAMVIiATk7BShAAQpQgAIUoAAFKJCuBBgjpavdyY2hAAUoQAEKUIACFKAABRIpwBgpkYCcnQIUoAAFKEABClCAAhRIVwKGurfm8+fPEZGR0Z8/6y7GqRSgAAUoQAEKUIACFKAABdKQgL6enpGhoZ6envo6fyVGioqK8nnzpkCePOpzMocCFKAABShAAQpQgAIUoEAaFXjm5maXPbuhoYaA6Ct97dB+FBERmUY3m6tNAQpQgAIUoAAFKEABClBAowDCHG2d5b4SI2msjpkUoAAFKEABClCAAhSgAAXSqwBjpPS6Z7ldFKAABShAAQpQgAIUoEBCBBgjJUSN81CAAhSgAAUoQAEKUIAC6VWAMVJ63bPcLgpQgAIUoAAFKEABClAgIQKMkRKixnkoQAEKUIACFKAABShAgfQqwBgpve5ZbhcFKEABClCAAhSgAAUokBABxkgJUeM8FKAABShAAQpQgAIUoEB6FWCMlF73LLeLAhSgAAUoQAEKUIACFEiIAGOkhKhxHgpQgAIUoAAFKEABClAgvQowRkqve5bbRQEKUIACFKAABShAAQokRIAxUkLUOA8FKEABClCAAhSgAAUokF4FGCOl1z3L7aIABShAAQpQgAIUoAAFEiLAGCkhapyHAhSgAAUoQAEKUIACFEivAoyR0uue5XZRgAIUoAAFKEABClCAAgkRYIyUEDXOQwEKUIACFKAABShAAQqkVwHGSOl1z3K7KEABClCAAhSgAAUoQIGECDBGSoga56EABShAAQpQgAIUoAAF0qsAY6T0ume5XRSgAAUoQAEKUIACFKBAQgQYIyVEjfNQgAIUoAAFKEABClCAAulVgDFSet2z3C4KUIACFKAABShAAQpQICECjJESosZ5KEABClCAAhSgAAUoQIH0KvB9xUgTJ03t2r13j559E7M758yd37pNxz179yemEs5LAQpQgAIUoAAFKEABCqROAcPkXq3a9Rq5PHfTtpRfBvT9fcwobVOTPP/KtesP7j+Ke7UfPnzwfv1aX08/b948Yi53D4+Fi5Yh/ezZ85Ytmunp6cW9NpakAAUoQAEKUIACFKAABVK/QLK3I0V8ikj9CtrW8PiJU3XqNqlVp1FYWJgok9PBoXHj+kj/9FMvBkja3JhPAQpQgAIUoAAFKECBtCuQ7O1IM6ZPDgsLBxDaZAYNHo5EDtvs06ZNEmS5czmmZjtXN2ULmL6+/srlSyMjIw0Nk50uNctw3ShAAQpQgAIUoAAFKJBeBZL9Qr9a1SrC7t279yLh4GBfr25tkQ4NDRs8dPjn6Oi+ffugWWb79p0uLq4b1q+5cePW3n0Hbt+5+/jxU5Rs0LBe184dateqKeaaM2/Byxcva9WqWbhQwZX/rHF2vmpsYty1S6cunTtkzpwZZby8Xh07fvLoseOPHz2pUrVSubJlunbpnDFjBjG79BodHb17z76TJ08/ff5cdAjs0b0z6ilUqGBISMiWrdv37j0gCg8fMVpfX6/Zj03r1q0z7NcRyMztlHvk8GFiqo+v76JFS52vXkMl5cuVadiwXu9ePYyMjDAVG/jbmD+wgX1693rz5s3WbTuvX79RuEihDu3atG3bWszOVwpQgAIUoAAFKEABClAg9QjoBQUH61ibiMhID69XRQsW0FEmjpMQIxUvWR6FEUXs3rVVzBUY+K5EqQoi8/qNWyLT9fmDXr37nb9wWbyVXndu31SxoqqGxj+21PhY0exZUzt2aId+cfUaNHV395RmROLalXM5cuSQZvR0f4bM8PDwfAWKy4shbZ4l87mzx0M+fKhWvZ5i0vhxo3v36umUtzDyK1Uqv2PbJiQQ1LVs1f590P8xYuqWTf+irUnaQEVVeHvyxKGCBfKr5zOHAhSgAAUoQAEKUIACFEhugYdPnzk62Btp6h2W7O1Icdw2KUBCiIIGpdKlSxYuUrhQgfx29nZXr16fN38x6jl77ryIkaQ6a9as1qRxw6dPn61ZuwGZBw4cQox08uQpESANHTKgdu1ar729Xd1eivYlaUaRQMc5tFAVK1K4QIH8WbJk3rZtx779hxHt3Lv/oHSpUn9N+GPtvxtEVWP/+A18pUuXUtSAt1OnzRIBUtUqFevXr7dixarXPr5XrlxHC1X7dm3k5du3a1W1ahXknzt3EfmnTp1hjCT3YZoCFKAABShAAQpQgAKpQSC1xEhoeFkwb3aOHLaIW+AycsSvkg56yokYycfHV8oUiY3r1yCBhiMRI7l7qNqOLLJmFVN937zFEAtly5QWb9Vf0R1u9cq/pfwsWbIgRsLbt2/9LCzM+/TpefrMWREj9ezR1dTUFJMiI6Ok8kigcezkqTNIILTbsnk9oruKFcs1btIKOfsPHJLHSE2bNJw7Zybyc+VyFDGSr69yczCVfxSgAAUoQAEKUIACFKBAygqklhjJytLS3t5OskAocvDQ4Rs3b73y8nZ0dBD5eHxIKiBPIHpBiCL1ditbpox4u3XrTvzr3Kn9qJG/ZstmJZ9FSr9/H7R33/47d+6FhoYaGaueIIrXn7e3tyhfq1Z1BEhI58ubV+TcuX1XY1VZLSw05jOTAhSgAAUoQAEKUIACFEgNAqklRpJbIBbCuAiiSUeeH8d0hgymeKBo0uTpu/eofuZ185bthw4dOXRoTy5H5Rh6fn7+7Tp20fHzTV9dYmRUbLOSxZfIx9jYWMwlxWxfrYQFKEABClCAAhSgAAUoQIHUI5Dsv4+UgE197uIqAiQ0Ad255fzowU20C8WrHisrq4UL5lw4d6Jb146YEeHKyROn1Ws4dfqMCJCmT5345NHtQwd3q5cROdHRnzVOsrbOJvKvXb8pEp5eXiKBR6o0zsJMClCAAhSgAAUoQAEKUCA1C6TGGMnty68S4UkkRDsfPn6MV5vMixcvr12/jjai3LlzDRs6WOiLR5Usv7T2oMDHj6FPnqgGFsdfpUoVMmXKFBgQIN5Kr9JID2iJcvfwQJ3SJJGwzmaNn3tCGmOUb96yDWUWL459wKlyJdV4ffyjAAUoQAEKUIACFKAABdKWQGqMkfLkySMQh48c07FTt/IVqsfL9MLFi23adildtnKx4mXLlq8q5u3YoS0SderE/i4TCpw6dQq/gySmYvDu1m06dv4K8tQAAEAASURBVO3+k2JBJUoUFzlYEwwFvm69avQ8+Z+hocGUyX+KnNFjxqPMtu2xjVF9f+otL8k0BShAAQpQgAIUoAAFKJAmBFIgRjIwNFCnEcPZiXyMiD11ygTRPnPp8lUMz12juuqHaBGQqM+onoPIp05t1a/NSq1P06b+WaSI6keNmjRu0LLlj2KWTGZmLVs069GjiyiJwcd/GdBXdOrTjxl9Afndunb6uV9vkYlX2+y2Yl68GsSMv4dEgwb1Vq5YLO8NiB+AOnPqiGKUCGkDpYRUFRMUoAAFKEABClCAAhSgQOoR+Ha/IRvfbcbQdq5ubpZZs0rP/MSrhoiICA8PT4yp4GBvh3508nk/fPhgYmIqRVyhoWHu7u4YVU/qWScvjDR+ajYkJMTS0lKMXKeYKt5inAkMTf7+/Xv8Ui3GDddYhpkUoAAFKEABClCAAhSgQCoR0PEbsqk3RkoldlwNClCAAhSgAAUoQAEKUCD9CeiIkVKgr1368+UWUYACFKAABShAAQpQgALpRoAxUrrZldwQClCAAhSgAAUoQAEKUCAJBBgjJQEiq6AABShAAQpQgAIUoAAF0o0AY6R0syu5IRSgAAUoQAEKUIACFKBAEggwRkoCRFZBAQpQgAIUoAAFKEABCqQbAcZI6WZXckMoQAEKUIACFKAABShAgSQQYIyUBIisggIUoAAFKEABClCAAhRINwKMkdLNruSGUIACFKAABShAAQpQgAJJIMAYKQkQWQUFKEABClCAAhSgAAUokG4EGCOlm13JDaEABShAAQpQgAIUoAAFkkCAMVISILIKClCAAhSgAAUoQAEKUCDdCDBGSje7khtCAQpQgAIUoAAFKEABCiSBAGOkJEBkFRSgAAUoQAEKUIACFKBAuhFgjJRudiU3hAIUoAAFKEABClCAAhRIAgHGSEmAyCooQAEKUIACFKAABShAgXQjwBgp3exKbggFKEABClCAAhSgAAUokAQCjJGSAJFVUIACFKAABShAAQpQgALpRoAxUrrZldwQClCAAhSgAAUoQAEKUCAJBBgjJQEiq6AABShAAQpQgAIUoAAF0o0AY6R0syu5IRSgAAUoQAEKUIACFKBAEggwRkoCRFZBAQpQgAIUoAAFKEABCqQbAcZI6WZXckMoQAEKUIACFKAABShAgSQQYIyUBIisggIUoAAFKEABClCAAhRINwKMkdLNruSGUIACFKAABShAAQpQgAJJIGAYlzreBQfHpRjLUIACFKAABShAAQpQgAIUSOsCcYqRrC0t0/p2cv0pQAEKUIACFKAABShAAQpIAq+8X0tpRYJ97RQgfEsBClCAAhSgAAUoQAEKfNcCjJG+693PjacABShAAQpQgAIUoAAFFAKMkRQgfEsBClCAAhSgAAUoQAEKfNcCjJG+693PjacABShAAQpQgAIUoAAFFAKMkRQgfEsBClCAAhSgAAUoQAEKfNcCjJG+693PjacABShAAQpQgAIUoAAFFAKMkRQgfEsBClCAAhSgAAUoQAEKfNcCjJG+693PjacABShAAQpQgAIUoAAFFAKMkRQgfEsBClCAAhSgAAUoQAEKfNcCjJG+693PjacABShAAQpQgAIUoAAFFAKMkRQgfEsBClCAAhSgAAUoQAEKfNcCjJG+693PjacABShAAQpQgAIUoAAFFAKMkRQgfEsBClCAAhSgAAUoQAEKfNcCjJG+693PjacABShAAQpQgAIUoAAFFAKMkRQgfEsBClCAAhSgAAUoQAEKfNcCjJG+693PjacABShAAQpQgAIUoAAFFAKMkRQgfEsBClCAAhSgAAUoQAEKfNcCjJG+693PjacABShAAQpQgAIUoAAFFAKMkRQgfEsBClCAAhSgAAUoQAEKfNcCjJG+693PjacABShAAQpQgAIUoAAFFAKMkRQgfEsBClCAAhSgAAUoQAEKfNcCjJG+693PjacABShAAQpQgAIUoAAFFAKMkRQgfEsBClCAAhSgAAUoQAEKfNcCjJG+693PjacABShAAQpQgAIUoAAFFAKMkRQgfEsBClCAAhSgAAUoQAEKfNcCjJG+693PjacABShAAQpQgAIUoAAFFAKMkRQgfEsBClCAAhSgAAUoQAEKfNcCjJG+693PjacABShAAQpQgAIUoAAFFAKMkRQgX3m74+ixr5TgZApQgAIUoAAFKEABClAgLQswRkrLe4/rTgEKUIACFKAABShAAQoktQBjpKQWZX0UoAAFKEABClCAAhSgQFoWYIyUlvce150CFKAABShAAQpQgAIUSGoBxkhJLcr6KEABClCAAhSgAAUoQIG0LMAYKS3vPa47BShAAQpQgAIUoAAFKJDUAoyRklqU9VGAAhSgAAUoQAEKUIACaVmAMVJa3ntcdwpQgAIUoAAFKEABClAgqQUYIyW1KOujAAUoQAEKUIACFKAABdKyAGOktLz3uO4UoAAFKEABClCAAhSgQFILGCZ1hUlcX5OVtzzeh6lXuqVL8eJ2mdXzNeZ8/vzDHa/3pkYGhW3NNBb4xpn9h4yKiIwUC81uY12oQP62LZtmzJjxG69GAhb3+fPnJ8+eGxub5HXKlYDZOQsFKEABClCAAhSgAAVSv0Bqb0eyzGDoaG6Kfw99P+Kfkb6+eGukrxd3XI/A0DILr3fe9CDusyRrSf+Ad0FBISbGxuZZsri99Dhw+Hj/oaN9fHyTdaFJUrmPr++EybNnzl2UJLWxEgpQgAIUoAAFKEABCqRCgdTejrSxWwmhpjfyJBILWxSokc9S5Lj5fRx32OX0i/fmJga9y9mOrOO0/tqrrXd8C9lkWti6kMvbjwN3PTYy0B9ZM9essy8xy53XIQ2X3yxrn3laswKihpR97dOjc9nSJcPCwydOnePi9nLm/KXzZ07CKn38+HHNhq23794PCwvP5ejQr1fX3Lkcxao+efp8/ZYdXq9e22a3btKgXrGihabOWoBJMyePMzY2Xr95++27D5o2qlevdo3d+w5duHy1bq3qN+/ce/bc1dTUpFundh6eXucuOkdERNaoWrFPjy56enrR0dG79x08eebCu6BgO9vsv/TtmS+v090Hj9Zt2FqxfOnIyOiLl698DA2rVb1y7+6dsfSVazdicYHvgn4dPSFvntyDfu4tVoyvFKAABShAAQpQgAIUSDcCqT1G0gb9PjSy+IJrH8MiC2TL+Mzv45ijbtXzZG1a1GbQQZfjLoHNi1pvvOGNxIxGeTzfhR55FiDqQY5BfBqgtC09CfNNTUw6tG2JUAeRDzrgGRka/jVtzouXnmIRz11ejBo7ecXi2ZZZLZ65uI2fPEvko8BF56sF8ufBXMiJRm/CH35we+GOt37+/kj7+L5B+t9N20X5T58ilq5YK9J4PXbyXI2qlQvkz7tp2+79h44hJ0sWM08v7yUrVi+YNSUkKBjziprFLEeOn6lZvSoCOZQROZiKEEuk+UoBClCAAhSgAAUoQIH0JJDa+9pps9560xsBUv8Kdk/HVLk0sByKHXj4xiaz8fLm+ZFuvuH+utu+CJ+G1srVpbzd3u7FkVkqh1nkrLoHfiqtrc6Uys9uYyUW/eatHwIhESD9MXLIisWzELpgEjrj4XXztl14tbW1XjBr0tZ/lw8d2FfMpeO1RLHCG1YvGTtqqCizYPbk7RtWZrXIgrePnj6PiooSARLar1b/Pd/BPscrb9+AwHeisLGx0aI5k7esW4YEch4/eYYWqoH9eiGNGrACs6dOECX5SgEKUIACFKAABShAgfQkkFbbkZ68/YjdcNrtXes1dz58ikL6ikcwXjuXs/vnqvcF9/dIr+1QxNTQAAmp7UhKIDP1/IWHfxIrk8HUFP3ZkEZYUrqUKq4rXbL4uQvOL166I+3u4YXX+nVq2dvlQCKzmVlwcAgSOv6yZrVAO5W1TTZRxsoyKxp/rCwt0Vnuc3S0n3+gyF+8fDUSiNDwKpaFBLrn5bC1RcLezhZhG5qqMK/+l1Y4AwMVLP8oQAEKUIACFKAABSiQ/gTSajvSh3BVXBQWFS0CpAb5stbJa4EcREH5rDKI/fTlej617zXXF6oQCH9ZLcw/RajiJcQnMRk/ZIoZ7E4EUaHh4ci0MM8sJiX+9dMnVYX4+xTzZ2OdDU1J1tliAyoxia8UoAAFKEABClCAAhT43gTSajtS3myqQKh+HotVnYrJ99l5l4C1t3xEzk87Ht38tZKJob5BzJMzAWGxw23Ly6d4Gg8ObdyyE6tRumQxNNTYWtsgjVHvgoJDsmQ2e/T4Kd6KhiPrbJY+Pm+v3biNR4kUqx0S/AHtRYrMr761to4Nh4YN6pcrp4NU3tNT1WCl8c9AXxVUh31p+NJYhpkUoAAFKEABClCAAhRI0wJpNUZqUcwG4zSsvunz8l141VxZnvuFlshhhqePum17hP1xqFeJsUfdMJDd0vMew+vkLu2gegLHIzCs5eo7JXNkmthE9cxSiv8tWb4G6xDyQdVpEH89unbAa9EiBTNkMA0NDRsw9DcERXhACJn1a1ePea25YcvOq9dv9xs0IqeDPTrOYWw65ONvyqx5GNdOGulBZH71FWEVRsZ78PDJ6PFTypYqYWho6Pby5fjRw3XMWLCAig6r99u4SfiJpJ/79NBRmJMoQAEKUIACFKAABSiQFgXSWF87/S9jqRWyNdvRpVhGU8NTroGTTrtvuffGUF9v0Tl3BEKNC1g2KWqzpGVB7I8Rh13cA0JtzU1+r6kaPnvfY7+nMQ8ypYZdhegI/8wyZSxbusTS+dPtc6ge/kGoM2HMcAzVgJHoRIDUu3uHggVVkQmGTGhYryYSeJro3oPHUdHRJibGyEQOSvoHBJYsXgRpMdzcFydk/KAYfk5P1gdxcP8++fM5RUVGoXnq8pXrAQHvDPEEl3xmVYWqg0TIZ8tmWbO6qhUL8Zin12tV7fyjAAUoQAEKUIACFKBA+hLQCwpWDXWg7Q+jUXt4vSpVrKi2AimbHxX9+XVQ2KfIz7ZZTDIaf2UUgdAI1SNMGYy+Ukz3Fu04eqxdo4a6yyTJVIwvFxoWZmtjrRgdAb9o9O59EKIj8agSlhUUFPwpIiKbVezPRiVg6R8+fvTz8zczM8MI4yLE0l0JftMJBRLQu093tZxKAQpQgAIUoAAFKECBbyZw58FDRwd7/PSO+hI1ZKkXSrU5GKHBwSJ2hIavrmQio6Ov1p+0BRCuaKxQX19fMSlLlsSO4oBwK5NjRo2L05jJ6EgjCzMpQAEKUIACFKAABdKHQBrra5c+0LkVFKAABShAAQpQgAIUoECqFWCMlGp3DVeMAhSgAAUoQAEKUIACFEgBAcZIKYDORVKAAhSgAAUoQAEKUIACqVaAMVKq3TVcMQpQgAIUoAAFKEABClAgBQQYI6UAOhdJAQpQgAIUoAAFKEABCqRaAcZIqXbXcMUoQAEKUIACFKAABShAgRQQYIyUAuhcJAUoQAEKUIACFKAABSiQagUYI6XaXcMVowAFKEABClCAAhSgAAVSQIAxUvzQ2zVqGL8ZWJoCFKAABShAAQpQgAIUSFMCjJHS1O7iylKAAhSgAAUoQAEKUIACySzAGCmZgVk9BShAAQpQgAIUoAAFKJCmBBgjpandxZWlAAUoQAEKUIACFKAABZJZgDFSMgOzegpQgAIUoAAFKEABClAgTQkwRkpTu4srSwEKUIACFKAABShAAQokswBjpGQGZvUUoAAFKEABClCAAhSgQJoSYIyUpnYXV5YCFKAABShAAQpQgAIUSGYBxkjJDMzqKUABClCAAhSgAAUoQIE0JcAYKU3tLq4sBShAAQpQgAIUoAAFKJDMAoyRkhmY1VOAAhSgAAUoQAEKUIACaUrA8Nusra2d07dZUHIvxcf7RXIvgvVTgAIUoAAFKEABClCAAikowHakFMTnoilAAQpQgAIUoAAFKECBVCegFxQcrGOlIiIjPbxelSpWVEcZ3ZN2HD2muwCnUoACFKAABShAAQpQgAIUSIBAu0YNEzCXmOXOg4eODvZGhho61mnISvBiNM6YmPXWWCEzKUABClCAAhSgAAUoQAEKJJ8A+9olny1rpgAFKEABClCAAhSgAAXSngBjpLS3z7jGFKAABShAAQpQgAIUoEDyCTBGSj5b1kwBClCAAhSgAAUoQAEKpD0Bxkhpb59xjSlAAQpQgAIUoAAFKECB5BNgjJR8tqyZAhSgAAUoQAEKUIACFEh7AoyR0t4+4xpTgAIUoAAFKEABClCAAsknwBgp+WxZMwUoQAEKUIACFKAABSiQ9gQYI6W9fcY1pgAFKEABClCAAhSgAAWST4AxUvLZsmYKUIACFKAABShAAQpQIO0JMEZKe/uMa0wBClCAAhSgAAUoQAEKJJ8AY6Tks2XNFKAABShAAQpQgAIUoEDaE2CMlPb2GdeYAhSgAAUoQAEKUIACFEg+AcZIyWfLmilAAQpQgAIUoAAFKECBtCfAGCnt7TOuMQUoQAEKUIACFKAABSiQfAKMkZLPljVTgAIUoAAFKEABClCAAmlPgDFS2ttnXGMKUIACFKAABShAAQpQIPkEGCMlny1rpgAFKEABClCAAhSgAAXSngBjpLS3z7jGFKAABShAAQpQgAIUoEDyCTBGSj5b1kwBClCAAhSgAAUoQAEKpD0Bxkhpb59xjSlAAQpQgAIUoAAFKECB5BP4djFSVFRUZGRU8m1JXGq+cePmyn9Wx6Uky1CAAhSgAAVSRGDvvgOHDh9JkUVzoRSgAAUoIAQMvwGEl9er8X9OPHLkBJZVuXKFtq1bdenS8RssV30RV6/dmDxlRr++fdQnMYcCFKAABb5zgb79fnF1faFAyJ7desvm9YrMxL+NjIx8/PhJwYIFjI2NFbVt2bLNzMysaZPGiny+pQAFKECBbyaQ7DHSx48f69ZvgnPM/HkzrbNl8/T0NDZRng++2dZyQRSgAAUoQAFtAj/+2CQ4OBhT0eMgODhkxPChSCNc0VY+MfkvXrys37DZhXMn8ufPl5h6OC8FKEABCiSHQLL3tfP1ffP+fVD3rl06dWxfr16dXr16tGvbWmzJhw8fp06bWaNWvUqVa44eMzYgIBD5QcHBnTp3P3/+oihz6vSZLt16I9DC28lTpm/dtmPzlm1t23c+c/bc58+f9+zZ26FjV8z+6/BRb96+RZkLFy8jp2Dhkq3adLh1+46oROMrpqLm0mUrofCgwb+6u7uj2KdPn7D0Y8dOYMXq1G2Mf1iimD0iImLmrLlYFjLXrlvfq08/LAuTfv9j/PIV/4gynp5emP3u3ft4u2v3nuYt26Jy/ENtoaGhogymYv2R+XP/gZgRixb5WAHkYH1Q//Ydu0QmXylAAQpQ4JsJtGj+I05W+Jczp2Pu3LlEumWLZhq/zx89foIvfLziBNStp6p7grav9+CQkImTpoqT3bTps8LDww8fOTpu/F+YZeivo1DJk6dPtW2jjkVfu3ZjyNAROGvgXHb16nVRw9u3fr8MGopMnATXb9iEyn19fbWdWHEaFSc7nJKwehs2bpZWA8vFyQj1YM3x759Va8SkuJ9kpaqYoAAFKJAWBZI9RnJywonGcdyESYgH8DUtNxo+YtTiJcvLlC5Vr36df9dv7tC5G55ZioqMOnP2go+vryiJr/tTp84gdMHbBw8eDvv1t+Ejxhjo65uamm7bvnPAQMQ2nh06tMmcOUvEpwicn9q174J7fhP/GoeaRo78Xb44RRrxTI4c2YcOGfjrsEEnTp5ev0F1boiOjsbSe/Tqd+PmrU6d2hkYGWCJYrURLM1fsKRo0cJ9evfYf+AQug76+/tjlhu3bj95Ent6CwsLw+wBgQHId3FxK1umNNakc6f22MyLl1QBFZ7Iati4+f37D4cNHZg3b96/Jk67dNkZ+QgXGzRq/vy5G25blihRdMjQkX5+qsr5RwEKUIACKS6g8fs8OCgYX/gIJM6eu2Bna6vt6x0rP2zYyM1btnfs0B5nq0WLl124eMnQwDCrZVZMKl6sSJkypXFG07aNOhbdvGW7yKjIn/v1waO2M2bNETWgZ/vu3fsR1zVt0mj+gsVYw/DwT9pOrDjlubi6Nm7cYNLE8fnz5Rv121hxtxGB38BBw1Hhr8MGBwYGLlu+ysXFFW/jdZLVtkXMpwAFKJAmBJK9rx0Utm1dP2z4b4gH8G/UyGGDBvY3MTF56e6+b/9hvBWdGYoVLYJo5MaNWwUK5NcBV7xE0Q3rVtna2qLMLwOHFiiQ98ypYwYGBmKWufMXmptnWbliKXIKFSrYqHELDw9PR8ecGivE/UL8E5PwxNTuPfvGj4uNqSaM//2XAf0wyckpd9dufR4/elKxYvnTZ87WrVt79arlyK/foG6JkhXEvNpeR/82QkzCjbojR46fOXOufr26Dx8+QubmTesQPiGBmGrP3v1IHD12DK1tB/fvQqcLtLNt3bYLMRVOcqIGvlKAAhSgQAoKaPw+F+uDbuTt2rYxNDRA/IAc9a939Kk7dPjYwgWzO7RviwL37j84ceLUzBlTjYyN9u49+FOfXvja17FpOha9f++OChXKYV70wkDohROKvr4+6pz419if+/2EfMecObv37Kujcpwr165eKQpUq1oF6+nsfBVnRmfnK8g8fGgPgrfu3bpInTL+3bAx7idZHcvlJApQgAKpX+BbxEi5cuXauX3zufMXFi9ZNnvOAlz979m1zcPdEzrlypYRRqVKlUDixcuXumMkRwcHESChbef1a9+2bVpJARJmf/LkWVYLi9lz5iMt+ra9fOmuLUZCGURQ6LOHGvz8/T9+jO0Lh3xTUxO84i+7jQ1eoz9HozY0HI0bOzom+wc9/Pe1P9yfQ3vRlatXraysjE2MwsLDMYfzFdWJp3ChgmJuPb3YesRTwrt27xX5OAk9f+4i0nylAAUoQIGUFdD4fS5WqUjhwgiQkNb29Y4TDaZeuXIVwRISvr5v8Q+JOP7pWDTuNopKcuRQ3TdESfS2QKJUyZIiX0//66cqdPxDP71Hjx9bW2fDXJGREXg9efJ0tWqV1Vu34nuSFavBVwpQgAJpUeBbxEhwQRxSp3atmjWq/zlxyqpV6/DsDe54Id8sc+yzsGaZVAmRGRdHEQJZWVnKC4eFquo0MjISr2ikcnLKjbTGPzTgDPhlaIUKZR0c7KWe3BpLIhNnEbyiI6C2Aur56Ca+c9fexo3ro0/Fs2euouEIjUUoGR39WVFebDiUcBcQk/r17V2lSiVFGb6lAAUoQIEUEdD4fa5YE21f7+L0oaevL85NdevUypnTQTGvjrdxWbQ0e0jIB6TjfqrCqady1Vq4RVi3bi3/mA7en2POTn4BAWaZMknVSol4nWSluZigAAUokBYFvlGMJGgQAxQpXAhp/4BAcd/r3r37IngQndDs7e3QMw0FPoSE6NbMZmWFAufOXej/838dCZyccqFLwLChg7Ag3bNj6j+r1jZt0lD0nft72cqFi5bqmMXCwgIPL6HT+dAhg1BMcQbC8EeKeXHjEAHS9Kl/YYwKTMIwEjhBIoEegHi9d+9elSqVkYiIiA26EKfhLZrFnJxyI8E/ClCAAhRIJQLavs8Vq6ft6z179uwoWbVKpTatWylmwVtxylPPFzlxXLQ0e968eZC+fuPml1OMqlEIf9pOrEePnUCPjBPHDhQvXgyxXC6nQqJzQ7kypdeu24ihJjKbmcnXMF4nWbFovlKAAhRIowLJHiNh0AUMrlCoYAH0eXvu4rJo0d9lypQqVbIE2lLwNNGKFavtcuTIkCHDnJhHiSpWrJApY0b0NNt/8HC1alUfPnoshlJQx0UU1KN7Z4z0MG/+ovr16rx7H4RFNG3aEN2p0deuVcvmaJB58vRZ1SqVLWOeixU1mJmpboxduny5Qvny6B3x1s/Px8fntY/PwUNH1BehyBnQv++EP6dgpKBKFSusWbtemlqsSOEtW3eiJ3pQUNCWbdtFPjYBCU+vV9j8W4jb7t63j4mC0OEbsVbrtp0HD+qPJ2XRfw9vURJNbHjFeEfom25nl+PZ8+d2dnZSlzxRJ18pQAEKUODbC2j7Plesibav98KFC2LgoqVLV2bKmKlEieLuHh6REZHVq1d1sFfdGsMAdwhO8IUv7xZhYWH++MlT/LOL6USnfipRLFp6i/uM6LwwfcZc9OvDiRVxjpiETdB4YrW2Vt1tdHvx0sbGeu++A1I9bVq3xLw1atbr1rXzwYNH0BWicqWKmPrVk6xUAxMUoAAF0rqAqnEjWf/wMM/Zc+e7du9To1aDPj/9ggdM58yejgAGIco/K/7OmDEjBpFr37Gb31u/jevXZMmcGcHPmN+GOztfq16zPsYblR5YUl/JMaNHtW7dfNbs+fiJiSFDhwcEBDRv1nzokAELFi6tWbshZsdYpZ8+qfrISX+1alZHYNambRcMSYfhejC0XakylXv36e/oGNvzQXpASJpFSiB6QbuQqYkJBmkdMXwI8g0NVREmhirCuQej1bXr0DVf3ryivLm5+fhxY/5e9k/xkuWXr1xVsGD+z9HRmISz4NbN6xHdXb12HYXrN6gjyufJ47R82aIDB4+0aNW+fMXq2HCOaydk+EoBClAgZQW0fZ+LrtHSumn7esdPxP6zcmlkVETP3j+XKVelZ69+j588wVwYqqFr144zZs7DKQz3xaR6kGjfvi2eWcKvQcRx0dK8WKUF82ZjsFZ3D0/0SP9lgKqfBc6q2k6slSpWbPZj45/7Dy5ZutLzmJHrRF+7cuXKbt60tkL5slevXsNK4hwnOgp+9SQrrQkTFKAABdK6gJ5iPG7F9kRERnp4vSpVrKgiP75v8YPi7u4euMWleAYUjfgYaRTDktraZpefb9CpGj/klz27jTxT40JxBw5d3bJlU90ME3/oYI2hwzHcAu6ifcn77/94qhULxQkDWRgf/O3bt+gIoSM0+m9OWUo8y3To4G7RURBDvnp7e+NGoHhyVyqIn3UKCwuXN2RJk5DAmpQtX6VIkSKbNsT+7gTW5/VrHzR2oWufvCTTFKAABSiQsgK6v88V66b+9Y7zDu584Xf20FNAXhgnLIQf4pQkz8fpACcmcQaM16LlleCHB9HbwtP9mYhwtJ1YAwPfmZgY45alfF4pjeeHK1auJY2Vh3zdJ1lpRiYoQAEKpH6BOw8eOjrYG8U0eyjWNtn72onlocklb0w/acXicQ4QY8cp8hEniH5xinz1txjYRxrbR0xFGJY7Vy71kiJHHnThtCRGydNWWJ5//PhJ79ev8+fPi1+rWLbsH7RHYbxyUQChkcbR83DKUZx1cKpb+veKIkUKIf/o0ePoCP7nhLHSUrA+4sEkKYcJClCAAhRIDQIxX+eaowixerq/3nGyEwPHKbZFcd9QmiqPmr66aGkuJFatWmtuYW5nZ3vt2g0ESOi2IAIkTNJ2Ys36P/buAzyKoo/j+EsSSkISegkloYfee5cqvYOCCAiKAkqxK/ZGUVEBkSai0ntReu9I772EEAIECEkIhCTw/i6r53EphJOEy+V7T55zbnZmdvazPhn+N7OTLNbfymm5hP5eha9vMf3tvt9j/rBs0yaNzWdJeJA1FyOBAAIIpGiBZIqRUrSR0XlXN7ctW7a98+6H+qjFCdoH3Co2S8w1KkLTOPrNNz/oL/RphfrXI79s3apFYipSBgEEEEDAngXs5Ne7S1oXPQO8efM2LZDTWrshgwfagKYoSEvvJkz8WV/k6RHiBfNn6o/B29AOVRBAAIGUK5BMa+1SLpBVzy3XP1gdeqSPasfya8JHqkthBBBAAAG7FbCHX++Pqw+Pqx27vVl0DAEEUrnAk19r5zA34HEFNo+rHYeB5UIQQAABxxCwh1/vj6sPj6sdx7izXAUCCKQqgSTf1y5VaXKxCCCAAAIIIIAAAgggkNIFiJFS+h2k/wgggAACCCCAAAIIIPA4BYiRHqcmbSGAAAIIIIAAAggggEBKFyBGSul3kP4jgAACCCCAAAIIIIDA4xQgRnqcmrSFAAIIIIAAAggggAACKV0gyf8+0s7d++Yu/CM0LCylS9F/BBBAIDUIeLi7d2zbomql8o90scEhIZevXdNW0Y9UK+kKa0O2XNmyZfb0fKRTMGA9EheFEUAAgScrYNuAlcg+J3mMpABpQN9e3vnyJLJDFEMAAQQQeIICfv4BY8ZPedQYSQGSd548runTP8GeW576dkSEX0DAo8ZIDFiWhqQRQAABOxewbcBK5EUl+Vo7zSARICXyZlAMAQQQeOIC+o1tw8y/ZpDsJ0CSoTpjw6QWA9YT/9+PDiCAAAKJF7BtwEpk+0keIyWyHxRDAAEEEEAAAQQQQAABBOxBgBjJHu4CfUAAAQQQQAABBBBAAAF7ESBGspc7QT8QQAABBBBAAAEEEEDAHgSIkezhLtAHBBBAAAEEEEAAAQQQsBcBYiR7uRP0AwEEEEAAAQQQQAABBOxBgBjJHu4CfUAAAQQQQAABBBBAAAF7ESBGspc7QT8QQAABBMwCV2/cMKdJIIAAAgggkMwCqSVGOn36TL8BA48cPZYUvlu3blPjN24EJ0XjtIkAAgikQoEjJ09t2PmXQ174wkVL/vhzmXFpt26Fh4SGxnmZ/v4XJ0ycfPny5TiPWmaOHjNuxMhvLXMemlazGrZ279n70JIUQAABBFKngF3ESLPnzGvQsNm8+QsScw+Cg4OPHjuemJKWZUZ+M2rP7n3Fiha1zExMOjGnK1261Pz5izWYJaZByiCAAAIIPFSgXtUqKmNXYVK37i9oqLL82b//4EMvJHaBGTNmzZ+/yMh/ttvz9eo3jl1GORcvBnz40eeBgVfiPGrO1Hd/X3w5wte3mDknMYlcuXJdC7r2wYef2vCXdhPTPmUQQACBlC7gYg8X8NNPk/Rb/qcJkzu0b/fQ/qxYufrDjz47fnT/Q0uaC+zbt3/hwqXjxo5ycXE2ZyYykZjTeXp6vvvO618N+6b7c13z5PFKZMsUQwABBJJI4PNho/YfOhJn4107tWvXpnmch55I5pFTp+M7b46sWQ+fMs0mGfFSfMWSLf/IkSP58+d7rtuz5jPmzp3TnLYt0f+VvuHht2yra9T6avhIL69cLZo//aiNDHytf/uOXVevXtu0adxB2qM2SHkEEEDABgG7HbCe/DzSkSNHTV+Dff7RwQOHjx8/YeBq7cGzXZ/fuHGz8XHN2nX6Ai88PPz70WPH/vjTzZshOqqcyMhIFdi2fUeXZ57zLVGuXYcu5gUMljdp3foN+ti0aRO979m7TxUrVKqu8gNeHXz+/HllJv509+7d++336c1btlP1Xr1fMs9otWxh+jfH1m3b9c4LAQQQeLICpUr4xteBw0cfeR4+vqZSYX6RIoU7d+pg/tFsjMYvjUc7d+56beDrGlk0vuzY8fcSwatXg7SeTZkam379bZqKxV44d9g0ApruyJ07d7RkrvHTLTVPNfTDT27fvm3wHjp0eNDgN6xaNsuHhoWtWrm2Z4/nXFxM33jq4yefflG3fqPqNep9+dWIiIgIZX72+Vc/T5k65ZdfW7ftqHa+Gjbi7t27yq9Ro3qmTJ7LV6w0t0YCAQQQSH4Bux2wnnyMtHjJHyVLFO/Zo7u+CVu0eKlxb6Kjotet3xT4zzpsjTRr1qzTr3U3V1d3dw+VqVixQvlyZdKkSXP48JF27Z85cfLUgP4v3wwO6d2nnwIqqxt88tRpNe7m5qb8Cxf8ldb3Z4MHDVi1eu2vv01XZuJP9/u0GW++9X769Ole7tt769YdTzV4+vIV00IIY/ro7NlzSvNCAAEEnqxAyeLxrivu1K7lk+2b1dlLFikc38/V69dzZs1qJ5NIRrf1VZ3GI+PHCGNCQ0I1WrVu2ykqOqrvS7137do9bMTXRuEPPvpEy7DbtmmlSZ5R341WsYgIU3Bi+Tp69Niu3XuUM236TC2Z6/Zsl759ezulcYqOvmcUe/3Nd+9GRlq1bG4h4GKA0t7e3kbOoEFvTJ8x+5kunbt06fDD6HGbNm9RvqKs997/ePz4yU0aN6pWrcr3P4xTJ5WvAbRMmVLHT5wy6vKOAAIIPBEBux2wnvBaO00ETfnlt7feHOzs7Px8964/jZ88ZPDABFbEvdjnhevXb2gDhjffGGzcyClTf1Niw7qVWvDW75WXSpauOO6niQ0bPGV5m48dPVGsaBEjp03rlvox0noidv6CRR8MfdeysGU69uk0hlWtWmnBvFkq1qJ5s7r1m8yZM1/hmaurq0Kv02fOWFYnjQACCDwRAV/folpTN32O9UOeytShJ9KlRz2p8SSSXQVIugQt29aPcS1D339bv/yN9OKFc6pWray0RigFJ5oUcnJyUslPPn6/70t9lO+dP//zPV80Csf5furU6QI+3t26PpM2bVrLArFbzpAhg7mAvvVTOl/evHrXl3R//Lni++9GduncUR8PHDy0atWaRg0bKP1U/TrTp01VUHTt2nX1au++AzVr1lB+4UIFp/46Xesj1Ft95IUAAggkv4DdDlhPOEbaunW7Fs49Vb+e5oj0q3z4iFFaOFends3E36EjR45VrFheAZKqKNBq2LD+mjXrrapfDAgoW7aUOdPP74JW36lw0LVr4eF/r2cwH00gERISot7WrvV39woXLqTCJ06cNKp4eXkFBFxKoDqHEEAAgWQT0ENHWlZn+VRSudIl7epJJEsKRUR6+kgTSubMkkWL5MiSxfzRThIKNl57rb/Rmbx58ph7lT59eiPt5ZVbCUUdmr1Rony5ckZ+Gqc0RiK+92ZPN53yy+8NGzcb0P8VfZFnbtCcMLds2cK169f1MXPmTHrX0Kb37dt3GCsaLl++qh+jsJZRKEBSOlu2rHrXlJeRnz17diU0Drq7ZzRyeEcAAQSSX8A+B6wn/NXRnLnzdSdq1m7gXcC3cdNWSs+bZ8pJ/CssLDSLxTiaOVMmhTEanyxbUDBzPmbwUOaChYurVq87b/5CPTtkXjVuWTiB9J2Ytd1awG2UUZSluSPzqnHNbhXw8UmgOocQQACB5BSwWlZn9TE5e5LwuYwpI8sASeXtMEBSr7zyeNWoXs348fbOn8B1hYWZdmKI/icaSaCkcahu3dqLFszOn9/7tYFvtGzT4ebNmw+togJeuU0hmb7v07vx9FEaJyfNROnVsEF9PaeUcCOXAgM1ohEgJazEUQQQSAYBqxHK6mMydCD2KZ7kPJK21Z47b2H/fi/pV7nRs6V/LPt5ym+ffvLh/fv3lXMrLMzIt3pXFGTO8S1WbMnSZVFR0cYKvc1bturpJqtlA8WKFl62fJVRZeKkKS2aN5086Sd9/HHchO9/GKtEIk+XLavpG7hdu/b0fcnUmJ5EunTpcoECprhIi9TVq0KFCpgO8EIAAQTsQMByAYPdrrJTgHTl+vVSRYoksMGdVfhkB7QP74Kx0OCvXbuNVW3GDkMJV9PDQtOqVdGXd23addZYlj2baZIn4ZfxKGzgJdMSBm0gofdaNasnZodYo1nNOJUsWTzhU3AUAQQQSAYBOxywnmSMtHLVGqHrMSSff6ZfsmXLphhp1eo1bdu01pdbi5f+Wbt2LW37Y+ysYNwhHx/Tw6kqo8Jly5Ru27aVYqSPP/28S6cO2q3hxInTn336gdW9LFiwgAIYhTFab6BQ6mpQUGBgoL4/U0hmlNS5Enm6Pn16Tpr0i/YI0qYRxh9Eat68qRoJDDT9mT+fBL9WNM7FOwIIIJBsAsYCBu0aZLer7JKN4rGc6FLApS1bt5qbKlWypDltlcibN0+zZo31NyEUh+iBVa2jMxfQ0jjtiaqfEsV9zZnax9Xdw93H2zs0zPQnZdOn+3vxnrlAnAkjRvLzv6ijJUr46ommsWMnZHTLWLZsmfN+flGRUXXq1IqzopGpxeqtWpk2ZeWFAAIIPHEBexuwnmSMNGPmbM35mAMk3ZtixYoWK1Z49ux5+hrsnbeGvPv+x3XqNdZ6tlYtW+zZs8+4edqPoXbtGt2f76OoZse2DU83bfL2W4P1IJNCFxV4oVd3/ZEio6T5vV7dOhqoNAI9/XSTwYNeHfL62+Ur1lCz+tJOC+RUTKvmEnm6N4YMvHrlivYIMhr/euSXFcqXV9rYTK969epGPu8IIICAnQgMfefvHW7spD9W3dCuDJpK0hZ29rY9g1U/jY/am04/5kNLF8+1WrZgPqT8774dWdx30vYdO/X1Wb9XXvxx3ESNNSrQuXPHfv0H9X25/8b1q53+eU5Je9Dp20BjlUSf3j0aNKi/e/dec2vxJfTFX+MmDebNWzCg38vp0qWbOGFs/1cH9Xyhr8priHx9yGsJxEh79+3T6RrHbOoQX/vkI4AAAskpYFcDVhr9aaAELj4yKkpfUJUv/e+GBwkUjvPQK4PfHTfqqzgPPTRT67lDQ0Nz5coZexAyJoXMLWgTIW0UnjNHDmODb3O+OaE/oHT7zp3FC+cqR39W/OrVq1qWYDzDai6T+NNp84YbN27kzZvXJeZPUmjDiWo16jZ7usmXX3xqbo0EAgggkEIFbPi9feTUqZJFith8vbH3bLC5KXNFG7pkw4WbT5dw4u133tcOchfOn9CTQiqpYUgDkNXQpkxt/JM7dy6jTMINmo/u3LlLO4/PmT3N2O5IS8eDgq5pad9D/6C5/qCT6m7ZvNaI3MwNkkAAAQRSkMB//L2979Bh73x508b8e97qqp/kPJJVV2J/1IOk8T1LahULaS/UhPdLeO21fh06dtu//2C5cmU0HuSOec7V6oyJP5220TN20jNaWLt2vR5M6tO7l1WDfEQAAQQQSIxAiphESsyFWJaZNGlKpsyZ8uTJrVBEAVKP57uag584wxJl5s+fz7KFxKS153iNGlV/nvKLESMp9MqR4+EPMl26FDh7zvyxY76NsyeJOS9lEEAAAccWsOsY6THS16pZ8+KFU1Zf2j2u9ps2bazGGWkelyftIIAAAg4g4JLWZdbsuZs3b9OyN62101//S6KLmjdnhrHzUOLb107iDFuJ56IkAgikQoHUEiPp1iZdDKPv7ZKu8VT4PyWXjAACCDiAQM8e3fWjFXRJPUDY9vVfUvfKAe4gl4AAAqlZ4An/faTUTM+1I4AAAgg4vAChiMPfYi4QAQQcUoAYySFvKxeFAAIIIIAAAggggAACNgoQI9kIRzUEEEAAAQQQQAABBBBwSAFiJIe8rVwUAggggAACCCCAAAII2ChAjGQjHNUQQAABBBBAAAEEEEDAIQWSPEbycHf38w9wSDsuCgEEEHA8Af3G1u/tR70u7UxwOyLiUWslXXl1xobNEhiwku6O0DICCCDw2AVsG7AS2Y0k3/u7Y9sWY8ZPCQ0LS2SHKIYAAggg8AQFFCfo9/ajdiBXtmx+AQHa5/pRKyZReQVI6tKjNs6A9ahilEcAAQSeoIBtA1YiO5wmJDQ0gaKRUVF+/hfLly6VQBkOIYAAAggggAACCCCAAAIpS2DfocPe+fKmdYlj0ijJ19qlLCl6iwACCCCAAAIIIIAAAqlcgBgplf8PwOUjgAACCCCAAAIIIIDAAwLESA9w8AEBBBBAAAEEEEAAAQRSuQAxUir/H4DLRwABBBBAAAEEEEAAgQcEiJEe4OADAggggAACCCCAAAIIpHIBYqRU/j8Al48AAggggAACCCCAAAIPCBAjPcDBBwQQQAABBBBAAAEEEEjlAsRIqfx/AC4fAQQQQAABBBBAAAEEHhAgRnqAgw8IIIAAAggggAACCCCQygWIkVL5/wBcPgIIIIAAAggggAACCDwgQIz0AAcfEEAAAQQQQAABBBBAIJULECOl8v8BuHwEEEAAAQQQQAABBBB4QIAY6QEOPiCAAAIIIIAAAggggEAqFyBGSuX/A3D5CCCAAAIIIIAAAggg8IAAMdIDHHxAAAEEEEAAAQQQQACBVC5AjJTK/wfg8hFAAAEEEEAAAQQQQOABAWKkBzj4gAACCCCAAAIIIIAAAqlcgBgplf8PwOUjgAACCCCAAAIIIIDAAwLESA9w8AEBBBBAAAEEEEAAAQRSuQAxUir/H4DLRwABBBBAAAEEEEAAgQcEiJEe4OADAggggAACSS2wcNGSP/5c9tjPMvnnX3bu3PXYm6VBBBBAIBUKuCTDNXfr/sKlgEuWJxr17Yhy5cpY5limg4ODLwVeLlHc1zLzkdL+/hfv37+fP3++R6plFD5+/ETOnDmzZMlsQ12qIIAAAgikXIEXX+p3+vRZq/7nypVjxvRfrTL/48cZM2a5u7u3aN4sgXZsGIzeH/rJu+++UbVqZctmo6Kijh495utbLF26dJb5iUn/l8E0Me1TBgEEELBbgeSIkY4cOaJw5bluz5oVcufOaU7HTqxYufrDjz47fnR/7EOJzPn6m1Eq+d2orxNZ3rJY67adPv3kgy6dO1pmkkYAAQQQcHiBli2bh4aG6jInTJwcGhr2+pCBSiuYeSIX/rgGo7NnzzVu2mrThlVFixZ51Av5L4Ppo56L8ggggIBdCSRHjKQLLlKkcOdOHSyv/MjRY5999uXgQa/9Pm3Gps1bSpYs+dqAV6pVq/L96LHz5i24eTPk2a7POzm7/PLz+LRp027avHXMmB/37T9YsmTxD4a+W7FCeaP6Bx+8N3Hi5KDr13/7ZbLReEho6LBhI5ctX6WPly8/X7p0qfffezs0LOzbb79fs3bd3YjI1q1baNi7ejXozbfebdu2tRELffTxZ7dv3+nZs/uECZN06lGjRi9cuLhLl05t27Sy7DNpBBBAAAEHFmjTuqVxdRpEwsNvmb/a++zzrxRg3Lt3b/6CRf379c2UKdM33/6gr//Cw283btTgzTcG+fj4xDeoqcF58xfMnbvg2PET9erWfnVAv8KFC1ka6ujUX6cdP35Smc937zpk8Gtnz52PPRjFHsjSp0+vLimcm7dgUcSdOx06tLNs1kj/uWz51Km/Kz1w8JuZPD0++uj94r6+sYfUH8dN+GvXru9Hfe3p6Xnw4KEvvxrRt++LK1eushpMY7dPDgIIIOCoAsn0PFJ4eLjCEuPn9u3b0gwNCV23fpO+J4uKjur7Uu9du3YPG2Ga9nFzdXV391CioiKhcmXSpEmzf//BTp276Zu8Tz4eGh0d/cYb75qrN2jYbP2GTXly51aO+ZUlSxaltTpCLRQsWEDpQYPemD5j9jNdOnfp0uGH0eMUkuXLl1ej1MBBbwYEXFq7bv34CT+3atVC58qaNavKFy5SWHWzZcumNC8EEEAAgVQucOjQ4UGD3xry+jvOTk4ZMmS4cMHfyyvXwNf6Dx40YNXqtb/+Nl0+8Q1qGsL6DxhSvLjvhx+85+XlpdHQCvPUqTOVKlbQANf12c6jx/y0ecvWOAej2AOZ2pk5a87Hn3yZNXPmvi/22bV7j1XL+uji7JIlq2lMLFO6pMY1dT7OIbVF86bLlq0aPWacBtm33/3gTkSExt/Yg2ns9slBAAEEHFZAEy8J/Fy7cWPvwUN6tue/vMpXrJbLq4D5R7+F1dr27TuVs2PHX0bLX3w5XB8VPunjsOFfFyte1nzGwa+/pY9aUa2cvfv2q9j5835G9ekzZkVGmvKtXo2athg46HUj88yZs6qigcT42POFF996+z2l9dSTmn2hd99q1evqFMbRGzduWBY2MnlHAAEEEEhVAl2f69W2fWfzJXfu0k3DyqVLl8w55sT7Qz/SGKeP8Q1q2p5Bw8q5c+fMVZRQgxp9LHOU1qSQxqN33/tAaavB6Ew8A5nKW/ZTJ/ruhzFWzep7QOWfOHHSyI9zSNWh8RMmqZjOblnYcjC1apaPCCCAgAMIKMxRsBNnKJRMa+2eql/ntdf6G4Fm3jx5zBGnlgoYaS8v01yQRgjzIXPi2LETWTJnHvm16REjYw7q3LnzRsWSJUq4uDibS8aZ8PO7oPzt23doTbYSly9f1Y8SWiwx6tvhL/R+JVMmz6HvvaMcXggggAACCMQp4J0vX26LNQsaWdat3+Ds7Bx07ZpW3JmrxB7UqlWtrFGmWo3677/31rPPdM6e3XqFgga+gwcPb9+xQ4sX0qVPqzkcc2vmRJwDmaakzp3369ChrblYYhJxDqne3vl79Xx+5sy5P0/5bej7b9vw5FJiTk0ZBBBAIAUJJFOM5JXHq0b1ara53Ll9RxX1VJLxrpXfBQsW0Bq5RLYWETPepHFyMlpo2KC+eb87Dw9PNaIHkLTeL5GtUQwBBBBAIJULLFi4+JV+A6tWraRl21oNkbCGIquVyxeP/XHCF1+OGDP2p3lzputBWcsqrw18fe68hc2aNda6uBMnTmvdneVRIx3nQHbrlmnZnqenaXV64l9xDqmq7uTklCmzaUy8e/du4lujJAIIIOCoAskUIz0qn+IWc5WCBX327N03aOAAfWNnznxojBQVFW0UzpUrlxK1albv0P6B51k1urw2cIgWYW/esu3jTz7/ccz35sY1dWhOk0AAAQQQQMBSYOKkKRo7Jk/6SZna7eD7H8ZaHo2d1o4OI4Z/oVGsRat2M2fP/dwiRtIEkQKkr774uFevHqrY5Znn9I2euQXzYBTfQKYZqu07dvZ9qY+5SnwJc1NxDqmqNWv23G3bdnbs0HbEyFHNmjU1//kN82AaX8vkI4AAAg4pkEwxkv4+0patW82CpUqWNKdjJ3x8vJW5avUaLTwoW6Z0ixZN//hzhdbatWvbWl90aWugWjVrxK5lmVPCtG/Plr379ulruRIlfAv4eI8dOyGjW8ayZcuc9/OLioyqU6fWd9+PvnTp8rDln2/evOWV/oPat2vTqGEDDw8PDTlr1qwrVbKE0gUK+Fg2SxoBBBBAAAGt8b4aFBQYGHgpMHDpH8sSBtEeCWG3QgsXKqS14lqV55ohg8pnzpzp6LHj+skTs878gv9F7Wm0R18H7j+YN19eFbAajOIbyNq2aTn11+l6yrdG9arLlq+Msyf58poa1AZ3mozKkydPnEOq+qYdKd5+a/ArL7904ODB1994Z/HCubpMy8G0TJnScbZPJgIIIOCQAv9+X5Wkl6ct7Dp07Gb+OXXqtKKd+M7YsMFTtWvX6P58n2e79ggLC2vdqvXA11757vux9Z5qWqde44mTfr57NyKB6mq2+3NdPTzcmzVvN2zEt/qreRMnjI2Kjuz5Qt+KlWv27PXS0WPHNGhp+6DvRo3IkSN7mzat6tWt9eZb72lmSVNVHwx9Z+OmLfprEsuWr4ivh+QjgAACCKRagcGDXtXWduUr1nih98ve3n//sfL4RiW/CxcGvDpEhWvVaVi1WmVjzqdz5456Mrbvy/31ZKwGnR/HTSxTrspPEyb5+hbV1g2CtRqM4hzIVOyjD9/XjJZW8bVs3VEBm3bbi31T9HDRc889M2z4txrXTpw8GeeQ+uFHn6qu+qaN70YO/2rPnn3Tps9QU5aDaeyWyUEAAQQcWCCNdnJI4PIio6L8/C+Wt1gYkEDhx3tIT6O6ubmZ27xz507g5cu5cuZ0dXU1ZyaQ0LoCVTEX1segoGuRkZF58nglUMs4pKUF2mHIeH7poYUpgAACCCCQ2gS0R/bVq1e1BE77dCfm2i9fuaLxyNPj32eH1ILqGpGVxrs7dyKyxmzSbdma1WAU30Bm7CduOWJaNmKkNSBqUDMvWU/8kGo1mMZumRwEEEAg5QrsO3TYO1/etC5xLKyz3xgp5XLTcwQQQAABBBBAAAEEELBzgQRipHgXvNn5JdE9BBBAAAEEEEAAAQQQQCApBIiRkkKVNhFAAAEEEEAAAQQQQCClChAjpdQ7R78RQAABBBBAAAEEEEAgKQSIkZJClTYRQAABBBBAAAEEEEAgpQoQI6XUO0e/EUAAAQQQQAABBBBAICkEiJGSQpU2EUAAAQQQQAABBBBAIKUKECOl1DtHvxFAAAEEEEAAAQQQQCApBIiRkkKVNhFAAAEEEEAAAQQQQCClCsTxZ2W8N1jmAABAAElEQVQf76Xs3L1v7sI/QsPCHm+ztIYAAgggkBQCHu7uHdu2qFqpfFI0budt3omIuHX79r179+y8n3QPAQQQQEACTk5OGV1dM6RPnxQaSR4jKUAa0LeXd748SdF72kQAAQQQeLwCfv4BY8ZPSZ0xkgKkTB4eLs7Oj5eU1hBAAAEEkkIgKjr6ZmhoEsVISb7WTjNIBEhJ8b8FbSKAAAJJIaDf2Kl25l8zSARISfE/FW0igAACSSGg39hJN/Of5DFSUojQJgIIIIAAAggggAACCCCQRALESEkES7MIIIAAAggggAACCCCQIgWIkVLkbaPTCCCAAAIIIIAAAgggkEQCxEhJBEuzCCCAAAIIIIAAAgggkCIFiJFS5G2j0wgggAACCCCAAAIIIJBEAsRISQRLswgggAACCCCAAAIIIJAiBYiRUuRto9MIIIAAAggggAACCCCQRALESEkES7MIIIAAAgjYInDi1JkFS5ZFR0fbUjmeOseOn1SbSfeHROI5LdkIIIBAShVweeId/33W/P0Hj1h2o12rp2tWq2yZY5nWHze8du1GAZ/8lpmJT9tc/fKVIJ0lV87siT8XJRFAAAEEHEbgm9ETAi9fsbqcIoUL9O31nFXmf/y4YdO2g0ePt2vVLIF2HnVIWrF2o9+Fi1ZtKgw7c86vUAFvZ2fnBM4V+5DNFWM3RQ4CCCBgnwJPfh5JAVL69Omeblzf/ONbtHACWHPmL/115rwECiR8yLbq9+/f//qHn7Zs25lw4xxFAAEEEHBUgcoVyzRpULdh/Vpht25lzZJZaf3UqVn1sV/vmfN+CX8PaMOQdPrs+YKxvlvcuXvft2MmRD36hJXNFR+7FQ0igAACSSTwhOeR7kREaLCpU7Naw3q1La9w8Z+roqOjihUptOiPlVeDrtWvW7NN8yYXLgYs/nPloSPHnZ2cPhk2ql6tavXr1LwZEjpz3qJjx09lyJC+W+f2pUv6Hjh0dOXaDZ3btVr4x4pcObN1ad/GaDkx1Uv4Fhn5w0+lihdr1ayxBqEpv826cTOkVvUqG7ZsUz+37Nil7/aef7ZDQR9vy96SRgABBBBweIF6tWroGv0DLmlgqlOjau2Y6Cj4ZojGox7Pdly/eVvApcvvvfGqxo5Vazes2bD11q1bmTJ51q9do3GDusbA1KNrp+lzFipcKVGscJ8eXdOmTRsVFfXbzHk66uLi4lu00Avdn4mMilKb1atUNDzDw8PnLvpz7/5D0ffu5cyRvV3LpuG3b6/duNVqSIo9FKq6Jo6mz13o7x+gbkRGRhYs8O/6i4i7d3+dNkcjmooN+3asd748vZ7rovSmrTvWbdp25crVUiV9X36h+7Ydu1at3zzwld6ZM3meOnNu2uwFjZ+qe/jIsdgVjd7yjgACCDiMwBOeR/K/eEmU2bNl1ZCgn9CwW4bsrr379Wt6/JRpxYsWzpE92/JV626Fh2ssuX/vvgoULVKoeLHCefN43QgO/nTYqIsBge1bN3Nycpq/ZJmOHjt5SiPQiO9+DLp2PXeunEaDek9Mda038MqVa8Xq9RERd1esWf/X3v3NGtdLk+Z/t2/fUQuVKpTRebNkymRukwQCCCCAQKoS8PPz1/X6+OQzrlrfvmkB3rdjJx4+eiJ/vjzKXLJs9YKlK/Ln9erYtsXNmyGHj51QpjEwffn1aE9Pj/JlSh44fMzIX7h0ueZkFEQp+MmQIYMGsosBpmGxgLcpnlG4NXrCLzt37a1SqVzjp+rokMKwe/fuWw1JcQ6FytQ4qKXpzZo8lS+vl1rzyf9vjKSQyTOTu941wmpcK1a4oAro20mFcKWKF23SsL7CtuMnTpUsXkxXt2HLdg3BYyf8ki5tWsVOsSuqLi8EEEDAwQSe8DzSOb8LAv1t5lyD1c3V9ZsvP9RDpZo7ypA+vb6Q06/vHbv2/jJttn7Ra/amUsVyGlc6t2vplTuXqkyaOl0jyjuD+2u13sKlK7JmyaLMs+dNbQ7o26t4sSJGs8Z7Iqs3a1x/+1+71aXd+w5qNqlkcV9VP3z0eFDQta6d2lk2SBoBBBBAILUJnLtgipHyxIxBSvjFfHy6Ub3mTRrqo7ZbWLZqbZMG9fRgrR7amTV/iU9+UzRlDEyaqylbukRw8M2/9uy/evWa8k+ePqfBTvGP5pRqVq+inHN+F/Xukz+v3pcuX33u/IXXXn6hhG/Rk6fP/rlyrcIwDW1WQ1LsoVDB1bhJvzk5O3/87pCMGd00Pirm8Y5pU83q5Z4xozq5ftP2p+rWfKpOTeXoW0X1XHGdlnVoNkk5itkyZ85Uvmyp9Ru3njp9TjkaWD3crSsqnxcCCCDgeAJPOkY6d0EDQ99e3QzZjG5uSlyJ2R2hQ+vmCpD0UcOJ3rNlM8U/xmiUM2cOpfW1lsKY1s0b65FTLavT8oPnurRXvr7Uq1ReEz4PBEjK1ysx1bWYQXXVcqkSxZo3aWBUPOfnny/mC0LjI+8IIIAAAqlT4NSZ89myZjFvcqDRQd/uGQGSQFau2aCPrVs0Ufrylat6985vmlzSwKRgQwGS0jdDQvSuRvRetnTxpcvXfD9u8os9u2Xy9FDOuXN+GhYVnCitRQ2VypVRgKS0n78pdtICClMZiyEpzqFQCwI1wdWzW2cFSCp//oK/2vT0cFfa/Lrgb5qwyp/X1D291mzYpHXsFcuV1vZ3a9ZvrlKhnPFMVIumDfcdOHzqzFl9HakASSWtKsbU5g0BBBBwNIEnHCOdPndev4VLlTDN1ZhfFwIClDZ/46WhRb/cjfBJA4NpcHIyLREMvGwafrQ2QO/a5uGjdwZr0zkt19PiAeN7O+VbvR5aXeW1StvYuahCmVJGda0C17xW3VrVrFrjIwIIIIBAqhLQ/MylwMtVK5U3X7XfhQBjiZ2Ro5XeeqLVGKT8/E1jWb48eYyBqWDM8jnlBASaNsfL42VaDaHgKjr6viZwPvh85IdvD9LKcw2LejpIhzTuaPQpWdwUIOmlh4s0FCpKsRqS4hwKjYmgYkVMK+iMukbAY3w03i9cNAVdRjeU0PyVWn7vk+Ga12rXupke9zWK6QKVUOBnvkyrikYx3hFAAAEHE3iSMZKCGT2DpC+rrEw1EijH/ItbO/xoYbdRJjDwSrGihYy01nkroYUB2lNBv9ONTP8H4ysj0/z+0Ooa/36a/NudOxGKxJauWKOVD2nSpDEmssz9MbdGAgEEEEAgVQkYU0PmDeLu3o0MCQ2tXvXv/RU0paONiLy8TM/BKt7YHLMVas4c2Y6eOKkcI/JRws/fX+9as6B3DTFaDVGudIlho8bqwaSmjepfvxGsyRwdMp7XzRXzVK2iLC2WM4ZCqyEpzqHwfMwwmjnm6Vkt0tM6i8IFrLcaunTpioIuBT86l15qVgNf/xd7GEvZjcwz585r5bm+hTx+8vTeA4cqlS+rfKuKRkneEUAAAQcTeJJ7NmiCSJp3oyIPapOcmB9tm6McfZulLXS0yY/SGmauXb9hPL2qjxp+NFTol7X+HF7RmG/Irl8PNlU57zdj7kJFONrARx/zxaxGUMLq9dDqCxYvO3bi1Ksv99JKP8VvemZVLYSFhek96Op1DVH6BtGqTT4igAACCKQSASP28PH+e8MGY0TwyWd6dkgvxRuKOg4dPaGHiMZNnKo5pVw5cygK+ntg+mfB9tnz/srXw7QabrQiTgNT0DXTs0kKUcJiNi7ScgZFLLlzmVaV7ztwSMWGjxqrYkZsZjUkxTkU5suTO6buYT3Qq929lTYPo0obr5uhpqFNw67KKKEFHRpe0/wvjTZP0r55GpTVh+9+nKxNkrSvnfY6125+cVY0MnlHAAEEHEzgSc4jaWyQ5obN2/VjsOrLqkH9+gRcCjRPFl2NeTbJvO5Of4li09ad3/04SYnivkU1g7R24xb9qLqeQbobGalVAZpTMlZgx75VCVfXd3ir1m9SdFSogI/2jdBot3TZ6jIli+fLm0fj2eoNm9dt2tr92Y6W37HFPgU5CCCAAAKOKnDBeCjI6++lDcYedBojjOtVOKT9D/THJ4Z/96OGJy1vMyaLjIFJ2yQYxbQ3XYWyprXcGnS27dythOlBoLKltYRPLeiJIw1z6dOla9+6uXe+vKvXb163cWvXzu20RXj+mGDMakiqVrlC7KGwTKkS2l5vwi/TNJB1ad8qZuuIvwM5ow96r1ur6s+/nf1m9HhtAFu5Qtm6NavpzxV+MnyUDqmr3Z5p//Xo8WldXF7u9Zx61bzxU7/PXnDi9FntgGdV0fxolrllEggggIADCKTROoEELkN/qEHPiZYv/feTOQmUjO/QK4PfHTfqq/iO2pCvNQMaPMy/lLW2ITg4JHv2rMpMTGs2V791K9zNzVVDRWLOQhkEEEAg5Qo89t/bKYXi6vXrObJm/Y+91RoEV/3BvvSJGpI0smgLB30NZx7UdHZtiGf+qKeSsv7zFK5lx6yGpNhDob7p0yoMY+sjy4qWaa0V1PoLy65qfUdGN1f9PaWEB7vYFS2bJY0AAggkm8B//L2979BhfRul74NidziOrNiF7CrHvHja6JX2cjC2c0hkJ22uHt/cVCLPSzEEEEAAgdQgoLXiib9MjSyxBxdzgKR24gtyrGrFHgq1li++uubupUuX1pw2EnljFulZZcb+GLti7DLkIIAAAila4Ek+j5Si4eg8AggggAACCCCAAAIIOKQAMZJD3lYuCgEEEEAAAQQQQAABBGwUIEayEY5qCCCAAAIIIIAAAggg4JACxEgOeVu5KAQQQAABBBBAAAEEELBRgBjJRjiqIYAAAggggAACCCCAgEMKECM55G3lohBAAAEEEEAAAQQQQMBGAWIkG+GohgACCCCAAAIIIIAAAg4pQIzkkLeVi0IAAQQQQAABBBBAAAEbBYiRbISjGgIIIIAAAggggAACCDikADGSQ95WLgoBBBBAAAEEEEAAAQRsFCBGshGOaggggAACCCCAAAIIIOCQAsRIDnlbuSgEEEAAAQQQQAABBBCwUYAYyUY4qiGAAAIIIIAAAggggIBDChAjOeRt5aIQQAABBBBAAAEEEEDARgFiJBvhqIYAAggggAACCCCAAAIOKUCM5JC3lYtCAAEEEEAAAQQQQAABGwWIkWyEoxoCCCCAAAIIIIAAAgg4pAAxkkPeVi4KAQQQQAABBBBAAAEEbBQgRrIRjmoIIIAAAggggAACCCDgkALESA55W7koBBBAAAEEEEAAAQQQsFGAGMlGOKohgAACCCCAAAIIIICAQwoQIznkbeWiEEAAAQQQQAABBBBAwEYBYiQb4aiGAAIIIIAAAggggAACDilAjOSQt5WLQgABBBBAAAEEEEAAARsFiJFshKMaAggggAACCCCAAAIIOKQAMZJD3lYuCgEEEEAAAQQQQAABBGwUIEayEY5qCCCAAAIIIIAAAggg4JACxEgOeVu5KAQQQAABBBBAAAEEELBRgBjJRjiqIYAAAggggAACCCCAgEMKECM55G3lohBAAAEEEEAAAQQQQMBGAWIkG+GohgACCCCAAAIIIIAAAg4pQIzkkLeVi0IAAQQQQAABBBBAAAEbBYiRbISjGgIIIIAAAggggAACCDikADGSQ95WLgoBBBBAAAEEEEAAAQRsFCBGshGOaggggAACCCCAAAIIIOCQAsRIDnlbuSgEEEAAAQQQQAABBBCwUYAYyUY4qiGAAAIIIIAAAggggIBDChAjOeRt5aIQQAABBBBAAAEEEEDARgFiJBvhqIYAAggggAACCCCAAAIOKUCM5JC3lYtCAAEEEEAAAQQQQAABGwWIkWyEoxoCCCCAAAIIIIAAAgg4pAAxkkPeVi4KAQQQQAABBBBAAAEEbBQgRrIRjmoIIIAAAggggAACCCDgkALESA55W7koBBBAAAEEEEAAAQQQsFGAGMlGOKohgAACCCCAAAIIIICAQwoQIznkbeWiEEAAAQQQQAABBBBAwEYBYiQb4aiGAAIIIIAAAggggAACDilAjOSQt5WLQgABBBBAAAEEEEAAARsFiJFshKMaAggggAACCCCAAAIIOKQAMZJD3lYuCgEEEEAAAQQQQAABBGwUIEayEY5qCCCAAAIIIIAAAggg4JACxEgOeVu5KAQQQAABBBBAAAEEELBRgBjJRjiqIYAAAggggAACCCCAgEMKECM55G3lohBAAAEEEEAAAQQQQMBGAWIkG+GohgACCCCAAAIIIIAAAg4pQIzkkLeVi0IAAQQQQAABBBBAAAEbBYiRbISjGgIIIIAAAggggAACCDikADGSQ95WLgoBBBBAAAEEEEAAAQRsFCBGshGOaggggAACCCCAAAIIIOCQAsRIDnlbuSgEEEAAAQQQQAABBBCwUYAYyUY4qiGAAAIIIIAAAggggIBDChAjOeRt5aIQQAABBBBAAAEEEEDARgFiJBvhqIYAAggggAACCCCAAAIOKUCM5JC3lYtCAAEEEEAAAQQQQAABGwWIkWyEoxoCCCCAAAIIIIAAAgg4pAAxkkPeVi4KAQQQQAABBBBAAAEEbBQgRrIRjmoIIICA4wkMGTLE8S6KK0IAAQQQcDyBpB6wiJEc7/8ZrggBBBCwRUDjzbfffmtLTeoggAACCCCQjALJMGARIyXj/eRUCCCAgL0KJMN4Y6+XTr8QQAABBFKSQPIMWMRIKen/CfqKAAIIJIVA8ow3SdFz2kQAAQQQSFUCyTZgESOlqv+vuFgEEEDAWsByvFHa+jCfEUAAAQQQsA+B5BywiJHs457TCwQQQOBJCFiNNzyP9CRuAudEAAEEEHi4QDIPWMRID78llEAAAQQcUiCZxxuHNOSiEEAAAQSSQSD5B6wkj5E83N39/AOSwY5TIIAAAgg8koDlrJE5rd/Y+r39SO04TGEnJ6eo6GiHuRwuBAEEEHAYAfMgpSsyp/UbW7+3k+gaXZKoXXOzHdu2GDN+SmhYmDmHBAIIIICA3QooQNLvbbvtXpJ2LKOr683Q0Hv37iXpWWgcAQQQQOCxCChA0u/tx9JU7EaSPEaqWqm8fmKfmBwEEEAAAQTsSiBD+vT6sasu0RkEEEAAgScikFTzU0/kYjgpAggggAACCCCAAAIIIPAfBYiR/iMg1RFAAAEEEEAAAQQQQMChBIiRHOp2cjEIIIAAAggggAACCCDwHwWIkf4jINURQAABBBBAAAEEEEDAoQSIkRzqdnIxCCCAAAIIIIAAAggg8B8FiJH+IyDVEUAAAQQQQAABBBBAwKEEiJEc6nZyMQgggAACCCCAAAIIIPAfBYiR/iMg1RFAAAEEEEAAAQQQQMChBIiRHOp2cjEIIIAAAggggAACCCDwHwWIkf4jINURQAABBBBAAAEEEEDAoQSIkRzqdnIxCCCAAAIIIIAAAggg8B8FiJH+IyDVEUAAAQQQQAABBBBAwKEEiJEc6nZyMQgggAACCCCAAAIIIPAfBYiR/iMg1RFAAAEEEEAAAQQQQMChBJIpRoqOjg4IDIyKinoo3uGjx3+fNf+hxeykwP379wMvXwkPD098f/7as+/zkT98/cNPMrGqpdb0ssyM0y3xmWotvu79/NvME6fPWp7LDtNbd+xesmxVfB27Z61lXfDElVtvLjxe84edq48HWR/jMwIIIIAAAggggAAC8Qi4xJP/OLN37Nr7y7TZRovdn+lQs1rlBFoPvHJ1994Dz3Vpn0AZ2w5FRNxdu3Fz04b1nZweT2R4MSBQoc6diAj1p0bVSurzQ1tWlPjzb7OqVChXqKB3mjRpzBdyKzx89bpNq9ZuzJTJ84sP3zby43RLfGbC3duz72DRwgWLFS5o7kN8iU1bd5QsXixb1izxFUi6/PMXLpw+69eqWePYp1h/4vpTE/a8Xjv/1219Yx81cnrOPLzNL6SGt+f1W5HxlSEfAQQQQAABBBBAAAErgSSPkYJvhihAat28cYN6tTdt2fHbzHnFixXJmiWzVT+S4WPQteuL/1zVpEG9x3IuzWGMmTClgE/+l3p28w+49O2YCcWKFKpepWLCjftfvKQC7Vs3y5w5k2XJr74Z4+HhnjePV9itW0Z+nG6KwWJjxpmZJXMmG7pn2SVzeta8xf1e6vFEYiRzH2xIXA6NUIDUwjfb0hcr2FCdKggggAACCCCAAAKpViDJY6Rde/c7OzkZszcN69devGzVjl17mjVuYBa/dv3Gxi3btaoqXbq0Pbp1Vn5kZOTS5au3/7Xn1q3w1i2aPFWn5vGTpxUbKGxQU7VrVn2mQ5srV4O+HzdZh9Zt2try6UYquWzVuvDbt91cXTu2a1kjJlY5c+78hs3bDxw6mi1b1uaNn5q3+E81PvSzEblz5Rz4Sm9NWGnqZufufV65crZp0bhkcd8Zcxc6OaUJvKxg6sY7g/tPmTbr6LGTrq6uLZs1rFerhrnDRuLipUD1p9+LPVxdM2hCpmzpEpu37bSMkdSZ9Zu2qQNqs37tGvXr1LxwMcCYT/vq27Hp06f79P03zG2+/8ZramfBkuXiMjLjdEubNm1szDgzy5QqkXD3dJa9Bw5v3vaXJOvXqfF0o6eWr153zs9fMjp0Neiaor5ez3WZt+jP6Hv3Jk+dqbvzwVuDQsLCrNDO+/nPmLdI7wqiej//TEEfb6P/ihvHTvhl6JsDM2Z087twcdzkX1Vdh6xUj504tXr9pmPHT5UqUaxDmxY5c2TXvNykX6YrP3/+vHfuRDg7OxsNJvD+3pITO/1De1b2mr43cM+lWx818O5c0avXjMOqsu78zSqjdnzapFDNQlk+XHZq0p5AZXYonm14q6JemTIk0CaHEEAAAQQQQAABBFKtQJLHSPrXdvbs2YxFaFpdpn8EXw26bsn9y7Q5d+/efalXN4+MGTO6Z7zgf1H/KM/k6TG4/4t/rFgzb+EfCjD07+8Xe3bNlTPHydNnx//8e4O6tbVo7fqN4MPHTrRt2bRooYI3Q0JL+BbNktlz2cp1s+ctrl65wr17974dPaFq5QpvDnw5Kio6S5bMTRrUnTlvcf+XerpmMP3jeOr0OYqOvvzo7Y1bdkydPm/4p+9du3ZDj+g0ql+nWZMG6zZtOXPWb8RnQ9U39ceyw0ZagZQSuhzjo+Ku7Tv3WBZTgLRu41Zdl3ry0+TfnF1c6tSs2qZFE62169PjWc0aWRZWgGT5Uek43dKmdYmNGWfmQ7unU6ji8892vBly88eJv2pmT2He8tXrAy4F5vHKvWX7rnv37hcu6NO1U9tho8aakAsXzJAh/egJU6zQZs5fnCWT5+DhnwQHh7i7u5mvQm4K0qJinrm6GxmptGbe1m/eaqmqYHjM+Ck6Ra9uXab8PktnV39+nzHv/IWLQ159KXOmTBN+maZ7Z24zvsSZ67fXnL5RKEuGjqVzLjtxrN+ikx3K567u7bnsxPViWTL0qeJVMJvrm4uOT9x16cXKXlndXIZvvHDhZsS6/gmt+YzvXOQjgAACCCCAAAIIOLzA43kyx2YmLS07deasHjjRP8Fz587p4Z5RTWVIn75OzWqKi8qWKqH4RP+2VtrZyXnr9l3ht0y7I1y/ccM447Md21apWF7r1vLmyX0zNEQzOf9L8z9NRKjOwcPHVLdT25b6F793/rxqOWvMEzX6J75aCw0LO3f+gjY/WLVuk2KtkNDQkNAwtanZDC0L1FM6xYoU1kSQNjbQVhMqb5zukd63bP+rZrVKui7fooWrVamgvqVPly57tqxqRJFV7pw5Hqm1pChcuoSv3DSBVqqkrx5z0hRQjuzZNmzZLnA9g9T4qTqaw9FN0amzZcuiIFAPTcVGq1Cm1L6DR+Yt+iP6XlRGt39jpDg7bKVq3CPN261ct1HR1OGjJ1RLcW/N6pULFfBR2OaTP2+c7cSZ+X6Tgi/UzFe/oGkZp7NTmq6V8ihRKqdb39revrncFSDp4w8diw9r7eudJcP6s8E3wnlIKU5IMhFAAAEEEEAAgdQukOQxkv7ZHRR0TXMpktY/vq9du27ECQa8ZhKUcHGJZz3VP5saaELpmzETFPwEh4TEecfGTpw6c+5iHdKEklEg4u5dJZyc477A6JjZCfUtX57cvkULvdC9i5aEWbas2Oajd4fkzpVDcyy/zphrechIG1cR9M+c2JUrV7NneyCUuns30umfdWIuzs6J2dPP8ixxuiU+86HdszyXU5o0Li6mGUWtuNu2c49WNio+jL21RpxoTRrWe/3VvrfCwj8b/r227LNsNnbaSjUyZp9D3QL91KpeuWe3TqqiyFb9Mde1TJszE0goOop99P7//t4t0Dmm5Qwx/1dE33tgC8HYtchBAAEEEEAAAQQQSJ0CcYcQj9GicoVy+lfv9DkLtfpr9oLFinOqVf73GfosmTN75c6lRVZ6KkZzSpqpiPPUh44e19xO8yYNvPPli11A7evxFT3wU7d2jezZshkFypUpqcSfK9aGht26ERysKSNjiV1A4GWdRlNPOu+VK0HaQKJiuTKaJNFzPpYt65EkTT11bNuyYf06mu7QIT2Ho0eYzGXyeuXWRIfCJ000adZFcym1a1YzH1WiVvUq23fuvnwl6FLg5R279ikGsDz60HScbonPfGj31IEjx0/qMk+dOXf42MmqlUw3pWqlcnrXakbtvOfm5qq0oju9B1y6IjRPT4/YaLpA73x5e/d4Nn/ePIeOHFdh4+WWwVT9zNnzuq3az93ItFI17lHYrfBypUuVKuGrfSZUTDdaD6fp2a3AwCtadKcpQWXu2Xdg3wHT80W2vRRoPVvWNCH2wR8nv1lz9kRQeHkv9+zu6WxrjVoIIIAAAggggAACji2Q5M8jZc7k2ef5Zyb9OlNrz0SpB06slq4906H1uEm/fvTlNzqq+Zw0af6NVdJo5VzM6+lG9fUc/4A3hv4bzFjMFii80W51cxYs0Y82mjOqaMFehzbNteXAyrUbtKvBR+8MLlTAWxvHffn1aMU22l+7Y9vmP03+/a+YPRKMHKOi8b79r91Ll69Ry5oL6vFsB81KacuH7NmzmtfI6dmq/i/1+OaHCZo/URVFRNUqlbdsoX7t6tp34eOvTNelJ6lq16hqPmq567c505SwuKj43OLEjDMz4e7pbJrck4amjIRWqXwZ5Wg2qV6taqvXb25Yv5apP1q05uysHR20lE4/X330Tmw0/TErrZZUSXX4hcZdYiqZ3rRIT83qgSKlSxUvZspK8z8rVd0jrWycPX+JfnRc+6frf4/uz3Yc+f04dUz4OXPmMJ5kW756g7OLc/mypUztxLyMkNYC7J8D8fz32za+V25F6kkkHS+Vy23mc6br5YUAAggggAACCCCAQGyBNCGhfy9Oi31MOVoN5ed/sXzpf/9tGmexh2Zqqic4+KZmb6yma8wV9YCQm5tbfEdVTBNB+te8h/sDWx2Yqyuho3pmSfvFWWYqDNA0hafFBgla3aeQySijozeCb7pnzGhVy/KowieFNNoiTztAjBr2sbmu+SyapFLP9ayROccyYaz90xYUlpmJT8fplvhMnSjh7mn1421tBmjxHJFiof2HjlruuadGhK9YxQjtYqNpVaH+iq7VbubGNersGd0yak888yUb1Q1VIzNm+42b2bJmttzCTtNW2sfCCJCMDujdsoC5wUdKXA+PjIq+n9Mj7pv1SE1RGAEEEEAAAQQQQCBFC+w7dFjrodLGPHJidSHJFCNZnTXFfdRarzPn/LT0LsX1PPEd1uq2rTt2rd24RRualylZPPEVKYkAAggggAACCCCAQIoTSCBGSvK1dikOK84OVyxfVj9xHnKYTE0URUZFatkeAZLD3FMuBAEEEEAAAQQQQMAGAWIkG9Acs4r2Y+jaqZ1jXhtXhQACCCCAAAIIIIBAogX+3SAh0VUoiAACCCCAAAIIIIAAAgg4rAAxksPeWi4MAQQQQAABBBBAAAEEbBAgRrIBjSoIIIAAAggggAACCCDgsALESA57a7kwBBBAAAEEEEAAAQQQsEGAGMkGNKoggAACCCCAAAIIIICAwwoQIznsreXCEEAAAQQQQAABBBBAwAYBYiQb0KiCAAIIIIAAAggggAACDitAjOSwt5YLQwABBBBAAAEEEEAAARsEiJFsQKMKAggggAACCCCAAAIIOKwAMZLD3louDAEEEEAAAQQQQAABBGwQIEayAY0qCCCAAAIIIIAAAggg4LACxEgOe2u5MAQQQAABBBBAAAEEELBBgBjJBjSqIIAAAggggAACCCCAgMMKECM57K3lwhBAAAEEEEAAAQQQQMAGAWIkG9CoggACCCCAAAIIIIAAAg4rQIzksLeWC0MAAQQQQAABBBBAAAEbBIiRbECjCgIIIIAAAggggAACCDisADGSw95aLgwBBBBAAAEEEEAAAQRsEHCxoY69VQkMvLx6/eYM6dN1bNfKqm/7Dx4+ePhYQe98tWpWuxhwadXajbVrVC1SuKBVMX1ctnJ1ePidtq2aOTs7xz5qW875C/6btuzw9PRo3byJbS0kplZS9Dwx56UMAggggAACCCCAAAIOKZACYqRRY8YfOnLM2cnph6+/zJAhfezbEHj56qKly9OlSxtnjLTkz1WVKpRVjDRz7qLtO3cfPX5y+GdD79+/f+zEyXTp0hcu6KMGL18J+vnXWUqUKF60ZHHf2KewLcf/wkV1zNPT/b/ESOfO+92+c6dYkcJG8JY8PbfteqmFAAIIIIAAAggggIADCCRHjPT5sFH7Dx2JE6trp3bt2jSP85CRGRoWtnX7LiO9/a/d9evUTKBwwodaNW+SPn26WtWqqFjg5csffjYyS2bPCWO+0cecObJpBiki4k7hgnFMMSXcbFIfff+TYXfvRk768ZtMnp4pq+dJLUP7CCCAAAIIIIAAAggkhUByxEilSvjGFyMdPno84Rhp6/aduuycObJfuRq0eu1Gc4wUFRU1eeq0LTHhU768XpY0N4KDR42ZcOLUmcyeHpbzTqfPnj195lyWzJldXTNMmPK7qtwIDhn89oeFCxV4qddzu/bsU05oaFj69Fk1V7NwybJVazdcD76ZO2f2Tu1a16pRVUfnL/pj09YdrVs03bPv4KHDRxVxde7QpkG92tHR0eMn/7rvwKGQsFsqVrNq5d49u2Z0c1M6vtfiP1du3rr9YkBgQR/vNi2frlKp/L179+YvWrp63abgkNA8uXP1e7Fn9mxZx//8mwIkNTL002Euzi59enabPHW6PsbX82HfjL585Wr3ZzvOX/Tn2fN+3vny9uz+jG/Rwqry1559U36doSsqW6qE5tx06rcG9/PKnTt2T+LrM/kIIIAAAggggAACCKQGgeTYs6Fk8aLxUXZq1zK+Q0b+6rWblHjlxR56P37y9M2QECP/l99mrl63+fbtO3cjI0+eOmtkGu9DPxl+9NjJ6KhoBRsXAy6bD12+HOR/8ZL/xYBTZ85d8A8w8pVz5uz5e/fvxxy6FBF5V/kz5yycPnvB1aDrakQtfDd24o6/9ig/8PIVFftxwi9asxd2K/za9WDFWgqQIiLurtu4VXGLa/r0qqI4atv2v8znjZ3Yuv2v36bPOXvuQkY3V13UwcOmSbZps+bPmrdEbSpT3RszfrIudtee/Ub1wMCrOrVivIR7fubsORX76uvRalbBla502qx5aiE8PHzEt2N1RUrv3X9ox197VUzdjrMnxhl5RwABBBBAAAEEEEAgdQokxzySr29RrambPmeBFbEydcgq0/Jj0LXr5/z8NemhmShNhujf/ZpWatakkcKSFWs2qGT7Ns2f6dh209bto8f9bFQ8fuKUZpyU/ui911Vr7IQpGzZts2xT6RZPN3LPmFGHtNZu3PcjlBMZFWUuo8bnL/5TH7U2r1O7Vt/8MG7/wSMz5syvVqWiUUY9eWvIAM1WvfHuJ4qIFHTly5vn6y8/1LseGVq2as3PU2du2LK9UYN65jatEgpdlFO2dIn33xqUJk2aO3cidNLFf6xQ5qjhn2paTLNbimHc3d3Hjvqq/+B3lT9+9AittXNycvL08Iiv5ypmvDTT9UyntitXr//l91maT1OmNq7Qe7asmb8d9qmTs1P33gOMkrF7YuTzjgACCCCAAAIIIIBAqhVIjnkk4WpBXbnSJS2V9THhVXYqvHGzKbwp4VtUS+BKlTRtpbByzUa9Xw26pne96taqrhjD093D+Kj3CxdNE0QKq0qXLG465OFuPmROKN/JKY3xUVGNXuZDSgRdu2F81CI6rcp7KuYJqMArprjLeOXOnVPNahmb8VEL89SCq6urVueNnzz12PFTyr91K/zv0nH9p2L5Mso+cOjoiwNeX7Nuk85iPunonya//cHnRpin3RpcXP7uW0w3nRPuuflUhXzyp3Vx8fHOZ87Zvdc0H1W2dEk3N9cM6dOb82P3xHyIBAIIIIAAAggggAACqVMgOeaRDFktq7N8Kumhq+xUa/U6U0SkaZze/YYYjWh2RfFDVFS08TG9xT/3jRw9p6REurRpjY82vN+NWW6nim5uGfTu6uaqd80XKRaKrzVtizfknQ+1tk2xWfS9e/EVM+crfnvvjdfGTPg5JCRMTxz5XfBv3PDvSae7d02L/fT8ld5zZDe9P8aX5XSZ0WzsnrzQo+tjPCNNIYAAAggggAACCCCQ4gSSaR5JLlotp8V1BtBDV9mpmGaEjOdnivsW0Zbc+nGOmVTR5JJX7pxGO8ePnzQS5nfv/KbpHT0sFBwcbM6MndBO4sq8E2EKSKxeObJnM3JOnDStUjt2wjQvpP27NYdjVdL8cfvOXQqQihYp+Pvkse++/qo530jci44jaqpQvsyksd++0OMZlVmzYXOOmKBI6UEDXtJyO+NH1+L0z0n15JXRWgI9NwrE+V6pYjnl79t/6Nr1G9oq0LKMVU8sD5FGAAEEEEAAAQQQQCAVCiTfPJJwtbhOG9npMaGHrrJT4fUbt+o9b55cn33wtnFjfpo0dc36zZpc0t9BUuCkVW3f/Thp+Zr12nTBKKD3At7emsxRxPLyoHeKFi5orHwzHzUnfIuZnoNS4PHW0E/1J5J6PGeKVYyXlqJVKFdaGxt888NPCnuMDSGebvzUP8fj+G+WzJmUe+nS5RWr161Yvd5cIt8/AduXI79/782B5vxfp8/WrhLq3pWYRYM5smfVSUuXKn7o8DEttKtUvqyLi8uZc+c+eHuIJpTcM7op5Pv4i5G5c+V8543XEui5uf3YiTIlSyhT7bz82luWR2P3xPIoaQQQQAABBBBAAAEEUqFA8s0jGbhD3xmcmABJhdeuN+1oV61KJfNdqR6T1s5vF/wvvjmwn7HltwKk6lX/LaPnbT58e7DiCq2Ou3o1SPsimKubn0FSTvbsWevVqaGENpe74H8pzf8emCPq91IvY79sI0CqV7tG21bNVfifSR1zk6aE5pfUAXVGEcjkqTP0cJH5sE/+fAq39FGRoTlTiWxZs168FLhs1brdew8oCHz15T7KfPXl3grJ1O2du/Zqu7nr14ONh5G6dWmvqE9XffL02fv37ifcc8uzWF6vWD774C3NxRUq6NOn57NGMReXtHH2xLIR0ggggAACCCCAAAIIpDaBNCGhoQlcs55g8fO/WL50qQTKPMFDWjbm5upqtemC0Z/gmyGZM5n+6GoCrzsRETpquYeBZWHtu3D9xg2tgouvgGVhpfWgVLp06WKfVGdJny5d7KV62rXP2dlJf6/Jsp1b4eFBQde0o13WLJnNVbTrnaa83N0zmksm3HNzMcuEGjGg9h88/Pnw73Ro2s9j1WEl4uyJZV3SCCCAAAIIIIAAAgg4mMC+Q4e1DZu2Oot9XXFkxS5ktzke7nFsW2f0NnasEvsqEg5+MmZ000/sWvHlGBstxD4a31n0J2JjF9Zfns3obX1SxTaWAZJqxddm7AaNHEVBrwx8W4v6PDw8jKWJdWpWMwIkFYizJ/E1RT4CCCCAAAIIIIAAAo4tkNxr7Rxb026vTrNtDerVvHfvngIkrdxr2qjeS727221v6RgCCCCAAAIIIIAAAk9QIGXPIz1BuJR1aj2P9MqLvdRn84q7lNV/eosAAggggAACCCCAQLIJMI+UbNR2caI4n92yi57RCQQQQAABBBBAAAEE7EOAGMk+7gO9QAABBBBAAAEEEEAAAfsQIEayj/tALxBAAAEEEEAAAQQQQMA+BIiR7OM+0AsEEEAAAQQQQAABBBCwDwFiJPu4D/QCAQQQQAABBBBAAAEE7EOAGMk+7gO9QAABBBBAAAEEEEAAAfsQIEayj/tALxBAAAEEEEAAAQQQQMA+BIiR7OM+0AsEEEAAAQQQQAABBBCwDwFiJPu4D/QCAQQQQAABBBBAAAEE7EOAGMk+7gO9QAABBBBAAAEEEEAAAfsQIEayj/tALxBAAAEEEEAAAQQQQMA+BIiR7OM+0AsEEEAAAQQQQAABBBCwDwFiJPu4D/QCAQQQQAABBBBAAAEE7EOAGMk+7gO9QAABBBBAAAEEEEAAAfsQIEayj/tALxBAAAEEEEAAAQQQQMA+BIiR7OM+0AsEEEAAAQQQQAABBBCwDwFiJPu4D/QCAQQQQAABBBBAAAEE7EOAGMk+7gO9QAABBBBAAAEEEEAAAfsQIEayj/tALxBAAAEEEEAAAQQQQMA+BIiR7OM+0AsEEEAAAQQQQAABBBCwDwFiJPu4D/QCAQQQQAABBBBAAAEE7EOAGMk+7gO9QAABBBBAAAEEEEAAAfsQIEayj/tALxBAAAEEEEAAAQQQQMA+BIiR7OM+0AsEEEAAAQQQQAABBBCwDwFiJPu4D/QCAQQQQAABBBBAAAEE7EOAGMk+7gO9QAABBBBAAAEEEEAAAfsQIEayj/tALxBAAAEEEEAAAQQQQMA+BIiR7OM+0AsEEEAAAQQQQAABBBCwDwFiJPu4D/QCAQQQQAABBBBAAAEE7EOAGMk+7gO9QAABBBBAAAEEEEAAAfsQIEayj/tALxBAAAEEEEAAAQQQQMA+BIiR7OM+0AsEEEAAAQQQQAABBBCwDwFiJPu4D/QCAQQQQAABBBBAAAEE7EOAGMk+7gO9QAABBBBAAAEEEEAAAfsQcLGPbvzbi9Nnzm3csu3AoaOXLl+Jjor+94BFytnF2StXzrKlS9StVaNwoQIWR0gigAACCCCAAAIIIIAAAv9JwL5ipCm/zfhzxdqHXpBiJ/+Ll/Sjws2bNujV/dmHVqEAAskvMHL12beWn7Y87/2vG+ljmjdWW2YqbeRbZfIRAQQQQAABBBBA4IkI2FGMNOyb0bv3HpBCh7bNa1SpnC9fHqX9/QO2/bVr3sI/49NRmHT5StA7r78aX4FUnh8YGJgrV640adI8qoO//8U/ly1v07qlqj9qXcobAlYBEiwIIIAAAggggAACKULAXp5H0gySAiQvr5xff/HhMx3b+fjkd455KaGPIz4fqkPxgaqiqsd31JwfEhLy1bARzVu2y52nYN36jd5+533zoUQmjh8/ceNGcCILJ75YVFTUwYOH7t69m/gqiSy5afPW8hVrLP1jWSLLWxa7eDHgw48+Dwy8Ypn5uNKBIRGlR25ddODy42rQntvRHJH5x+inPgZ9UreOTyZ77jZ9QwABBBBAAAEEUq2AXcRIegbJWGL3+oCXFRTFvhkFC/gM6vdidHTcjyepvKqrkdgVzTmaFan3VJNVq9Y1e7rJD99//UKvHnnyeJmPJjLRum2nlausV0klsm4Cxc6ePde4aavz5/0SKGPboRLFfYe+/3bFCuVtq550tSKi7h2+HB4aEe8NTbpT20PL127dbffz/k3nbxIm2cPtoA8IIIAAAggggICVgF2stdMmDeqWltjFGSAZPS5UsEDr5o3+WLHO6gLMH9VIAvs3vPnWuyr5x9L5rq6u5ipKTJ8xa+OmzT/9ONrIfPGlfo0aNejSueOFC/4/T5m6cNGSwoULPd2kcc1aNSZMmHTzZsioUaMXLlzcpUuntm1a3boV/t33o1esXHU3IrJevdpvv/VG1qxZNB3Uo2efzp3a/7Vrz9q1G9zc3D755INr167NmDHrxMlT7du1eeP1QZZ90Hq2qVN/19kHDn4zk6fHRx+9X9zXV/M/Y8b8uG//wZIli38w9F0FOUaz/fq9vGXL1q3bto8fN2bS5Ck5cmSPjr63cPGSoKtBrw54pVy5surkzr9216pZ4803Bvn4+ISGhqp8gwb18+bN89nnX+ldi+4WLFysq1MPXx8yKF26dDr1tu07vvtutHG6Pr17tmjezNCwfFeVr4aP3LZtR5bMWdq3b/Ny3z4uLqb/efbvP/jZF18dPHi4fr3aFSqUP3ToyJjRowYNfiNHjhzvv/e20cK0aTNXr107acI4TQ1athk7HXIn6tPlp5ccu3Yn+l7Xsjk+alYkg4vzjnPBn6w8s+fSrdDI6Ha+WT9tVqRQdrcDF0PfXHJiZKti3204f+VW5Lxe5VpP2tuvZr5t54KXHr+mll+v492rej7LUygwU5kelb22nru55Pg1j3RO37f2Dbp1d+KOgENXwp8vn/PjZkXc0pl6uPHU9U9Xnd12MbRSroyD6uRvXz63MmfsCtjuF9KhbM4R687X9PF8r0nhM0Hh7yw5sdEvNLub85t1fXpUy2t5uvjSlgHSghfKZf9oY3wlyUcAAQQQQAABBBB4IgJ2MY+kXex08XoGKWGCOrVqhN++FV8Zo5E4j0ZFRa9bv0lRjWVwYpT087uwbt2//0hdsnTZuXPndejDjz9dtmylJmFaNGsaditMoUXWrFmVX7hI4YoVK2TLlk3pIa+/OXrMTwpgGjVuMPXX6V26dtdM171793SuV/oPvn7jRu/ePS4GBHTq3O2TT7+oWrVKw4ZPjf1xws6du4xTG+8uzi5ZsmZRukzpkmo5Q4YMijpUxd3d/ZOPh6rBN94wRXdGs8r/7vuxObJnV3xy6NDhjz/5cvWatZ06tMufP99773/comV7dVJTZHPnLZw1e55q3bp1S50JvnFDaZVXmfHjJzdp3KhatSrf/zBu167dyj98+Ei79s8ofhvQ/+WbwSG9+/Rbs9Y6EA0PD2/UpMX8+Yuf6dLJp0D+z78YPvLrb1VXsE2btVaANGhg/8KFC6s/W7aawl0fH2/J3Lx5U2m9xk+c5OHu8dAASSV7Tj80btelPpW9+lTKPWzDhbUx0c7567fzeab/qIH3p0/5LDh+/actF1RS0dTKUzfKjdrx58kb+TOlv3f/vj62/fXg1vMhfSrnSevk9MLcYzdvR5lO/8/LKNNt5hHFRYNr5jt7826jiXsHLjlVp0Cm1r5ZR266sOWMCWqff0i9n/Yoavqgnvf1O5Edfj+07PBV5V8Ijvhhq78OnQu+nc0tbVhEdJnvdh4JCv+scYEqeTx6zjl6JfThqyWtAqRsGU0xKi8EEEAAAQQQQAABuxKwi3kkbfMtFGOThgR09C/viDt33FwzxlnGaCTOQ0FBpn/j5s79CHsP7Nt3oEnjhh3atzM3+Nqr/X4cN7F1q+aaZVLmufPnFy3+U9M1rw8ZqI+lS5UcNPitXbv2lCtXRh8//+zDPr17KXHt2nVFNdu2rFfwExZ26/ffZ+7dt69evTo6ZLyaNGmUNl3ahQuXqnzRokWUOWT025kyeU4YP1ZBRfHivk83a6NALmfOHDrU4/muQ4e+6+HubtRt1qzxlMkTlC5SpHDXbr0WLZit4Ecf165br6kho4zl+1P160yfNlXxnnqlM+7dd6BmzRpTpv6mMhvWrfT09Oz3ykslS1cc99PEhg2esqy4YsVKzaHNmfV7nTq1lD/g1cEKsV57dcCpU6f1cfq0XypVrKDEnTt3NEmlRMsWzYePGKXZsJYtmp0+febEidOffvyh8hN+nbxya8GRoCkdi/eMmf/ZfTFsyeGg5qVydq7opR+j7vngO7/uuzKija/x8ecOxbtXzevinOZ2pGnZ3oinC7/ZqKASxXK6tZhy4GBAaO3CpvjT8vV9y6Kv1fdRjiKlL9b7nX2vpmta59A70RN3Xdpx/mbj4tl/3GyKwY69WSOzm8ubDQt6frhhxPrzzUqZ/PXaN7hqubyeSvz+V0D4nai5AyoXz+3evWqeX/ZeXnfyWpd/+hlT1votzgCJHe2smfiMAAIIIIAAAgg8aQG7iJESjxAdFZn4wuaSadOavq3XZIg556GJ7s91HTFylIKTV15+qW7d2rHL+503/Uu6cqWKxqHy5csqcfbcOSNGcnL6e4Iue3bTjJPCEr27u5uiu3v37us9gdexYyeyZM488utRKnP79m29a2rLiJF8fYuZAyTlO6X5+yzGHJdxFuXnypUzIOCSElYvLfwzymTLZpoTi4o2TbMcOXKsYsXyCpCUVlTWsGH9NWvWK235OnX6rD6WKVPKyKxRvZqmqgICArZt364cPfVk5Js7oGCvatVKS//4UzHS+g0bFfLVqlXDKJPA+7nrpovdeCb4VJDpTl0MidCPUf7ctfDlR4OcndJcCburFXfmRsrm9VCAZP7omu5vEC/P9MrUxJH5kDnxz535X053Uxljwz+PDM7m8nsvhVXO66EASTk6Y5tiWReduG6ubgRI+njiqmlK8/ddAcYhtwwuRwLDzMViJ+IMkGIXIwcBBBBAAAEEEEDgiQv8/W/KJ9sP/UFYdUDbfCfcjYR3NTAaibMFPSak/LNnz8d5NM7MQQMHjP7hG62U6/xM9zdinmWyKqY5E+W4e/w9peOe0ZQwMq1KPurHO7dNLaeNeSl00VRVwYIFlJNEr7Cw0CxZ/p1syZwpk6aMtLTP8nRGqKYQy8j0zGQKqCIiIlRSiTijvq7PdtFUlabOFi1e+nz3rroaywbjTN++awp+nNL8L62zk35aFs82oKbpgaKZuy8V/Grrr3sC1526sf6c6YxJ+gqJiM6R8d/eZnVLq/mi2OHW7bsmIgVRRm/fqpWvYTFTPBzf6+dtF41NGvQMkuUSO/2tpNh/Lim+RshHAAEEEEAAAQQQSAYBu5hHKlu6hP4grP4OUgJ7Nshi46Ytzi7//uPVSkeNWOWYP2p+o03r5rPnzH/rzSH58lk/WK9/6OuxH6unZTQR1Klje22xoIVnevzm9cEDXV0zqMH7/0xNeHmZnuM/cOCgscxMT/XoozZFMJ/0URPmlgsW9Nmzd5+CNMsuPZboK84u+RYrpqew9GSRi4tpLmXzlq0lSxQ3z4MZVfS8kxLa+rxMmdJK7NmzV+/6u0laCqjEgQOmNXtKREaaJqaMV9MmjZWYNXvOzp27v/js479zE/xP3swm4fpFsj5X5QHGbzb6tSuZff4Lpt359FdZP17/CLFugieM+2CZXG7zDgdFRd83ZqhWnbpRKpebU6w/MOWT1dTb5yrnKZoz7sWfVq1rEaDa6FU9r2WAZFWGjwgggAACCCCAAAL2IGAX80h1YxZi6Q/Fno3ZLyFOl9Nnzk6dPit9BtM/TON8GY3EeUiZQwabnhpq2Li5NrLTszrLl68c++N4BR7atk75ixcvPXjw0PAR3xjVFTLpbwodPXY8OPhmZKTpQXwnZycPDw+tGVuzZp1KavFbiRIlihUrrC0QVqxYtXHj5q9Hfa+j1apVNVp4pPd8eU1hmza4U8t6UqhFi6aXLl3WWjvFJCdPnlqy9M/r1288UoOPVLht21Yq//Gnn+vs2qZPzw49+2wn5RgrA3ft3h0cHNyoYQPlfPnViL/+2j1n7vzpM2Y3btIgR47stWvV9PLK1b5j1y++HN6r90sTJv5sPnWWLJk7dmj7/tBPpFS69N+L9MxHjcS+i6Erj141/5Ty8vDOkmHY+nML9wde+D975wFWxdH1cSkK0sRGkyqCIKCIHUQRe4klGnuLxpjE+MbYo0aTGI0m8U3xTYy999i7oigK2GhSBBGx0pHei9//MrpudvcWEf2InPvwXGZnz5yZ+c3s3jl7ZmYzCrC5nE9MGiRra6gl5RY/ySy8/iBzDHDeewAAQABJREFUX/gbeV8Tv2CjW8us31lHYkIeZX1/Ju5OWj42geALsHAvh0YIfHUi9kpcxoOn+djXAcufxGL8mNndbchA4gOhMBEgAkSACBABIkAEqieBamEjYc/ufr1lo/Bf/1h3L/6+mBQMpG+WrdTUrC1vwwYkV7DxNxRiJc/5cyewlfbMWfOxjdvESVNPnDwN54lX1y5wm3w6bQbeUJSaloYwhDHTbMvW7d28+zi5tNm2fdevv/xobGQEr87Xi+bDlwXJU6fPwOuyfu2fmH424cOPMR8Pu2/v2LbJQF+fW5PDasEcMny3jMghUQurd8aOHbli5X+hGVbRwPcGfvGfT7HTQ9duvT279ly/YVNxcZFArQCRWi3Zmhx1TFP754ef7z/PvDzq07vXvLlfbtiwBbmjDJM+HIe1WDgNHxH2eICRc+3aDfiRtm5eFxwS9t6gYdP/MwsYVy7/HjJY17Rn1zbsJHHt+o1mtrYwnF7qrVVr2NAhOBw/doy8wq+68qj3xjDur46m2uHxLlhtNGR7hOUy/75bsOmCbIXPkp429zKKzL+/MnBLuG2F9waRgrqKqfJLwsICGbYwie8gYvgGtTT+roc1trBz++3G1+fip3VsMrWzhThHeyPdPaOd4HHyXBNkvTxgxrFYVfa1E5eKYogAESACRIAIEAEiQASqGwG17BxFD79LSksfPn7iKscPULWVWbFqdVDILfhw8B4kbPONXeygH2uQYJbAgwQDycDAkD/9jMu9TeuW82dN5w4VB0pLS9OfPm3YoIFmxet9mPCjR48x3OfW27BIvJIoOTkFc/P4Q3yYVc+elXOrazBBLiU1tay0DJvmqWKQKCgbnFpQy1UQh0nJybDNxPuVK1BS6VMsO6PGjQUQuDl40IymwVYQurq6bH2XIC8Ylm3aubdo0WLn9ufepHM+58eN/yjohv8rTUHEZMaU3KLi0nKL+i/fZFVW/iw5u8i0nrbAzhGUoQoPsVFeQmaRiYGWrpZsCqK8Dwr2OLNQX1sTy5bEMqovNKLd7cT0KIYIEAEiQASIABEgAm+UQGhEpKV5k9o8o4DLrhrZSCjT5u27T565gADeg4RtvtkudliDhCl2CjxIH44bxdWHAm+TALYKxJRFuJVgWWH6Il4S9dea3/EeKticj588mTd/oWurVr//9nwG49ssWDXJC6un5p6OU1oYbstypZIkQASIABEgAkSACBABIlBVBBTYSNVizwaunrB2sKzIzz8QL4TF+47gn+FO8QMamhrYxQ6bNEBY8RQ7fioKVzkBuM5gJq1a9XvU7WhrK8uff1o+8L3+yMXH5/xXC7/p2sVj4cJ5VZ7pv0gh9mlg72v6F5WZikoEiAARIAJEgAgQASJQvfxI1B7/UgLijQHFMf/SqlGxiQARIAJEgAgQASJABN5JAgr8SNViz4Z3EnqNqhS3jIqrtTiGO0UBIkAEiAARIAJEgAgQASJQnQmQjVSdW4fKRgSIABEgAkSACBABIkAEiMDbJkA20tsmTvkRASJABIgAESACRIAIEAEiUJ0JkI1UnVuHykYEiAARIAJEgAgQASJABIjA2yZANtLbJk75EQEiQASIABEgAkSACBABIlCdCdQgGwlvj01ISiopKXnN9sgvKLh77z5TkpWds23334uW/ngjOPQ11b4zydPSnyYlpbxSdSJvx+zYe/CVkrw54U3b99yJi39N/Xi5MD6vqeT1k7NiCL5fX21GZuYf67fk5uW9vqp/l4Yq6Rv/ripXk9IGXAs6duqcvMI8ePh4zcZtVXjF8W/y8jKt8nh+pvxfFvxsPc3IrPLsJBWqfitWXVIyI4okAkSACFR/AjXFRjp0/PT0OV8vXfnbf+YuXr955+s0jH/gjVWr1xYXy2ytywHXQsIiunVxb9ig/uvorERa/ES9/lCe5VtUVHzq3IXy8vJKFEOcZOuuv9dueTXCSSmpQSG3xKreToyg+sGh4cnJym08QSpBUWE2fzZzAQY9gvi3eQhjFWUQ/B08evL1y1BQUBgRFZOfXyhPFa6L9KcZ8s7+e+NV7Bv/3gpW25I/ePQoLOK2vOJlZGXhlXpVaCPxb/LyMq3yeH6m/F+WP9Zt3bX/UJVnJ6lQ9Vux6pKSGVEkESACRKD6E6he75B9Q7wePnpy9vyloYP6uXdom52dk5uX/zoZdfHo6NC8WZ06taEk+s5dvMq2e9fOr6OwcmnPX/JvYmpsb2tTueT8VBhMHz15rpd3V35kpcOTx40oqyJzq9JleKWElau+glT3HzzCc9/atWtfvxni5en+SoWpQuH6hvW+XTAbCs9fuhx4PXjRnC8Q1tPVqcIs5Knae+DoZx9PePsPDuSVh+KJwCsR4N/kXynh6wjzM+X/ssz47KM6deq8jmZKSwSIABEgApUgUCNspIJC2QNviyZmOnXr4o9hunYz5ErgDfMmxv5XgyzNzQb1721XYW/gx8nn4uXomLtOjvZDB/U3atwIT8T9/K9isgfsogljhufn5R85eXbJ/C8x8QajYfzduXuvRzfPC5f8x45437G5HfTvPXikuLh03MihLK+c3Nxf/tiQkpIK48HWxmr61ElaWi9/8+CRwBjW/+oN2G99e3VzsG/2x7otGNHq6urAusMckq/nzkhNS9994AimlGDcOXn8yNM+F+/ExmHK382QW+NHDUOmAVdvXPK/lpic4tGxbQ8vT4jt/vtwYVFxrWfPQm5Foi5urZyDwyLCI25bWZr/59PJWi9+dKNi7uzcK3tICdeHibHRF59OFhOAKnV1taRk2AUZn3888bc1G7u4d7gWFJqVlT14QG/UDnDy8vJHDB3YsZ0bOBQWF43+YAgIB14Psm/W9OqN4Jyc3IH9e3WrMBjERWWU2Ddgnr94OfL2HRdnR1QEuBAfGhZx9LQPsnPv0AZVnjvj003b9znYN+3fuwfOYqLjybO+X8/9Ql39uV/078PHYRWUlJa2cW05YfQw+HMuXg68dOUqauHVuRPsFo6/uPpQGBUTGxV9JzwyuomZ6edTJ+rr6a3dvANFwkRNgJ06aSyqLIDGCs++fa8EokXMTU18Ll5hNlJKappiaDGxcVt27svMytZQV+/s3n7k0EEX/ALOXbjEqf1w3EhzMxNxLdA0ZWXltWtrXL8Zpq2tNXHMcNaNkRCvqDJq3BABA3292pqaLIySLPv5dzSE7+WAAX16oNVOnfMFH1wXw4YM6NTOTbLV0PH43Y/rPFDu43uZr6FFc7s/129FP9+4dQ+uF3RdyPhe9r94+aqmpkZ3L88eXv94oHDv/gO0C5wADRs2+PKzj9Bh+NrklQc62YeB9ejYDs/d0fr9enbz6NSeRXJ1bOXSQsztu5W/OjvY37kXn5yc6tXFvU93L3SJ/PwCQVFBA72rQX3DsPDbX34+hWWKxywrf/lD3sVe6SIJ7jN2Ta3hWLjofxUKO7Zr/cHgASUlpZt37r0dHVu3bt0Bfbt39egk6OcvqNQS3FJwHYkvK1ZOBRcyu4EUFxfjptHGrdV7fXo0athA3FGZnl7du9wICsPN0K2Vy6TxI1etXqfg8hRcTbgzS3bjwqKiDVt24XZkYdGksLBI/Mq1A0dO4B6Obm9qYszVXXx7Ybd6a8smV2+E6Ovr9e3pFRf/4NqNENxgcS0jd0EfRq+7HRPLbvKStePyYgHB1ZGSml6FvywsC0/39v16dRf0EO4B2X//WI8wLmcIczdD/DqIb6RKLzdowF0OzYH7J34WB/bvDc2PExLFP0msYOxbskG5n4wPhgzY8/eRBbOn6+rowNf3w6r/eXl2wvNKvgYKEwEiQASqIYEaMdcOw3QYHr/+uQG/JZgax6ZkYDVF/P0HzZrawBrBGAgDO8Tj5+F/aze7tXRe+d1CDD1hiqDNtuzcH30n7uMPx0z/+ENTY6P8/PzU1DTEw6wyMmrs6GAHuwK2gWE9g/MXryAeAxSMCB3sbRFmHzwFHD5kwPeL5+G5PoYR14NCXpyR/b94OeDEaZ+BfXvOnzmtpVMLDEowVi4tK8Op4pIShFGwPQeP1q9n8OvKb2FfwWwbOrA/fuxbt3JG1k2treIfPNy+92CPbp3nzfjs/sPHO/fJbJ709Iy4e/fxe48KYpQDvxP8XfNmTrt3/2FE5MtZK9aWFr28u0B+2scTMeyTJABVsCRtrCzHjhyKZV1wkpSVl306eRxqvWv/YX09vS+nTYFv7dCx09CDs6lpTxEAYYyo9PV0UUgU9cDhE6iIZFEhzD5Q/vuajajgonkzMLKHXYHRNkbwmLzXxtV5yVczGzSoL4NTWubYvNmZ835lFZTOXbhsZdGEM5AwAEJlZ03/eMU383t5e0Izhsi+fgEfTRgFEwJtCov0RYa1BNVn8RiQeXftvHDOfx4+fnI9SLbSrKt7B2BEr9DT0z159oJkKpa2qLg4KDgMQ08M1jGmgZWLeKXQYHpNmTj652VffzRxNGwGDLPat2kFbvhr1LAhJnaaGDWWrAWaBrMu7W1tUVp4rs5U9FhWEslvVpLI6Dswbh3tm8Ggmvn5x6uWfe3evs2+A0fRQJKtJuh+fM0CDRgGjf5gMASgH4XH+BVWx82QcPTtyeNHYVCLhRZccjTff1evw9h3zhefjB85FMICbfLKw2lg1Xn2rBy1gAG2Y98hDGoFdZTkhgcWyWlp40YMnTJx1Lnzl9glKS4qaMA2RnZjhg+BX47li56p4GKvdJEE9xlcp3sOHBk3Ysi3C2YGhYSHhkeiePfiH/64dNHC2dOdHR3E/ZzDIriloEjiy4qVU8GFzG4geKaAmwa6MdoO+sUdlelJS3s6evjgMSPevxESlpCYpODyhBLB1YQYyW68Y/eBB4+ezJz+8ZQJo7mHGlwdYQvhGcS4ke9j8G1i3JjFS95e2K3e2sriq1mfa2po7Np3GD8HX8+bAZsTtwUkFPc67iYvWTuuDCwguDpYdlX1y4KLSEtL62lGFvIS9BCuGI72tmcv+DHvPe6KNlYWmDgtbnFVLjemE7+Y7GdxTcXPouRPEpc7ApINyv1kNG9mi8dbeFIGSdjqj54k4EkKPzmFiQARIALVk0CNsJHU1NTwS4NRlIGu7rotO1f++idrDIwp4WfA8/V+vbvjmSUeB8J1gF8a+EvO+vrBSsHwCD94d+/Fv9e3J35HTUyMMOLnGhLDhbraWhgUwv2C797dvTD0hHxQaDg043kqJ4nn7o0bNQwLj4yKiYFtk5aewZ1CwC/gGh6qwYqADHvYzz/Lwq1dnELDozBMKSsvRV4QQxYGerrIGqMHPH3Hk9R2bq5NzEzwRBwPQdlKGAtzM4fmdhBu1KghHks3a2qNh6ZImJ37crU9HAgwPJALzD/USEyAFQCeqIH9enJPLtu2dkVpmdOsU/s2SAibME+0iF9bS8vTvQPOtnRyBFgMeeUVleXCch/QtydMgkH9esFgi46JhZMBZ/v06IaxqYPdc8uzi0cHnA2PioYdgh/d7jzvhKlxY+S7bssu2MMwt5AWPjo4oNCCze1sO7RrfYVnIwmqz4oBnxuEgRTGM5wGiMSTbKyIwNw5PR0dWICSqVjamxU2laVFE4z4MZK+eCWQxeNbATQg0lDXCLh6E15KSD7NyNDTlTUugMCSnzPjU9RdXi0w+EPnQVHtm9lk8iwQLl9xYNSwwegthob10GGycrJlQNRq4RJAC0FY3GqC7sdXKNCgpq6GywQCDRvWR/lhuLIn/ejkaCx4ye7cjeOSs+aGh8TM1ATEYCwJtMkrD6eBBdq5tUZv9O7ijr4dHBbOIrk6yuPm7Ngc2bVwaO7UojlcDUglWVTQgFMUU2r53jMFF3vliiS+z+BKgb8o+FbkxStX0Zdux9y1b2aL6xruayziR4cR93OWNb4FtxTJy4oJK+iTEMANBJcMbhpenh1lSsrKxB2V6fF072hmYtLKuQUOMZtZweUpU/vPq4lpEHdj3E7dO7bFMyD0bTwEYWLcd/jtGLh53Vxb4hkNxvQsXt7tBR0Dt3rowXWNbu/q4oSwtZV5do7MYpfsdVxGCAhqhxvsvkPH2B8e2YivDpZdlfyy4CJC66MM4h7ClRD3WNwM8esCR/+ThEQ8LJNscRUvN3HhuYzkBSQblPvJgD/Z06MDM0fh74WBiiaQp4riiQARIALVh0CNmGvHcOPXEX/tI25j9hpG1fw2UFdTwyHGc5idhQAmNbFvjFPx24MwpgnhW/HHxckB8levB98MvdXVowN/ZgimPWCbB2ztYGigD5+AQA9iNDWVNESv7l2b2lj5XvLHthOTxo3AAJevBBowmYrFsHyflSvaVE1WWzkfMQE5gsJodTV1dQ35lF5kqbiopWUy/hhJ45tpQ3lKS2SRSFi37kv9QN3G1QUul6bWlhhGYBjHFUhHR+f7xXNhbxw95XP8zPnlS+YjLVc2PEiGSk5YcQDWNQQwBWve18vw047xIsZ/ipP4XPKHwLKffsc3Cg+zChPn5CXhoJ04cx5Pgnt28ywpfdk9MG3m4LFT82Z8CosRGpTWgpVWXl6S8X+s3wojs3PHtlmSxtWLVhN0vyamsguEfZRokPnQymDgsWtqwpgPMNB/kbQWfG4Iq2u8fFKjRNuL8nAaBAH0HJiagkil3HD5swtQXNSbIWECbexQwcUukFexSOL7DDoPBpfcvQgWu7mZKVypVwKu/bl+W/u2rTHJVtDPuQ6AKvNvKZKXlaCc3CHXJ7kYBBApO1RTk+yoLyVfNJCCy1Pp1cTVAk9V2J2Z6eeHEYOrWBCDhKj4q90JKy5wJb2Oq96L2uGXAoYEi0amgquDE0eAlfA1f1mYQnEP4TKS0W7l4hdwFbdB/MFYfZKQhLOCG+mrXm5c4cvLFG3no7RBURLM9oQ7F57P0FuRn00Zz5WcAkSACBCB6kzg5eikOpfyNcuGR31w8WN0i0dxEbdlD7MN68meY+FXBz4KOAow/wqeATzJxtIFxGNTh1bOTk6OzTG7pr6hIUYnEMAcHiTPy5e734Psx9K7C8YQ8EcJVurjuSN+U4cO7Odgb4ffS0F1MB0u4NpNzBTHJL3MzCwdbdmKqXvxD5AdplEx4eSUNEvzJpMnjMJPILYUQ6SOTl3sLITfJwwL4MnBrDBWxwt+/ljDg6n2glwUHNbV1sbZhKRkVE9MQEHCSpySLCrsFrQF6tKy4jk0VjRh5zQsEkBLubRwwGxGZLRl1z74hY7y9v/FJhNYq3DO9zKbK8gVBm2EySE9vbt8OHY4mh7TPLBe5er1IDBMTEq+djMUS7Y4YQT41efHc2GQwXDt/UF927q1BHYWL5kK+pOSU2b9Z+qq5Yvx98M385EwKFT5ln0RsvlyNv16eVuamzP9mKa4aftejIMbN26EGuERvuJacKVVPYCyASD6apfOnTCjT0FCQfdjfTgrOxulEmtAa0JVQmIKuhPm/KB7JyaloN/CVYra1a798nEA62wnz1zAtYn9xNEHxNoUlIo7FXorAivErgRchyvMzfWl/5YJyOOGVWewD/H8IjI6tn2b1hBWUFSmCpY2MkKtFVzsTPJViyS+z3Rs2xrTVhEPbna2TXV16qK08GMPGzwAswrhExD3c5Y1qwj/liJ5WXHCCgKPHidgbjBmfvpeDnRt6YTrUdxR5SWXd3lKXk2SSnBFYKEjnmfhXQKYdMecipwknlngFJyTMO+xehDxcFNL3l64JJIB1a8CLjmelQwZ0If91TPQF1wdEKvaXxaWr7iHcOVBoKe3J2Y9YI5x7+6yidOSLa7i5SYuvORPEnfTVqVB4X4ENMxjh2vUsbk97gzYJQgTGvlVoDARIAJEoLoReDleqW4lq8LyYPi1dtMONv0MN2sMnbkpcz6XrsTevYff/knjRiJHzKvBjLJ9B4/hD4f4xcUgdeTQgWs2bFuyfBVi4MMRFIxv82A0hgf/mImOXPhimErn53/t89mLoF+8Q5F3V49bUdE//fYXkmBtLib2YNoJ5gTi0MnBXqZHrRZeH4Qpfwhi+taknrIyYMn21p37Zy38DstsWrd0xlygX/5Yj3gYYzM+m4yAos+LB6JMBq4YzFpZ/vNqzD9ZtniemMA/VP0zLU5hvPgPgRcHauzZc8WhGupQ8YErT1xU/Gpi9AnCP32/CNsPHjhyEnu1Q3zksIFwiwHmtCkT8XaUv4+cwFR7xDO3HmxaeJCwNqydWyumnH0/ePT4r4078EuPZgUlzOvw6twRDoFvfpC1oLFR486d2vPlBdXnn2Jh2JzY6AIePBzCYGYtLpkKK51gbGPhFkuIWZEYyWGSycSxHwjUCqD16eGF5enoIagRig3hy/7X8I23b7GE6HiKawExgU6WUPjNaytkhIHs/kPH8IcuxyQlW03Q/cAQf//937rlS+aJNaDJsCYb80Lx98OS+dgRISgs/NsVv0A/4GCdGL5ZXrgcWHOfvXAJ/Rb7oIi1SZZHUClYO0dPnsVg17uLB3oLxtR8AXncsAbm+x9/g1mFusMniSTiovJzhwBmbB475dOwQQPMjZV3sbOsK1EkwX0Gs8hw+cP/DIVoqdHDh+A+dvz0eYRxsUwYNVTcz1nW+BbfUsSX1Ysrkksk0X+wYmfTjr3YMAaeigETRkNU3FH5erjLHJLyLk/Jq+llIXjdeNyoYT/9tgb3JVQZKz/5d1rIY08O7FuDdaQI42JkGiRvL/xGFN+rJK+Cl+XhXS/82r0UqCW8OWOKIM5W4S8Ld10Legh/NoGVpQUuSRjVri2dkTt+ZsQtjgtTlcsNZgw2dIneeBdk2M8iZs+Kf5K4m/aPSxeKb498PiyMXT1W/7V5cA8vVAebQOBtE5iMx7bkEQtTDBEgAkSgWhDAhGwFf+kZGSHhsk0O3oEPHgBnZGRyFcHS/RnzluAQz7TwYJiLRwDDazwaxFwOfiQoYYUSP0Ychp/pkxnzw8KjxKcQk5GZhcfqkqcQiafCGK5xZ7EiBW4l7hABHPLLjxgUm19IaMB8dAVZ8LWJw/C9cJGSBLizrx8QFxV1wYdpRu5s5b04I+zhPvfrZVw8Rt57DhzmDvkBAOTDwSn4lPDHl+GH+dXnx3NhPK4WKMQppam45EoDUI4+plRMcS2UJhcLyDpe4cuOJxZgMeLux9GQ1ICz/K4oc+hlS9cO7c4/JalNXqmw+gJXHK5WFE9wvQiSCLhNm7kAm1WihLhmxZL88gjOvqy1nIu90kViGQnuM4IrBawE17i4n3MFlpHk3VIUXFZcEn5g9V+b/tq0HTG5uf9ApGJHRUIFl6fk1cTPnQsjd+7OwEVyAexZKr4GBdA4YQWBV+p1Yj38q+NN/LLwcxT0EP4pQViyxVW83MQ/i+KfJKjCh2WqtEEjo2NwqeJXmMnze6ag2HRIBIgAEXibBGDmwNjBrVX8VyP8SMwYxaNQSauUmz3FncVUfqOKTZO5GASwMph/KA6fv3QF+8niYR7WKojPIgYuIMl4Fsk9XGeHmFkhEMbihDp1ZFMEuY/gwSo0CJRwkqoEuBn2EJYkoIoSFWXEReXXBbk3bvSPqV/YqdnKwjy/IB9zIwf3741cMK/9ZnAYdifDbhySmYoBYlaMpCSL5FdfUsxAX6IDKE0lqUoyEk95lfYxJFRcC0nNiiNV7DPi7ocCM82SGrizTEZBsdH0fLaS2hRXAWdRPMUykgXAI22sXhMklJTkZFi9lF7slS6SoA8IrhSwEvioxf2cK6qApPiy4iQVBwQTd1XpqEovT36Lv1LuAmG4IgUxOBRAEwuIYwSsxAKKY8RXB+Sr6pdFkLWghwjO8g8lW1zFy01ceHFP49+0FTQoDMiTZ89jQxSsyOV+hfk7oPDLTGEiQASIQPUhoPHVggUKSoPnrHg+ZGIk26jqHftgXUTjxg3Z3K0qqdrduPh6hgYjh76HuQpVopCUcARMTY0LCwt0dXXHjhjKZtUnp6Rl5+ZgR3VMTuPEKFDTCGCUhl2/7G2bvqqxWkdLlkrBwE4xSQUXe6WLpDjHt38Ws4KxBhIPfSqRdU2+PKv8l6US/KtVEvia4ETCEinsBil4dFKtykmFIQJEoGYSwNr+egYGmF0srr4aXEviWC4GeythMwBXZycuhgJEgAgQASJABIgAESACRIAIEIF/O4HQiEg8EOT2ROVXR8Js4p+mMBEgAkSACBABIkAEiAARIAJEoEYRIBupRjU3VZYIEAEiQASIABEgAkSACBABJQTIRlICiE4TASJABIgAESACRIAIEAEiUKMIkI1Uo5qbKksEiAARIAJEgAgQASJABIiAEgJkIykBRKeJABEgAkSACBABIkAEiAARqFEEyEaqUc1NlSUCRIAIEAEiQASIABEgAkRACQGykZQAotNEgAgQASJABIgAESACRIAI1CgCZCPVqOamyhIBIkAEiAARIAJEgAgQASKghADZSEoA0WkiQASIABEgAkSACBABIkAEahQBspFqVHNTZYkAESACRIAIEAEiQASIABFQQoBsJCWA6DQRIAJEgAgQASJABIgAESACNYoA2Ug1qrmpskSACBABIkAEiAARIAJEgAgoIUA2khJAdJoIEAEiQASIABEgAkSACBCBGkWAbKQa1dxUWSJABIgAESACRIAIEAEiQASUECAbSQkgOk0EiAARIAJEgAgQASJABIhAjSJANlKNam6qLBEgAkSACBABIkAEiAARIAJKCJCNpAQQnSYCRIAIEAEiQASIABEgAkSgRhEgG6lGNTdVlggQASJABIgAESACRIAIEAElBMhGUgKIThMBIkAEiAARIAJEgAgQASJQowiQjVSjmpsqSwSIABEgAkSACBABIkAEiIASAmQjKQFEp4kAESACRIAIEAEiQASIABGoUQQ0q1tt4+7d9/MPvBVxOzE5pay0TLJ4GpoapsZGLZ0du3h0sm1qLSlDkUSACBABIkAEiAARIAJEgAgQgUoQqF420ubtu0+euaC0GrCdHj9JxB+E+/X2/nDcKKVJSODtE/jJJ37u6Th+vs9+7oFDtdk+/EiEWbwgkg6JABEgAkSACBABIkAEiMD/C4FqZCOtWLU6KOQWKAwd3K9Tu7bm5mYIP36cEHjj5oHDJ+XRgZmUnJI2f9Z0eQJvLj4vL7+svMxAX//NZfGv1iwwkP7VdaHCEwEiQASIABEgAkSACNQcAtXFRoIHCQaSqanRrM8/sbKy4BoAYfx1aOv26x/rEhJTuHh+AAmRXLE3acy4SYkJiUilp6/br2/v3r162thY4/B1PqPGjH/06HFI0FUoefz4ybNnzywszFVUuOLcvZPR6X7T26ko/+8VE/uIEJOeVzxkU9jlB1n/3npRyYkAESACRIAIEAEiQATeVQLVYs8GrEFiU+wEBhIH3cba6ovPppSVSS9PghiSQwknLw5ERUU1sTCbPfuLUSOH+wde7eTRLTb2rljslWKmfTp18aL5LMnPq35Z9d9fVU/+OKsoKDlPdfl3SZIzkDyt6r1L9aK6EAEiQASIABEgAkSACLwbBKqFHwmbNIAmptjxPUgCvk1trAf263HijK8gnjuEEsX7NzjY2/fr2wfybq1dz529EBl1286u2aFDR4JCQvv36/PnX+vatnH7Yvq0Bw8eLP/hx+s3guob1v/kk4+GfzD0y5lz6tevv/jrBSyvnTv3+Fy4sGHdGmgoKCjo3iNnxYqfTp0+h7PJyeOdnZ1MTU18L/ltWPunlpYWIoOCQ37++Zfvvl2M7JgGBd/nY9J/uHA/8ElOG2Pdn96z62Bt+OxZra+OxRyPSY/PKjbXqzPL0/xjD0tomHskxtFY91l5re0hSfO9rZ7mlVyJzxzQovFq/0fBiXn97Oov6dPUqoEOP6/dNxN872b0sG+wJvDJ9cTcMc6N53hb/+b38FhMelND7cU9bbrZN4R8blHZ92fuHopKLywr72fXYGm/Zo306hSVlg/cEDK3m7VvbPqFe5n7xrsYaNf+7nTcsWiZ2OiWjZf0baatqcHPTjLMN5AOTWrVaImfpBhFEgEiQASIABEgAkSACBCB/y8C1cKPhF3sUH+sQVJMwdOjU36BXN8LU6JAQ2nFJzExaeu2HRBr7doS3wmJSRs2bBny/sgnjxLqGxpiiVGvPgNjY+/NmvlFy5ZO//lidlpaupWV5Z9r1mdmZjLla9dv0NfT19DQuH07+mZQMCJhQeHb2Lixm1trGxtrOzs72GCwspj88eMng0PCbGxs2KGC76CHWT3WhxhoafxvQLPSZ88m74+CcPmzZ9GpBUOdGv8xoJmTkc7UQ3eSsosQH5yQO+nv6MkHozXU1erW1niUWfTntYRhuyNbGOlOaWuyOThpx03Z3EL+BzLrbybOORXnbWs43LEhwvY/BiZkF33pbn47rWDuieeOtUm7wlf6PXK30B/s2Oiv6wk91waXlT9DMc7CvlofsuziQxO9OrU11CfuilhzM/GjtqYftTFZcenRhZh0fl6SYYGB1FC3jqQYRRIBIkAEiAARIAJEgAgQgf9HAtXCj4RtvoGAbdKggAVslaLCQp26upIyTInkKRa55q8N+GPhaZ99bGVlxQlf8DnZooUjDg8cPJSVlX386AH4fD4Y9v6evQeu+AcM6N9vxcr/+gcE9u/XFzP07tyJ++6bxVxa7NkwZ/aXZ33OOzk6IID40tKyevUMzpw569nZHfMDd+3eN+nD8Zoq+FjW+D/S0dbcP7EVzB4XU712q2/eT8+3bqhzeLIry867ecNDUWl+d58OdzNFjKup3vHJrk0MtRG+el+2tif9G0/mzDkUleobl7mQJfvnd/wCD3U1NZgrW0KSV/axndtDZrzlFpd9fS4eHqTk7KL9kWnfdLeGXwjxrmZ6sMQC4zPbWBrg8JP2ZisH2htoa8am5KEkm4c5TOwoW4IV9CT3WGRaPycjhOV9JA0k8WoleckpnggQASJABIgAESACRIAIvB0C1cJGUr2qZaUlqgsLJAcN7Ddx4vjSktLLV/x/X73GzMx08qSJTIYZSAjHxcXj+8DBwywepg6MosGD3nNzcz116ixspIuX/BDp7t6RCUh+wxz6eMqkdes3fbNkUWTkbRhdAwcOkJQURIYl5TWqq7nkZCzi80vK8X03VWYjFZaWXbmbEfYkx9hANnmvuOwZS2hTX5sZSOwQ39xsN4dGOim50qxgIEGyvk5tfMtCFR9jfZlLB/6i+PR8BNxtDFl8O0vZkqHY1DxmIzmZ6MJAQsz9pwX49ruXeTdNJv8kuwh/CMj7SBpI8oQpnggQASJABIgAESACRIAI/D8SqBZz7fBCWCDANt+KQTx48FCBAFOiQMDS0rJTxw6enh4LvprbtYsHm3EnkC8sLEQM5tHVrvjA1Onc2R0xY8eM/PvAYaw+OnT42Phxo+vUUTJJbOB7/WEaBQWFXPD1beHo4OjQXJCR5GFBxTtzMY0Nf/W0NeHMsTPSKSgps14WMGhHRNCTnC0V0+ewgZ5k8iqJzC+WbYyhX2EIcYHCEuFuGQUVYupqtVhpBzg0/Nxd5lCS99l89Ql2scMmDViDxJ9ih3cliV+XJE8JxRMBIkAEiAARIAJEgAgQgbdAoFr4kVo6O+KFsHgPkoI9G8DC77K/hqbM+yH5gRLJeMlIzdp1MGVObGyYmzeB/LChQ2xsrBHgPtgrvFat+Xv3/R0cHLryh6VcPD+AKXbcIabqwfV05uw5n/MXPpw4notXHLBvqBPwKGdRb1vMteMk9wYnJucUBX/RrrVFPTiU6s73VatwBHECVRuwqC+buRf8KKujtcyVFPo4G98W9esKcmH+K69mDca2k73GSulndncbWHaTOjXhG0hKU5EAESACRIAIEAEiQASIABF4+wSqhY3UxaMTNu/Gi2LxHiRs8y1JIe5e/NZde3X15L6wFUokE3KRjx4/DgsLLy0rDQy8dv687zdLFoiNDa+uXSCPfe0+mvwhJuPdiY01MzODF6hhwwaYqjf/q8X29rbYuY7TyQUcmzfHFL6Q0FBNDU0XF2fEjxs76suZ8xDA65g4MX4gv7D07O1ULsa2ke5QFyMs8sFcu1FtTDXU1CISc73sGhjpyXxWsan5JgZau4OSOPk3FHAxM7BvpIM9G5rU09ato/HNuXgskfK0bSDIztlM37K+9oqL9/XqqLexrBefDsdSeY/mjQRi/MM5FQuf+DEUJgJEgAgQASJABIgAESAC1ZBAtbCRsGd3v97eMJN++WPdjM+mYJtvASkYSN8sW6mpWVvehg1Irnjjbyg8fPg4/hDARLtVP/0wZMhAhNV5HhscNm1q89ea3z/59D/Hjp/CISyiZd9/hwA+w4a9f+ToybFjRnGWFT/tuLGjQ8PC+vYb0r17t53bN0G+wvU0r2cvb2Nj4woFEl+9N4Zxsb+/Z/dpZ8vIpFxsHIc/xHeyNOhkY9ilWYOhTo1G7IpEzJS2sq0axO4vRP6zHoiQ+IhlBDFYqqSpoXZwgsuIHeGDt4VDhbG+1rlJrerV1YQLi69RS1P98HiXkTsjh2yPQDzsqO+7Wyu2kfjJKUwEiAARIAJEgAgQASJABKotAbXsnBwFhSspLX34+ImrlOdEQarKnVqxanVQyC1sBIf3IGGbb+xiBz1Yg4QpdvAgwUAyMDDESiGx8jatW86fNV0cX+kYlAFbhOvp6RoaPt+6QBVVMF2wnKlu3efT0lJSU1u2ar9xw5/Y6UGV5JwMFiAlZBaZ1tPSqfOystjzAPsx6Gq9jOHk30QA8+KwwV1JeTnm1LE9HiRzgVhKblFxabl4Mh7kVV9oRLvbSeKlSCJABIgAESACRIAIEIE3RyA0ItLSvEltTQmnUTWykVD/zdt3w5uEAN6DhG2+2S52WIOkpa2twIP04bhRb45dJTRnZWXdi49fu27jtWs3Aq74clZTJVT9q5P85BM/93Sc0ir82MeWpuEppUQCRIAIEAEiQASIABEgAlVL4F9jI6Hacffu+/kH4oWweN9R2T/nd3FQNDQ1sIsdNmnAGiSlU+y4VG8tEBoa1qffYMzT+2nlDx06tHtr+VJGRIAIEAEiQASIABEgAkSACKhIQIGNJOFaUlHpGxKDzVMNzZ5Xqqyra6snj+5KTgt8JT0kTASIABEgAkSACBABIkAEiMDbJ1At3o/09qv9pnMkA+lNEyb9RIAIEAEiQASIABEgAkTgDREgG+kNgSW1RIAIEAEiQASIABEgAkSACPwrCZCN9K9sNio0ESACRIAIEAEiQASIABEgAm+IANlIbwgsqSUCRIAIEAEiQASIABEgAkTgX0mAbKR/ZbNRoYkAESACRIAIEAEiQASIABF4QwRqnI2UlZ1TVFzMaG7avudOXPwbIqu62soVo3KpVC9VVUmeu+B38UqAYm0ZmZl/rN+Sm5enWEzp2fLy8ug7d/EKYKWS77DAK8G8/+Dh62P/f4SJFzfzc8ehIIZ/VvUwd3FF3o7ZsfegICF3VhBPh2+ZAO7kuG8kJae85XwpOyJABIgAEagJBGqKjYRx85ETZz6ftXD+kuUz5i1ZtXodWjc4NDy5Gvy+qliMoqLiU+cuwAxg/VLFVPI6cWJScuCNYHlnqzA+JjYuJvaeYoUFBYURUTH5+YWKxZSeffwk8bc1G2Ni70ISo1sVDWDVJZUWoBICVd4QSmFeDriW/jQDRYU58fPva8/4XKxEsV8pSaXrqLhpwsKjPpu54Nipc1xhZn71beD1IO5QEFC9GNzFlZSSGhRyS6CHOyuIp8MqIaC40flZ4K6O+wYee/EjKUwEiAARIAJEoEoI1BQbaf/h43BoDBvSf8n8LxfPmzGof68qwfc2laSlPz168lyVPCZHsSOjY8+ev/Q2y/8W8rIwN5s347Pmds2Q1/lL/uERUapkqrqkKtpeVebtN8TeA0eTU1NRTjU1tQVzpvft6f2qZX5V+UrXUZWmOXn2AowfVYpU6WKoopxkqoqAKo1eVXmRHiJABIgAESAC8ghofLVggbxziIfXAk/pTIyMFMhU/1P5+fnrtux6f2A/7y4eenq6+np6DeobotgYXalrqAeFhG3ZsS8s4rZryxZadeqkpKYdOXlm/dbdtyJva2pomDcxhaRk5N+Hj2/ctufEmfMpqemuLi3y8wvOXri0fssuXz9/jD+bWltyZOC2ys3NwbtxYecs/fHXBoaGpibGd+/dX7V6baf2bWC8iYuBB9iHj5/ZsG136K3Ihg3qpaY/xQyfgsLCgGs3I2/f6djOTbLwglSNGzXa/ffhqOiY8xf9Id+tizsrElwHp85eyMzK9r96o6ioyL5Z04CrN3bsPQRLMjsnx9TYSKduXa7wObm5K3/5c/+hY8dO+2AmWxvXlpqaGt+t/DU9/emRU2cPHDmJGS82lhbyIq8HheJtUcjiu5W/mJkYN27UEJr3HjwSEhbZyrkFywVZ+PlfKy4u3rXv8MXLAVq161haNMEp5JKbl7vnwNEHjx7b2doI8P73j/Xwh0AzJG8Eh27YuruVi+Pvf21ycXLYvvdAdEzsw8cJfv5X69erhwk58rJes3EbJ9nE1ATFk4ciOydXsgpieThqDh07jTZCwS5dCTxy4izC126GHD5+Go0Oziihnq4uzgoaIiMziy+zc9+hbbv/Pnry7NUbwXbNbOoZ6EPJ34dPPM3I3A4oJ89qadWxsbJ48PDxX5u2QxhiNtYW6LSA2c3TXVdXZ+3mHXwNyPGX/61Hu0dExoCze/u26Ofa2toWTUwlezjjf+ly4OYde7kLBErYJ7+g4JzvZWC/cOlKWWmZRRMz9IEtO/c9epLQ3M4WMuixCUlJ8fcf8jubYT2D5atWwymKs75+Adp1ZG39OCHxh1X/69SuTZ06tR8+erLilz9QNnR+QdO8yPn5/+SU1Jsht3ChwSPaxaMDTD7wdHK0h6ksro4ANes2UCTZvXGxOLdobmVhHv/g4Z279/r08OJnzZ2FjxSXMC6B0+d8s3NznVs4IF/UDhzQTLv2HUpKTm3dyhlpQ8Mi1m3dhSbLzc1F27VxdUHXFVe5sKhIfK2B5469B7bt2p+annHm/EXdunVNTYzEVzogrN20/eDRk6HhUe3btEYZWJnFhUS84iuLqyzuaeu27ETWvpcDtbRqW1taLFr6o7FRI6PGjSCz8LuVuKzw1EbcoCwL8S1C3C6CwgRcv8lv9EYNG/gH3ti258DfR05gEqmDfTPcTHCx/2/tZjwwAsMniUm4uCDGlZkCRIAIEAEiQARUJ4Df03oGBhrqEk4jiSjV9f5bJFF/FLW5nWwwLfgUFhZ5d+28cM5/Hj5+gtE8zm7dtT8xKXX+zM+6uHdA+ElCkmRkXPwDPO+cNf3jFd/M7+XtCRnfy/43Q8Lnz5w2efyoA0dO8GeAWFmYYZABmbCIKIxQrwWFIHw9KERXR4dZI5LFgIG6fMm8Vi4ttu46gNFJL+8uSDXt44ljR7yPAD5KU0EmPT3D/2qQjZXl2JFDKxLJvjq2b+PSwqFhg/pffDrZ070jBoLb9x7s0a0znDD3Hz7GaJuTRKBOnTrDhwz4fvG8bxfMvv/gEYqNyJSU1OS0tHEjhk6ZOOrc+UsKIpkqA309DI7PX7yCQ4yPL16+6mAvG0bzPw3q15v9n6ndvTx37j+UnJKGU8gl8DqGv+1RNjFeR3vbsxf8yiomH5457wdrobz8GfCWlJYOHdhfX18Pw1NUECNXBVnzJZtaWylAIVkFSXkMuxOTnq+RgGXF1ktg2Q+MW1RqzPAh9Q3rsYoLGkIg09W9w6I5X6z8biEMe4zLkQQCGPLq6+miXqjdgcMnMELdc/Bo/XoGv678dvrUSWzwypTjW6BBT1dn9AeDET94QG9o0NbWSkpKycuVLQOT7Pbgf/feA68u7vwLhFN+8XIgjJyPJoyaOGb4aR8cXcepVDwGyMhiMilp6RmZ2YI6lpaWwsZ79qx85ucfo6137DuEcTPMYzRcacVCsuKSEoRRL0HTcPkKAihAWlq6j+9lfry4OoJicMKS3Zs7qziAK2jKxNE/L/v6o4mjL125imclrHZpaU9HDx88ZsT7N0LCEhKTYEyu3bKzjavzkq9mNmhQX1bT0jLJKksWBg9iUIxvF87u3KkdLsC8vHwcooL8+wOuAlgy3b06r/phyfjRw2rX1uRKLi4kTim+sri0uOjuxT/8cemihbOnOzs6IB6ti+owAbQjJnZKNijLQnyLELcLk+Quc0Gj37v/cM+BI+NGDPl2wcygkPDQ8EjcGTZt39u+jevSRXO4hyysPPRNBIgAESACRKAKCdQIGwlDZyDDM1ExOLdWznBQwKsDzxKGsxjd4le5f69uZiYm8PBgeHH1epBkpKlxY20tLbinQsIi2MD0SuANDDr9Aq6FR0XDHr1zN47LrkM7NwyMMLyAsKd7+8ioGIxv8JOPMJMRFwODIcy2x3N6DETg28GgCqMrCMPJg1KpmAo1giSerA/s19Pe1oalwjc8Enr6urVr1zYxNkIQSzhAoJ2baxMzkz7dvW7HxHLDIAjDtwbvSlg4Sh0DwwPjXqbH2bE55Fs4NHdq0Rz+DQWR7FTv7l6R0Xcwyg8KDUfWbq1cWDz33c6tNTLy7uKOsyG3wl+k6urV2R3NIcbr6d6hpKQExcKw/ElCIuwoTpVR44ZQYqCniwrC2aIga4GkYhRiPYrlufKwADrM6A+GtHR2BFIWI2gIRPJlLCyaPHj06PrNED0dndS0p5wSVBx9oKWTI0bGsCVauzjBdQCzvKy8FFY3E2PfAg14Bm9iIvMJN2xYH2TUXzw1kezhTIOgZ/KVwwnp3qENLh94jTq0a32lwkbiC7CwuI6I57d1cNjzthakFTSN4Cx3WN/Q8IP3Bxw6fhomCouUrI5kMSAvr3tz+hUE0Aoa6hoBV2/mV9gtTzOeXxp47oAey0bwObl5tyJuQ0mfHt1wrTlUeNjk6RQXBs4TuMvQ8ZCXrY0Ve9CFCgruDzCccPboibPnL15GTbmWRUbyCtm7u9wriyuefTNb3AqYPxB6uHhxQLJBBbcIyXZhqrjCCBod11fdunWDb0VevHIVd9fbMXdj78oWN/bv3QPVdGgum1VLHyJABIgAESACb4JAjbCRMDkE7IJChWuv+UAxUQeHmDKEbw3N509hNTU1i0tLJCPhAfp+8VyPDm2PnvLB/BMMVWHGYAxkbmaCvwljPsDwgtOPaUgG+pgoFQzv04A+PdU1NDAdC4MPzFvjZFiAXwwYDFAF99ekcSMwb0ogyT+sXCpOQ3FxSe0XVcYwGvHPKqxKJoDpYahgMh72Y1JdcQmXiguoq6kBFHfIAuJINsHs6vVgv4CrXT06sIwEqdghBoIYegpOifFiulqbVi7QhsE6CGNUKkjCHaqetWIUYj2K5bkCVCIAk37e18uu3QhB18I4W0KDrMPKPr26d501fWpebv7Slb9hGhKLxLdyDS9EJXv4i5PP/7M+xo9E3dGTWQwm+MGfwD+rYliyrVVMy4l1ce9oZWm+YesuFqNKdbi0Srs3JykOYJ7tqv+twwS5zOxs8dlaLxqotERGRvLaEaQSFwbdHjLwGPMlWQUF94cvp00ZOWzQrcjor5b8ANccJ6+kkLVqia8sLi0MYPi+MEP2z/XbMGmTi1cQkGxQdjd4pXZhWcAnjOmX7KYK56d3V4/SchnMiru1glLQKSJABIgAESACr0ugRthI+np6WACAx7141o7NjuGZwYQlSXKGhvUw2sa8ITyXjYq5gye4ndq5SUbm5efDYujp3eXDscPhI8rKyoYkZlghedvWrSzNzfnTXZAX5skcO+WDYQ3sKFfnFvsPHXdsboeZdvKKAcdOSkoa5t/D34JH/hh51NXWhnBCUjKbbCNOiHKKU4nFWAzm+GXDzQRdBQXwmGGqIdZd4PiCnz8eSPNNMriV4JMZOrCfg70d//l0VEwsPGMY1WEpPNY/MLXiSA0N9dzcfDh8MMjGdEGM2LB+xsvz+coofvFCb0XgSfOVgOsYdLq5Cr1Mknh7entiAhsmPfbuLpuIyP+ALeZYwk7A2FRx1nxJxSjEeiTloTA7JycrOwdDVbgl+aUSh/kNwT+Lhoab6P1Bfdu6tZTXT5h8ckqapXmTyRNGoe9hmy/WRlnZ2ViqIdYAYwapEhJT0PJwZjINkj2cXxjJsEfHdvCyIndsmXDtZqhHx7YQQ1Ex/xDM791/gHmeLKG4joK21tGWXQj34h9UzDaM4bLjN01w6C2szeNO8QNolykTRmPdDnoO4uVVR1wMCEt2b9h+6Ipw5AIXuq7ABc2djbgdA/dsv17euN755RGEHR3sELNl1z64kY++2IVPssriwlTcMfSxGgfLJrFAEQ0KVeIrHZGY5djWrdWMzz6CDL/XKS2k5JXFqoALHBM7hw0egFmR4ZHRiMStIDYuHu3LnGNMDN+CBmXxgruBvHbhlLAAv9E7tm2N2zVchbip2tk21dWpa9e0KcTOnL+EmxXWyHFpsd6MzYvmYihABIgAESACROB1CAgf/7+OruqcdtyoYfjpxfIJn4olMRh5fLdwtmSBhw0ZgAXBsxctxVlYVtZWlgiII2FB/bVxB8ZPsF66d/XAzz+WbQSFhX+74hfIYzSGpUr45rLo0Fa2ywJbwI3NIbBQoXPHdtxZcWDY4H7QDzGcwjzAZYvnYW16EzPT5T+vZofiJIgRp5IUQySGU1hBMWfR95jvN3LoIEwA++WP9YjHGGjGZ5P5qdw7tMUeAJ/PXoRpYFgvwZ3CCPj7H3/DqNTaygKgWLw4EisHNmzbg2UnH44ZjlH1wWOnmjW1Ec7bqXjiDqsAj8AxwsPWGkKBWrUk8VpZWhgbNcYoyrWlbGU8+2DEjAAaZevO/bMWfof1KvDXyc36n5KtWzorQAG1Aj140C6Wb93S5cjxs9hlHn0D/g1mtKipST+P4DeEibHx8zrUqgVLFWnhGkIMTF+xErUXfgq8wOfuPdlrvrDsalLPEQCCv//+bx36jFgD3Hdenp3wsAB/PyyZL8uuAr64h8tOKfx4de54MyTsmx9WQQo5du4kmzja1aPTXxu3fTFvMbx86C/q6jLt/Dp6de6EGIyesYEBv63Ri7A9AE45Odjjm5WK34hnfC5paGq4tnSSna34sIZmYXSYoYP6o1IspWR1+MXApEeWULJ7Yw4hnmg0bNDAsbk9LKIly1f99P0iJo9v7iz2ctiwZRcuDfYUQyZQAZNJcg2Esk2bMhF7lMPUwao5nMWGCrgFiassWRg4CfcdPLrv0AlsI4G0GhVrjQRX+lezPpdtDFPxhjHcKNq5tWJlwLdEIblzFQHJK4uJXL0RdPz0eXRjQJgwSragEUuesEHF5YDr6Fq4V3BNIG5QCIvvBpLtwvLivvmNjusa/QEbY+AsijF6+BAgGjKgNzZswNMWPBpgqeDhPnziTGlZKWb/cnooQASIABEgAkTgtQjggbeCv/SMjJDwCMz2eTc+eHAOnw/8P4qrg+fHWOKCh8d8MclIrEDAFCO+mMynlJ3Dj6l0mOWIaTZ8DSoWXpCKr4Efho3HHcIzhloDERfDD2DLNf6paTMXYMs4xOTl5XFikpE4yyGC8Ccz5uO1NlwSQQDbOeBPEMk/fCW8AKhi1nxJZKcAhWQVxPIgA5jYhIBfeAVhfkPwxdCXuCrw4wVhQMuQbYTw8sOlktSAs/zWZMkke/hLjXJCaBH88U+ii+K64MewMKsjVo6hD8D7JG5rpBK3Ptc0KDM+YrXyYuRVRxK1oHtDJ5cX9OAjyIU7iwDun4KzCg6x4f7cr5dxApJVFheGycMBC3QcbZQKfYx/pcP3xb8euVxUKaS8K4vlwu8tyAXZcMrlNai8uwFTKLi7ctpYADIcYcSIry+cFdQUD2sESuiQCBABIkAEiIBSAjBzYOxImkI1xY/E7Eg89cRKX6U2JR6biv0YkpGYBCLQpop+QRJ5h5I54tmtPHkWL4zsJJYAAEAASURBVJlKXhL+OiJ4vfiOL0ES+CgEMTgET6zLEsSLI9nSo/OXrmB1DRwOWNUjSMIdYu0BF5YMvBJeoGBKlGbNSTJ5eSjk6RHLA4K4C0nWiEXyG4IvhpmZ/EN5YXCrU6ce/yy33EtSA3eWn+SVeg6XUNwi6KLi6wLygjqK21oyFdc0kmXmiiEOyKuOoBgsobh7c9lxBeBnwZ1FAFN5+ackw9hrGzuJ5xfkY4ra4P69ORnJKgsKs3XX34VFhZhqi43O4YPlgIsryDaU55RzAVUKyanlUrGA6rmIGxQaxHcDsUJBjjgUMBdfX6iR4M7D7YMi1kYxRIAIEAEiQAQqQaBGvB+pElwoiWICdbS07G2bCsbfkpGcnrtx8fUMDUYOfQ8bVXGRbydQVVlXlZ63U+vqmQuGv9igDJ1HqbVfPctfuVKZmhoXFhbo6uqOHTEUu/m/khK8tOtZrWd4j9mQAX369/aG1fFKyd+0sLwGVXw3eNOlIv1EgAgQASJABFQhgLXr8t6PpAbvkgIV2FYIq/ldnV+uAVAgTKeIABEgAkSACBABIkAEiAARIAL/CgKhEZFY3cpt78wvs/Q6cr4EhYkAESACRIAIEAEiQASIABEgAjWHANlINaetqaZEgAgQASJABIgAESACRIAIKCdANpJyRiRBBIgAESACRIAIEAEiQASIQM0hQDZSzWlrqikRIAJEgAgQASJABIgAESACygmQjaScEUkQASJABIgAESACRIAIEAEiUHMIkI1Uc9qaakoEiAARIAJEgAgQASJABIiAcgJkIylnRBJEgAgQASJABIgAESACRIAI1BwCZCPVnLammhIBIkAEiAARIAJEgAgQASKgnADZSMoZkQQRIAJEgAgQASJABIgAESACNYcA2Ug1p62ppkSACBABIkAEiAARIAJEgAgoJ0A2knJGJEEEiAARIAJEgAgQASJABIhAzSFANlLNaWuqKREgAkSACBABIkAEiAARIALKCZCNpJwRSRABIkAEiAARIAJEgAgQASJQcwiQjVRz2ppqSgSIABEgAkSACBABIkAEiIByAmQjKWdEEkSACBABIkAEiAARIAJEgAjUHAJkI9WctqaaEgEiQASIABEgAkSACBABIqCcANlIyhmRBBEgAkSACBABIkAEiAARIAI1hwDZSDWnrammRIAIEAEiQASIABEgAkSACCgnQDaSckYkQQSIABEgAkSACBABIkAEiEDNIUA2Us1pa6opESACRIAIEAEiQASIABEgAsoJkI2knBFJEAEiQASIABEgAkSACBABIlBzCGhWt6rG3bvv5x94K+J2YnJKWWmZZPE0NDVMjY1aOjt28ehk29RaUoYiiQARIAJEgAgQASJABIgAESAClSBQvWykzdt3nzxzQWk1YDs9fpKIPwj36+394bhRSpOQQPUn8JNP/NzTcfxyPvu5Bw7VZvvwIxFm8YJIOiQCRIAIEAEiQASIABEgAlVCoBrZSCtWrQ4KuYVaDR3cr1O7tubmZgg/fpwQeOPmgcMn5dUWZlJyStr8WdPlCfz/xt+8GRQcEvrxlMkoRl5efll5mYG+/v9vkapt7gIDqdqWkwpGBIgAESACRIAIEAEi8G4TqC42EjxIMJDMTI1mfv6JlZUFBx1h/HVo6/brH+sSElO4eH4ACZFcsTdpzLhJiQmJ/FQ+506oq7/x5VjXrt9c+v0KZiONGjP+0aPHIUFXUYzMzMzEpGRHh+b8IikIrzh372R0ut/0dgpk3o1TYh8RYtLziodsCrv8IOvdqCPVgggQASJABIgAESACRKA6E6gWNhLWILEpdgIDiQNnY231xWdTZi/4TkNDg4vkB5Bc8dqkqKgoCwvzsWNezspTU1Pja3gL4WmfTs3Pz2MZnTnrs3jJ0pjbYSrm+zirKCj5eVoVk7wzYpyB5GlVj8ykd6ZZqSJEgAgQASJABIgAEai2BKqFjYRNGgAIU+z4HiQBsqY21gP79ThxxlcQzx1CieL9G5o1sx3+wVBOHoHy8vKdu/bs3rM/Lu6eu3uHuXNmMcfO0u9/sLNrhrMHDx2Z9tnUzIxM/8Crnp09tu/YFR4e+d57/WDtrN+w6cKFS+YWTb6c8bmHu/uzZ8+W//Dj+fMXnyQkGBs3nvLRpHFjR/PzQjgy6nZBQcGQIbV+W/3HgQOHsrKyR40er66hOXXKpDV/rVu8eCHLPTsnZ+rUaWPHjurfr69Ag/jwXlr+/GN3/B7mNNLRmNPFakKHJs+e1frqWMzxmPT4rGJzvTqzPM0/9rBEwt03E64+zB7a0uhH3wfuVgYDnIzmHLuzuGfTtYGPz8ZlupnqLuhu09m2Pj8LJPG9m9HDvsGawCfXE3PHODee4239m9/DYzHpTQ21F/e06WbfEPK5RWXfn7l7KCq9sKy8n12Dpf2aNdKrg/i5R2IcjXWfldfaHpI039uqR/NGa/0fbr6ZFJVe8J5d/f8Oam5mqM3PTjLMN5AOTWrVaImfpBhFEgEiQASIABEgAkSACBCBqiLwxiebqVJQ7GIHMaxBUizs6dEpv0CuL4UpUaxBcHbHzt1z5i7U0qrzydTJAQHXunn3SU6RTeeLiIic8eXcmbPma6ira2trJyQm7dix54cffvJw79i3T0+EO3l0S05OmTx5AoyrZct/QhIYVHfj4vr27fXdt1/bNWsGtSmpqYLsbt+OxuokROrUraunJ1uV5ObW2rWVS4sWjr4XL586dYbJBwZcxaG9nZ0gufgQxonLr9ej0vKX9rRuZ6Y/cf/tlJzi8mfPolMLhjo1/mNAMycjnamH7iRlFyHto8yi3wMed/0r+H5mQUOd2tmFpWfvZnReE1Ra/mxOZ/NLD7MXnLwryAJJ1t9MnHMqztvWcLhjQ4TtfwxMyC760t38dlrB3BPP5SftCl/p98jdQn+wY6O/rif0XBtcVv4MqoITcif9HT35YLSGulrd2hp/XXk47Uisp3W9n3vbXLyfvfryA0F24kOBgdRQV2Z60YcIEAEiQASIABEgAkSACLxRAtXCj4RtvlFJtkmDgtpaWVkWFRbq1NWVlGFKJE+xyF279uGPhS/4nIRlsmz5j+3btzl0YC8i4bTp4tVr//6Dn0/7BIcuLZ22b9lgYmKCcHBwKL4D/H2xfikjI3PP3gNfL5oP/xIi8/LyVqz8LzZj0NXV2bxxHWLw6ezhfuLkmcDAa4MGDmAxgm94mZ4+zYB9NWf2l+zUyBFD9+078OWM6ZgBePrMWeQOR5Yglfjw8K3k/MLSvz9v62CiN6692ZaQZN/Y9BFupocnuzJh7+YND0Wl+d19OtzNlMWEftm+VRMDhK/EZci+P23jUeE7SssvXnHpUUFJGYwZJsl9xy/wUFdTg7kC/Sv72M7tYYNTucVlX5+Lh5GWnF20PzLtm+7WS/rKCuxqpge7KDA+k7mkXE31jk92bVLhL+q75dbE1sb/HeIAsZKyWssvPVw2wB6auYwEAUkDSbxaSZCKDokAESACRIAIEAEiQASIwGsSqBY2kup1KCstUV1YIOnm5jp+3PP5b40bN87OzsZsN9gzTMzWtikCd+7EskNLc3NmIHFK2AYP9erJDAxuLVOjRo1wiN3q8F1UVHTt2o2o27cbN5ZFlr5KUYe+PwSmV3TMHUwp3L3n759/Wg4NSj93UmVetR03E5ikjrZmVFIuwoWlZVfuZoQ9yTE20MJhcZnMq8M+zEB6cVRLu/ZzR6JFhRmDeXriDzNj6uvUxinOoDHWl7l04C+KT89HwN3GkCVsZ1kPgdjUPGYj2dTXZgZSZn4JzLlH2cWLjt+BwJ3U/OScouyCMkMd6R4oaSCxLOibCBABIkAEiAARIAJEgAi8UQLSI9Q3mqVYOV4IK3vf0eMEBeuRkOrBg4fitFwMlHBhyYCDg/3IER9wp9hcOGbzIBK7QZiaGmO9ECfwSoHCwsJOHl75+QXdu3ulp6UjraS9IU9np04dUJLz532ftm4Jmd69esqT5McXFJfjEDPZmBkz18O8m10D+IJslgfklJQNsm+QcucpBLBWip+qasP5xTL7UF/7eUdigUL4if75KSyVFRWf2hoyq8zJRA9/+tpCn1WFiOxrc+ATbM+ATRqwBok/xY69K4m8SRwoChABIkAEiAARIAJEgAhUOYFqYSO1dHaEjYT3ICm2kfwu+2toyrwZkh8okYyXF9mwQQOcunkzeOrHMhGsREpMTLa2tpInrzj+9JlzSH7uzDEXF2c4lKxsHORPInuuCV4sTqempuZHkyfu2/93amrqewP6Mk8Ud1ZewKqBbM+DsW3N7Ixezj/cG5wIF03wF+1aW9SDQ6nufF/O6yVPz+vEW9SXlSH4UVZHa5krKfSxrFIW9esKdDau2MXB2lCLTckTnBUfzq6Y0fdhpyZ8A0ksRjFEgAgQASJABIgAESACRKDKCTyfalXlel9JIbbthjxeFBt/X+46/rh78Vt37dXSlo3IJT9MieQpyUg4jj76aOKx46c2bd4aGnbr2++WQaxfv96SwkojGzeW7fB2L/5+cnLylq3bOXk9PZn14h8QUFLyj1mCWFuF+HM+5/GG2dLSUoQHvtf/zp24tes2DRs6hEvOD2Cu2tnbqdxfXGp+LwfZpL6vTsRicdGDp/mnIlPDE3KMKqyR2NT8xKzCP/0e8TW8ibCLmYF9Ix3s2XDkVrJPdNo35+Ix5c/TVmZ/8j9wdk1pa7oxKGlDwKP76flBD7OwaR5fQByGmUQGkhgLxRABIkAEiAARIAJEgAi8aQLVwo+EPbv79fbGO47woli8BwlrcgTVhoH0zbKVmpq15W3YgOSKN/6GQvEbY2fP/CI1JWXBwm9YdlgF1Nr1+W4H/AKoq3PLcJ5HC2Iw2a1jhw7w/0z9ZDokxo4diW82wc2rq6e9ve3QYWNCgwP5qbp7d+vcudO48R9hit21wEuGhobNm9tjq4bwW5FdunTm584P99748n1Kv79nN72r1Z7RTiN3RR6ITIMYbJU/hzT3smsw1KnRiF2RiIFZgm82105QCcEhPxcuLJYRxGCOn6aG2sEJLiN2hA/eFo6Exvpa5ya1qldXol8t7d8sJa9kysEYpv8Dp0aj2ppxeVGACBABIkAEiAARIAJEgAhUEwJqeBuPgqKUlJY+fPzE1dlJgUxVnVqxanVQyK2ysjK8BwnbfDNPC9YgYYodPEgwkAwMDCXfIdumdcv5s2TGSeU+2LwhIyOjSZMmmPBWOQ1cKux6h53EdXR0uBgEsC04rBTJkufn53PCEOvRs7+7R8fvv1vCT640jI0THmcWYiFQg4ptFZg89jzQ1tTQ1ZK74Eep2lcSgEGIDe5KysuxQ4OCreqgM6ugFGWzalAXniVBFmytkSBS8pDWI0lioUgiQASIABEgAkSACBAB1QmERkRamjepLWUCVCMbCfXZvH03vEkI4D1I2Oab7WKHNUiYYqfAg/ThuFGqs6iGkrCO8Grai35+P/zw8yXfM3AoVcNCvoUi/eQTP/d0nNKMfuxjO6ditZJSSRIgAkSACBABIkAEiAARIALyCPxrbCRUIO7efT//QLwQFu87KisVbo/GaqihqYFd7LBJA9YgKZ1iJw9K9YnHHg8tXdujPAsXzB0/bkz1KRiVhAgQASJABIgAESACRIAIvKsEFNhIrzu7rMqRweZ5B8yeV8KipaUVHRUKb5LkfLxXUkXCRIAIEAEiQASIABEgAkSACLwmgWqxr91r1uEdSI7tuclAegfakapABIgAESACRIAIEAEi8A4QIBvpHWhEqgIRIAJEgAgQASJABIgAESACVUaAbKQqQ0mKiAARIAJEgAgQASJABIgAEXgHCJCN9A40IlWBCBABIkAEiAARIAJEgAgQgSojQDZSlaEkRUSACBABIkAEiAARIAJEgAi8AwRqnI2UlZ1TVFzMWm7T9j134uL/31uxcsWoXCrJykbejtmx96DkqbcWmZGZ+cf6Lbl5earkeP/BQxUlVdH2Tsqgn2/b/feipT/eCA59ExV8pfaqkgLgRcz48FUJDvmnXinMXUrnLvhdvBIgSMudFcTT4VsmgPs2bhFJySlvOV/KjggQASJABGomgZpiI5WVlR05cebzWQvnL1k+Y96SVavXob2DQ8OTq8EvrorFKCoqPnXuArYIZz1VxVTyunViUnLgjWB2NiklNSjkljxJyXh+ckmBV40sKCiMiIrJzy+Ul/BywLX0pxk4i5Hxz7+vPeNzUZ5kVcULgKuuFjbn/7vtDVwhYRHdurg3bFBf9ZKrLinZXpUmpkq+ew8e/WzmgtgXDzXS0p/ikHUJyeSqtwJ3KcXExsXE3hNo484K4umwSgio3ky4h+MWAeO/SvIlJUSACBABIkAEFBOoKTbS/sPH8ZB42JD+S+Z/uXjejEH9eynmUg3PYlB49OS5qnp2Hhkde/b8pUpX8zWTVyLfvQeOJqemIiH2SV8wZ3rfnt6VUPJKSSoN/Pwl//CIqFfKq8qFo+/cxUuWu3ft3NTaqsqVy1NYaWLyFIrj123eWVJSIo4Xx1SHVhCXimIEBKiZBEDokAgQASJABKoJgWr3Dtk3wSU/P//SlatDB/X36uwu0B8VExsVfSc8MrqJmennUyfq6+mlpKb5XLx89UZIEzOTrh4dO7ZzQxLJyL8PHw+8HlxSWtrGteWE0cPy8wt8L/sjqaamRncvzx5enbm84LZyaWHfq7sXBpGrVq/9YPAAN1eXu/fub96xd+Gc/0BMXAz4dnx8L18PCjU1NhrUvycsg517D0ESs6dMjI2++HSyKqlaODTf/fdhdXW1pGTknPHdwtmsSHDCnPa5WFhU9NU3P3Tu1E5bWxvjzuOnfa7eCM7Lyx/Yv1c3T3cYY/6BNy76X0XdO7ZrjTLXrl1bMnk7N9ff1mxEEt/LAQP69ICGU+d88wsKdOrWHTZkQKd2btduhgReD7Jv1hT6c3Jymf4HDx/vPnAE33B0TB4/UqtOHaYc36g4X0OL5nZ/rt9aVl6+ceueOnVqfz13xvY9B7t4dIRmyXb5buWvbVydExKSwyKiuGbllKNgFy8Hoj8Ai1fnTl6e7lpadbbs3IdivNe3J8Qwt8rYqJGNtSUf+Khhg1BHj47t4J9RV1fv17ObR6f2jxMS/1i3ZdGcL3R1dR4+erJm4zaUbevu/Xdi49C4N0NujR81zLG5HcsaCYNCw2d89hEOL10JDA2PQiMKIFhbWoiZC7oZVxEBJdDgTqEK9x88wt+du/dQKdeWTuIq8ztG/97drwTesLZsgm6vr6/Xt6dXXPyDazdCUK+pk8ZaNDFTkBeXaVTMHT4x1A65n794OfL2HRdnxx5enrY2VmgvYOzVvcuNoDAUz62Vy6TxI6EBFh0uuuiYu06O9rhOjRo34tTyA6YmxujHB4+dGvH+QH68OCO0hWQrwFOEts7MytZQV+/s3n7k0EF8PYrDYgiSHRtKQsMijp72ycrKdu/QBt1g7oxP8/ILxF3l0ZMEcWHEaesbGor5wAl84rRPZmaWmanJrOlT0YdZ4cUVZMy5y7OVcwt5tyncwTbv3Hs7OrZu3boD+na3tbEWlxlzXMUXAstCcHWgPAouz6DQCGtL87z8fH4zWVmYi8uGyaIHj54CwNYtnRQ3EJ0lAkSACBABIlCFBGqEHwn2BpA1t2sqBldYWOTdtTMMlYePn8AggcDWXfsTk1Lnz/ysi3sHhJ8kJElGYhCJJ6Czpn+84pv5vbw9IYNf95sh4fNnTps8ftSBIyf4c0KsLMx8LwdCBqN2jM+uBYUgfD0oRFdHB4YEwpLFwLS65UvmtXJpsXXXAYyee3l3geS0jyeOHfE+AvgoTQWZ9PQM/6tBNlaWY0cOrUgk++rYvo1LCwdYBRjIerp3RAwskHoG+l9Om9K6lfOBwydgIN27/3DPgSPjRgz5dsHMoJDw0PBIeclLS0ufZmRGRt8ZPKC3o30zO1ubmZ9/vGrZ1+7t2+w7cBSqMK7C0E1fTxfZcfr3HDxav57Bryu/nT51kmBMLNAASqM/GIzcoR8atLW1kpJS8nJlK5ckGyslJfXuvQdeXdz5zcoVHtaCr1/ARxNGTRwzHIbi5cDrOJUqMyGzmExKWnpGZrYAOKvjs2flqBoM4B37DmH8V1xcjNYsLStDwuKSEoRR2aED+8PMQDVRVL4PJyc3NzHp+VKK7JxctqxCAEHMXNzNuIoIKCFr7tSg/r2NjBo7OtihDOg/klXmdww0UPz9B9ZWFl/N+lxTQ2PXvsMO9s2+njejpKQUrKBWQV5cpmJiv6/ZiJZdNG+Ggb4eBtboYwxjWtrT0cMHjxnx/o2QsITEJNjn/1u72a2l88rvFpaVlaNROJ2CgJ6e7qSxI1Ad2FfcKegUZySvFdDnp0wc/fOyrz+aOBp2ckpqOqdHaUAMQbJjwwhfu2UnrPQlX81s0KC+rIeUlkl2FXFhJNOK+YDktl37u3t1XvXDkvGjh9Wu/fJRl1in4PJUcJvCqXvxD39cumjh7OnOjg6SZZa8ECQjwVPe5YlHS1082vfo1lnQTOKyJaekbdq+t30b16WL5sC6U9pGJEAEiAARIAJEoKoI1AgbqbxcNnzEU1IxNbdWzhj64Pl0g/qGGLliIItxKvwoZiYmndq3wYDj6vUgyUhT48baWlrrtuzCqg82xMeTeAzf/QKuhUdF4yn1nbtxXHYd2rlhqIRhOIQ93dtHRsXA/oHhgTCTERcDo0DMvz/nexnmR3ZODoZZGG9BGG4llErFVKgRJPFsfmC/nva2NiwVvmEO6enrwi8ElxSCiEFdPN07QHNLJ0eMwDDghucHj5ODb0VevHIV9bodc1dBcpwaNWwwHEqGhvXgf8vKyb4C20OtFlxV0CWpv7WLE3wpMCbLykthBXHKERBoUFNXMzExQnzDhvVRYLhxmLBku7BTAp4skn37X72Bp/to9OZ2th3atZaVU+oD21UMvJ1b68aNGnp3cQe64LBwqXS1jBo3xFkDPV0UlXu6LymJSAEEMXNxN+NUCSgxzuws2rGuthaoogz4lldlfsdAmeEOxVUAMmhEVxcnhK2tzNH3oFNBXlx5BMTgm0VHGtC3p4lR40H9emGgHx0Ty4RhluP6YkPenNw8JglP51lfPxic8DtxOsUB+MQwh3Dt5h2lJaXsrGRG8loBZDTUNQKu3szPy0fypxmyFW4qfiQhiC+cWxG3obBPj264shzsbBUoFxdGMq2YD24vcModPXEWbjpcy9wVgbzEOlkBuMtTwW3KvpktjDQ4IROSkqBHQcklLwRBpILLs3f3rnDpow8Imklctti7suVh/Xv3QDUdmjdTUCQ6RQSIABEgAkSgagm8fABZtXqrlTZMnUJ5gkJvYVgsr2BY5YJTZaUyn4CG5nMsmpqaxaUlkpHwAH2/eC4GW0dP+Rw/c375kvkwYzAqMjczgYYJYz7AgIPLC7OVDPT1r90Mhlvg4w/HYkYTZl5hOIJRKSfDAvxiYDjOSg4PGGY9CST5h5VLxdfwMizDIPtgDiEmtrHq4BtmJItX+v3H+q2wBjt3bMv3pL1M9UJ/r+5dm9pY+V7yX7ryt0njRjQxlXFjHyUaXohJtsuLk8//MzL8yOLiEnUNDRYDnwkegfPPqhjGIBVDbRWFFYgJIIiZi7sZVyMVKSH316kyy071vLjKlpbJwAIUvhlw1I47Kwu86Aksnutperq6/xATHYwbOXTBtyuPnDzDzijPiKfhxJnzZy/49ezmWVKq0qImXtJaSiC8qA4z3sC8bl0lPURcGMm0knzg8sUsPsxuPXnmwuL5X3KeWLFOfhUQVnCbgnkM39eVgGt/rt/Wvm1rzMIVpBUfSl4ILFKVy1OgUFy2kFuyJxEV92aBLB0SASJABIgAEXizBGqEH0lfT6+NqwvsGXgtsG00PDOY+iXJFU/QZasvLl7Gohqsr0hOScUyD8lIzKTHXJSe3l0+HDscPiKsPYAkJlMhedvWrSzNzfkTYJAXBhzHTvnA7IEd5ercYv+h41ipgpl28ooBmyQlJQ1TnrBmA94ADDvqamtDOCEpGWVTPZWkJCLx1D8bbiboKpBwr0GgY9vWAIW1EKiOnW1T3X8WVV5yuA6wdgKLfLp07tSoYUN5uSM+OSXN0rzJ5AmjQAzbVbFn4VnZ2fCeiTXAmEGShMQUlJfb2U+yXRTkyE5h1QR8g8gdW/Nduxnq0bEt4tEQ8Q8eYlx77/4DTEJjkmLgobci8HT8SsB1+MewokxHW9Z89+IfACO252KpmDZM74TfEgr5kfDJwG7EJD34Klm8AIKYubibsYSqc4a8ZJW5gikNSObFtRd/jh+fWMuKmVEXLvljBzys5EEHxvROybwwGxDxuXn5rZydnByb1zesh8Pg0Fuht15O7+QnhBE1YdRQOCFZpLyM0KbiVoi4HQOHar9e3rhCOZ0w4dCs6HgaGuq5uflweXGnEGBnYUuLuyVfjAtjiiPCW3btg9P46KlzLF6yq4gLI5lWzActgtmhbd1aYXkbwlx3Ql5inVzBWEDBbQqPNjAhdtjgAZhNCueVZJmZEsGFIBmp4uXJbyZx2eyaNoXyM+cv4VYVVuGgwyFuAti9BqtMWb70TQSIABEgAkTgTRCoEX4kgBs3ahh+jLG4wufiFRzCVuE2MBBgxTYDWB0xe9FSxMOysrayREAcCQvqr407MJzC4K97Vw8MCLAAJigs/NsVv0AeJgSWKuGbU96hrdvJsxewTAUxri1bYCVG546KHtMOG9wP+iEGecx6WrZ4XlOsqTczXf7zanbIaeYHxKn4Z/lhDLCwHmPOou8x38/E+KWPSO3F4317O1snB3vsMIFUqOPo4UPcO8jMCfbhJ/fy7PQiWibZy7vr/kPH/q+98wCL4mjjuFIUARFBQGyIBXuvWLGLGhW7UWOLmkT97MbeE6MxMdHYNZbYe+8Ge0exdwEriAjSBAH9/sfosuzunaiRYO5/zz3H7Dsz78z8ZvaYd9+ZObyxv0XI06dPMsUl/fhFptt3/ZDANotNt3ptnRwd8P71j/nYgqXWYGpqilJg4uI9eewwndrEx/bqfhElGvj0qFb57PkL4yb/gjQosZp7RQRqVnWfu2hZv+/HYP6NBXI4zgFCOfDePTpDgqM1tu7ci1lp7RpVxWIktHH+khWIAit8ilphPCxdsW7QyAnY9SS5CsuULLFl+14cPQ9ELnlyCRtDAcHBIZuCua2tjWKY6UpJ7BE1JRElfUpLsDSbLCVDIFkHvfWHSAk0+1TeXzCkRWI5MYzYls0abdiyc9P23Yht16opOvHt4NIll0YClqthLejajdvwhhxrXHHWxe79h0zNTLGyTpc08SV3JpQrUwp7WrAFDm4unPahUVC6dJq90LCux8IlK/sMHiWeOwjNWHuJ5xf2dnbY97Jw2WpsNuvaoc2bUtOlk2LVwJNxe9s2DIzePbps27Vv/ZYdrom3AA5xwReOeqioK6OZV82nRVNPHAMDyxyVBPMKZUtJtVXrfFuvN0kMfE2dPOOzffcBdDfMQlihWAqnrrPQorgRsKkMcoUQkpTcnvJuUtcN6xu9mjSARQT/GB6piNJxVgp+BQErRbHgUEj4SQIkQAIkQAL/OIH0eLZtQCmWeeAwg9LFk2YqBhKn/Sg884bvxDKTBXZfGKgtPBWhYc9h4WTKpHPdiJemEL+kiUV0usnf2xccBZi3wVn0VvDhf0WJYtYuaYFVlpLKK3JJ2RUBPB3HekKFUH4JLxP8ALDKpCVe8lh92ZELS9HeuRsHbhY8DIZ5KelMfJavg6mpAbGYvylqotkvkkJ9AbEOEJscpAQAi0mnNN2XywEcs8CJU38fP2IwLDpEYRWilABjwMrSSi5BFGqFwSYfGBBCAtcc2otpqJRdDUHNXD3MRHZNSpJmRUDdZEUCw5eaZUn9Jc8rH6IYIbiVMH4UKOTpRRgpcWyGvd2blNAM+TtzSXo0C9LsBWhGW+BblvIiIDVECmjGakKQp1SE8XsDeCgzZcIIIVcPFc3KiMSKvAo+SIPhipsBqzEVhRrQKaXU9zUl7ib5/a6os+aNoCkUZaXk9lR0k7puaFFsbKy8pfg9WflJmFK7GCABEiABEiCB9yLge/kKnsGZa02GDc2P36uMzyIxptfyabG+OmMiLrwE8gSaQvWUOiX65WoNhDVLNGwgQZtmLn2lGDaQkAuGotwbptCjL7uBLHINsCsyZEgykBAlzYk1NUixciXv1V4po7qbAFbdm0ivAK6whZBAMxdqJZUlBTD81ONKDUHNXLMIqNWkJBWnCKibrEhg+FKzLM0ekRPDCIELxbBmEYuUjg5JKTU1G9CjWZBmL0CzwkCCWqk4KSAvSxJqQpCnFGGcPo9jrKNfROMMhuaNG0gJ1P2oroy+vAo+0InnIJJmeUCtUx4rwvoGg/puUtdZaFDfCJCrhWqF6sooukldN7RIbiBBAw0kNUZKSIAESIAE/lkCpsNHvHnGqakXT/jwVC+7o6NmLIUkYCQEMI3D4X5u+fPJDQAjaTub+b4EnJ2dYmJeWFlZdWzbUuwmSrmGj8mb8lI+OKXmjaAp/OAimJEESIAESIAEUo0Ati5nsbGRL/CRijautXZSsxkgARIgARIgARIgARIgARIwZgIG1tpprAgyZlJsOwmQAAmQAAmQAAmQAAmQgJEToI1k5AOAzScBEiABEiABEiABEiABEkhGgDZSMhy8IAESIAESIAESIAESIAESMHICtJGMfACw+SRAAiRAAiRAAiRAAiRAAskI0EZKhoMXJEACJEACJEACJEACJEACRk6ANpKRDwA2nwRIgARIgARIgARIgARIIBkB2kjJcPCCBEiABEiABEiABEiABEjAyAnQRjLyAcDmkwAJkAAJkAAJkAAJkAAJJCNAGykZDl6QAAmQAAmQAAmQAAmQAAkYOQHaSEY+ANh8EiABEiABEiABEiABEiCBZARoIyXDwQsSIAESIAESIAESIAESIAEjJ0AbycgHAJtPAiRAAiRAAiRAAiRAAiSQjABtpGQ4eEECJEACJEACJEACJEACJGDkBGgjGfkAYPNJgARIgARIgARIgARIgASSEaCNlAwHL0iABEiABEiABEiABEiABIycAG0kIx8AbD4JkAAJkAAJkAAJkAAJkEAyArSRkuHgBQmQAAmQAAmQAAmQAAmQgJEToI1k5AOAzScBEiABEiABEiABEiABEkhGgDZSMhy8IAESIAESIAESIAESIAESMHICtJGMfACw+SRAAiRAAiRAAiRAAiRAAskI0EZKhoMXJEACJEACJEACJEACJEACRk7ALK21/85d/8PHTly8fO1x0JOE+ATN6pmamTo7OZYsXqRGVff8+fJqpqGQBEiABEiABEiABEiABEiABD6AQNqykRb/tWrnnr/f2QzYTg8ePsYbiRs1qN21U/t3ZmECEvhHCPy832/o7jtyVa+n1cVl+sH75UKEhVwh5CUJkAAJkAAJkAAJkEDaJ5CGbKSffpnpc/4ikLVs3si9QvlcuXIg/ODBoxNnzm7YvFMfSphJQU+eDhvUV1+Cf0oeGhq2a/eec+d9q7pX9vJq9l5qExISQp49c3RweK9cnyLx5i3bzM3NGjfyVCgPDAx0cnJKnz69Qs5LBQGFgaSI5SUJkAAJkAAJkAAJkMB/gEBa2Y8EDxIMJGdnx2k/jGnXysvFJbdp4gsBXE6dNCqHs6M+3MiI7PpihbxDp26163iKd/evv9mzZ5/h9OrYn6f9On7CjxYWFqFhYepYw5IZM2eVLFXx/v0HSBYWFnbt+g3D6T9d7KpVazZu3KLQf+To8dJl3bfv2KWQv+/lT/vu1ph55n1zfY7p4SOS3qL+uHw6vkZ1lyyfY3NYZxIgARIgARIgARIgATmBNGEjYQ+SWGI3qM83MIrk9RNh17wu/b7rAW+MOkpIkB1K9MVCfvXqVTv7rH369OzRo2vmzNadu/ZcvWadgfSKqNevX2/YuKVb168mTRjbrWtnRew7L+vXqzt2zHAnJ52Zt2fv/uZebd6ZJTUTFClcaNTI78uWKf2RhT54HusTFPWRSj7T7CFRL73+vHAk4DnNpM+0B1ltEiABEiABEiABEpAIpIm1djikARXCEjtNA0nUNZ9r3qaN6u7Y4y1VXRGAEsPnNxQuXKiFlxdytWvb+uTJMytXrUFg06YtPud9GzdqOHvu/PLlyvbr2/vEyVO//TbT98KlokULf929C5al3blzd9acec+fh8Os8vW9ULVqlTZtWv744xQogU+pRIliA/r3qVqlCjRPnDQ5Z84cWLG2afNWeI3atG4xaGD/DBkyPHjw8Oixk927dfl95qwNGzZBVfsvvzIxNevVo9ucufPHjBkJKwXZwyMievXq3bFje/laOOh0cMiWkPBq89ZtT4Of9u3zbalSJefPX3j6jE/VKu5DBvd3cXF5EhysWZ8zZ3xWrFx16PBR2D9QW8ujpgQNVt/032b6nPP9YeJYhI8dO167tgcqr68JyLhh46ZZs+aHhoU2b/YFLnPkcO7xdTdJoYHAgRshk//2P/EwopyT1c9fFKyU1/b163TDt93YfiPE7/nLXNYZBlXP1bNqHmhYdfbRyXvhLUs6TvUOqOJi42qX6ahfWJOiDjOP3T/3OKpRwaxjG+ZzsbOUl4Us3rdD67rZzTnx8PTjyA7FHYbUzvv74XvbboTks7UYU8+1lps90kfGJkzac3vT1ZCYhFeNCtpNbFQgm3UGyIduuVHEyer1q3R/nQ8cVtulbqFs847dW3w28GrIiy8KZv21WaEcthby4jTDcgNpU7dS2cYe1kxGIQmQAAmQAAmQAAmQwGdBIE34kXCKHWBhD5JhZNWruke/0OumEEoMaxCxcXFx/gH3SpYojstHjwMXLlzi1aLdw/uPstraXrlyFeGbt2736f3N87Dw7l9/d+BvnVWW3ckJn3nzupQtW8bV1SUsNCwmNrZz5w6jRw17FhI6evREofny5SsjRo6bN28RHEeVKlX4fcacs2d9EPU4MPDAAe/4+HjLTJmsrTNDAj2lS5UoWrSI98Eju3btEdlPHD+JS7eCBcWl+ITOceN/3H/g79YtvXLnzgX9jZu0sLOzgztr/YbNa9ZuQDLN+kRGRnX8qltIaOjYMSNRXHh4hFzt7Dnzp/48vVnTxmhUVFQUyg0LDUUCfU24eu167z4DkWBA/76hoaFz5i68fTvZ0QVy5fKwz73ndRect8lo+keTAvGvX3dfdxWxr16/vh78omUxh1lNChRztOy16WZgeCzk98NiZxx/UHPuOf+wF/aW5ricfepRq1VXijpa9SifffG5wOVnH8uViywLzj4esutO7fy2bYrYI+w29cSj8NgBVXJde/pi6I7bIn23lZemHL5fJXfm5kWyzT39qN68cwmvXiPq3KPIbuuvd9943dQkfSZz07lH7/Xecqt63izTGrge9A+feSRAUZz6UmEg2VvpTC++SIAESIAESIAESIAEPl8CacKPhGO+QVAc0mAApYtLntiYGMtMVppphBLNKCG8c/sOtiFFR0etXbcRkhYtmkuJ/96/E+YKLgcPHY7PQ957bWxsvvu2Z9HiZefMXbB+7cpBA/v9On1m/Xp1vv2mp8g1d/ZMEbC1tf26x3fwGsGAgaSWR/WVK5bClRQS8mzz5u3nfS9WqeIuUuITjpdnz0LhmBoyeIAQtmvbcu3aDTA8kGX3nr0lShYrWLCAlF4EPD3rLV40H+ECBfJ/2aHrlk1rYYDh8m/vg/B6IeDmVlBdHyiEw6pFs6bC7SNUic/1GzZNnPTTuLEj2rRuKZeLsGYTTpw4ididOzZhR9ZXnTrg7Ap1Rk3JnGP3LS3M1nUpBSOkhLN1hZln/UOi89pbbu7+Zmlf7UL2m64+PXz7WZuyzkKD74CKpXLaIDx1vx8+Q8ZVtzAzRWDT1WDvO2EjRaLkn34jqpqAedTLJeeDpjTMP7SuK+IjXyaM3ucHD1JQeOy6K0/H1ck71lPHtnQOa9hFJ/zCquXPqrt0tt7evXTORH+R55KLXco4/epVGPK4hHQ/Hrr3QxM3aMal5kvTQOKJdpqsKCQBEiABEiABEiCBz4VAmrCRUg4rIT4u5YkVKeEqwRtCZ2enSRPHlC5VUkogDCRcXr16vWzZ0jCQEMaZEXXqeBw4cFBKJg/g6AXvg4dDQkJgh0AOH5GItbS0hHGCsL29nU6e8EYuYtWfLVt4rV6z4fqNm1hMuGr1+mk//6hOY5L+jbsP7iPECv0IYIPTo0dv/Crq+ri65nV3r/ht7/6nz5zt2uUr2FFC846de/Du/V3Pb3r1EBLFp2YT9u//u1o1dxhIisTvvLwQGJUtk9nYnbeQMjruFT5vB+tspJj4hKO3Qy88jHCyyQjhywSdV0e8hIH09iqdMJBwWTib5ZNI7QEgzJisluZIJhk0Tpl1Lh34i/xCohGo4mqLT7wq5NGdrHArOErYSK5ZLYSBFBYdFx0Tfz/85ajtN5HgZnB0UERs+IsEW0vt20TTQNIVwBcJkAAJkAAJkAAJkMDnTEB78pfKLcIPwup+7+jBIwP7kVClgIB7BioGJQZiEdWta6fx40bDwDAz09vqyMiI3Ll1G2PEyzZLFphAr17pZvby1/UbNzxqNczrkqdy5QoXL15BFLb0yBOkPOzuXilLFhusxHtWRmezNahfL+V5pZT66rNqxdIFCxf/MWvu4iXL/5j5a6uWuu1Y4hUbG4s6S+bWW7Hev0+fPbO20vbg6c2TGPEi8YeAzU11Zl4WUxM4cwo6Wr6IS3D98XhEXEIzN7snN58h6oMBGi5dxEa/1J32kdniTb+LQAz8RMlfMfFvOlrUtlh2a7wzW+hcWJqvxScfikMasAdJvsRO/FYSvUma0CgkARIgARIgARIggbRPQK+1kJpVL1m8CGwk/A6SYRvp8JFjpmY6R4HmC0o05ZLQxNTU3FxvdpGskJvbtu274uMTzBIXdx09drxokcImJiaKI/UWL16G9Ae998Cvcvr02abNW6fc2EBG4XoSJcJg+7p7l7Xr1gcHB3/RxBPHMwj5e33qqw+qhzMeunfr3Ltv/2nTfhM2UuNGDWrVqjl4yAiU1e9/fVJYUPmyZWBoRURGZra2fi97xs3e8vj9iFEN8mOtnVTWmnOP4aI5169CmdxZ4FDKNMz7vQBKelIYyJ1V5/46d/955bw6V5LvA53rL3fWTIrsDomnOOS1zSiW5Cli1ZeD67jCNO7mnlNuIKmTUUICJEACJEACJEACJPB5EXiziOvfrXSNqrodO/ihWD//AH01uXPXb+nKNRn1r/USSvRlT6G8eXPdiW3jJky6dOnyb7/PvHnzTvv2rdV5s2fXHeGAPUj+/gErV61WJzAgwa4qxO7bfwBbesQKvaZfNEZB8+b/KffzGNCgjtKsz+PHgVgg5x8QEB4eHp+QgBV0UsaOHdoPHTJg8k+/4HA/SWg40DJx+1aNmnV/nT6jTt1GqLBmeqxV23stWHrfCY5uWcIR5hDW2l15HHE9MHL9+cCnkS8dE62RW8HRj5/HzD58X1PVPygskcPGLZslzmzYcjFo//Wn4/b5YYtU9fy6hYvyF6y4HuWdF/kELjx+H5umcNoEDs2TJ1CHh9R1pYGkxkIJCZAACZAACZAACXzWBNKEHwlndjdqUBu/cfTbrPn4HSTszFEwhYE07ocpZmbm+g5sQHbDB39DobSrR67cRObcgLxhg/rfDx0wZep0HHaHSyzP69TxSwQUXg5sItq5e2/1mrp1cV27dMSnYdcKPFFII151atfCxp5OX32NJXanThzCkQ+FCrnhqIZLF6/UqFHtbSrtv+kT99oo6oykmvWBafTj5J9xHh0SQP/PyXc69e/XJygoaOCgYY4ODjjFW7s8mbR8+XIrVyxes2bdqVOnO3ZsN2Xqr/qccg0WXZDyzfii4LfV8lwJjPzh4D28IXfPY+PualujgF3LYtnartQtU4RZgk8BMHlvoMskTXoD6jQKCbYqmZmm39i5RNvll5ovuwRFTpkz7utWKksmjcE/sXGBJ1FxPTbeEOW1LpatffkcestmBAmQAAmQAAmQAAmQwH+RQHr8Jo+BdsXFx9978LB08WIG0vxTUT/9MtPn/EWsasPvIOGYb+FvwR4kLLGDBwkGko2NLc5RUBdXrkzJYYP6quUfLImJiQkMCoLxIPe9qLXBxrC3tzewu0mdRZJER0dLyrHfqW69xlWqVsYP1EoJPiCgWR/074voaKfEs8s/QKdmloCAgEruHuPHjezV82vNBGohNiA9Cot1zpLRMkNSD+LMA5zHYJUxSaLO+A9KsC4OB9zFvXqFExoMHFWHEp+/iEfdXOwyydcHipqIvUYpqRX3I6WEEtOQAAmQAAmQAAmQwL9FwPfylTy5cpprHVWQhmwk0Fn81yp4kxDA7yDhmG9xih32IGGJnQEPUtdO7f8tsh9ZLqyjS5euHDx8ePLkaYe898Ch9JEKP112HAvh7X0INYyKil6+fOWhw8dOHj+I31b6dCWmTc0/7/cbult7naG8wlMb5scyPLmEYRIgARIgARIgARIggTRFwICNpLHc6F+sOqwdbCs6fOwEfhAWv3eUkHgkmro+pmamOMUOhzQg8TuX2Kmzpx0Jfs22TTvdUr2pUyalZQMJNcTxD7du35m/4M/Hj4NwPPqmjauN0EACB1g+NH7Szh3EmpAACZAACZAACZDApyCQtvxIn6KFaVwn9uHAm6S5hjBt1hyLIT+j2qZNhqwVCZAACZAACZAACZDAv07AgB8p6SyBf72WxlkBnAbxeZkcn1dtjXNQsdUkQAIkQAIkQAIkQAIfQ4A20sfQY14SIAESIAESIAESIAESIIH/GgHaSP+1HmV7SIAESIAESIAESIAESIAEPoYAbaSPoce8JEACJEACJEACJEACJEAC/zUCtJH+az3K9pAACZAACZAACZAACZAACXwMAaOzkZ6HR8S+fCmQ/fnX6pt3/D4G3z+S98Oq8WG5NCt85dqN5Ws2akalmjA0LGzWgiWRUVEpKdE/4F4KU6ZE2+eS5r0QfXCjcIMsW7V+1MSpZ875frCST5Ex4N6DOYuW4RzIT6Fc6Ewdwpr1R7sUTVNcauZKiVD6otj39+GDR48rskixCjkvU5kA/ivhCzAw6Ekql8viSIAESIAE9BEwFhsJJ1Zv2bGnz6CRw8b+2P/7sb/MnA8i53wvBaWB/0kprEZs7Mtd+/7GQeGiL1OYS1/HPw4MOnHmnIgNfBLsc/6ivpSacnl2zQTvK3zxIuby1RvR0TH6Mh45firkWShiMXecNmPenv0H9aX8p+QK4ClXC5vzU9je70SU8hoaSAnO5y9crlWjir1dVgPJUj8q9Plz/GzaP2U5aNY/dQhrFr1m49bvBo649faRzdOQZ7gUA14zfcrHmPRFcePWnRu37iq0SbEKOS//EQIp7yb8h8IXIJ5Q/CPlUgkJkAAJkMDHEzAWG2nd5u14jNrKq/HYYQPGfN+/WeP6H88ulTVg2rR1575/ao545fqtvQcOfXATPjL7B5S7ZsPWoOBgZMRp6SOG9PWsV/sDlLxXlg8GfuDQsUuXr75XWWkn8fWbt/HrzHVqVsuX1yXt1MpIajJ/8Qr8rnRKGvtZj7GUNPC/kYbd9N/oR7aCBEjAOAmYGUOzo6OjDx092bJZY49qVRTtvXrj1tXrNy9duZ4zh3OfXl0yW1s/CX66/+CRk2fO58yRvWbVypUrlEUWTeH6zdtPnD4XFx9frnTJzl+2io5+4X3kGLKamZnW8ahe16OaVBbcViWKutWv44Fp9y8z57Vu3qRs6RK37/ovXr5m5JD/IZm6GvDt7Pc+ctrH19nJsVnjerAMVqzZhJRYBJXdybHft91Tkqto4UKr1m82MUkfGISSQyeMHCyqBCfM7v0HY2Jjh4+bXM29goWFBWZm23fvP3nmXFRUdNPG9WtVrwJj7NiJMwePnUTbK1cogzqbm5trZq9QtvTvcxYhi/eR400a1oWGXfu8o1+8sMyUqZVXE/cKZU+dPX/itI9bgXzQHxERKfRj6dSqDVvwCX9F96/aZcyQQSjHJxou11C0UMHZC5YmvHq1aOnqDBnMRw/t/9fqjTWqVoZmzX6ZMOW3cqWLP3oUdOHyValbJeWo2MEjJzAegMWjmrtH9SoZM2ZYsmItqvGFZz0kw+ojJ8dsrnnzyIG3b9UMbaxauQLcLCYmJo3q1arqXvHBo8ez5i8ZNaSflZXlvfsPsRIMdVu6at3NW3fQuWfPX/yqfasihQqKogHh6IkzefPkxNDKnNnas57HHb+AU2fOI2+vbh1z58yhaDVapw/Ry5dxC5auQAd92/2rTdt2yQeh1Ez0ewyW77x8eenytXJlS33RsG42ezvUASvo7LLaXrh0bUCfHuHhEQcOHrly7WaJ4kXqelTP7+qCtvsH3Mf75u27oIEhLe8IfV1pYKjAeQtKvXt0QcV+nDazUIF8LZs3Rr0mTvmtY9sWeXLnVPeFYsRu2LID3CwsMjpndxKtU2BxdckjtdrAePDxvZw3Ty70iEgsuiNXTqdjJ33y5MrRrHGDgvldRdSR4yfv+t9DKWVLlej2VTvoNDy81fWBnYnvkOs3bhcr4oavHUeHbIrvCqnC8gAaiLt047ZdbVs0lcvVjcJI0xxj8BRhJIc9Dzc1MalWpWK7ls3kegyH1cNPNLx+nRpnfC5gSAgaUOJ74fLW3fufPw+vUqkcBvnQ/t9GRb9Q3wj3Hz5SVwbCrTv3Xrt+q0K5MoFPntSvVaNMqeJqXHBx79i9PyzseQ7n7IP69sIdKiqvbqCid0oVL6rvSxiDefGKNSg6U6ZMTTzr5HfNq64zVvCqb3NRhOLeR33U/QKh+PIRgy0qOlreTS65c6nrhvtx49ZdAFimZDHRRn6SAAmQAAmkEQJGYSPB3gDuQgXzqaHHxMQ2ql+7aaP6+N8GgwSPz5euXGdiYjps4HcB9x4ijMkrjCW1EAYGnhGOHtrPNouNWCCB/39nz18aNrB3aNhzGEIVypbKYpNZlOiSO4f3kROwkTBrxwzmlM952Einfc5bWVrCkEAazWrAOvpx7PeHj51aunLD2OED6teusXrD1t49u2SysBBq35lryoQRISGhWPeFGbBn/STHS+WK5R4+CrwbcK9Pzy6oAv5PwwJBbQf07rFjz4ENm3fAeMA0cfWGLUP6fWNjk3nS1BmYQcIWEuUqskdGRj4LDbty/WbzJg0K5nMFDRgGWW1tdu31Xrtha+XyZTDzwOSmXOkSMO0k/as3bs2axWbAlPFhYeHW1paYcgnl+ERZcg0/Txr9ZevmP02fpdOf3xXT5cDAJ1GRup1L6n5BZz15Enz7bgC6tYlnXalbJeWYlHsfPt6zawesWpy76C9TMzNYs8FPQ9KnNxFpnjwNyZAhQ608ueXAY2Nj0cbXr18N7NPz0tUby9duKlggHywQ9GZ8QgIyvoyLQxjWQsumjWEvuRXM71nXI6utrVQuIPj5B3hUr1yrRlWUu3Lt5s4dWtevXXPK9NmoD+builaDmyaimJiYaUtXYvhhbup/74FiEErFod8x7Du1awkOf/61BpZGr26dUAdYRNWrVOzQxiuztdWkKb9hTZ1X00beh49hajj9p3EwFR48CrS3s23ZtBEMuadPn8k7Ql9XGhgqmInCGo+IjIqIiMD8GFVq0azRtWs3YbHDCj1w8Ki6L+Qj9vjJM/sPHu3RuT1ow1q7duMWGqjAIjUZAX3jAWZk3VrVYKVLiZO6o3q17bv3wQj/dfJYKbZDWy/c/tiX1bCeB4SGh7eiPnjc8Me8xRixXTu0xUMQNB/Ta33dJJWIgLW1VVPPevMWL69UrgzCUpS6UfrGGOz8Hl2+dHJ0wJp2u/eqAAAvLElEQVS9eX8ur12jmqODvaTHcEA9/OLj49FwjIEv2zSXaNjaZpm3ZEWThnWqV6ns43tRN/7jEzRvBM3KLFq22iGb3fiRg5Fx2oy5eJ6ixtWhbYtlK9e1afFFlUrlcWOamyf9k1LrFJWUvnwMfAkj6q7fvakTR6G2+Lp7Hh6uvnmFNsVtrimE3avuF/HlIw02M1Nz+VfB/oOHFf8g8AWOexPfM7VrVrtz1x//gAz3EWNJgARIgARSk8CbeWFqFpn6Zb16pdvnjeeI6qLLliqOyQGe4OLhenhEZERkJCZ88KPkyJ7dvWI5/Es+edpHU+js5GCRMeP8JSuxeQP/L6FZPO0+fPzUpavX8Rz35u07UnGVKpTF/2PMC5EYM9QrV29ggu5z/hLCIo26GnhwixXq+7yPYJoSHhGBiYhd4v4QGE6oVQpzoUVIiYfZTRvVc3v7mBwSmEPWma3gF4JLCkFI0JbqVSpBc8liRTCBwFwfnh88cD138crBoydhlly7cVsUqpkdwvatmsOIwhQKE4XnEeFHT5xOlz4dpvLQpam/TIlivpeuYu6e8CoetqKkHAGFhvQm6bNnd4Tc3j4rKgw3jkis2S8iSsFTCMXnsZNn8PwbnV6oYP5KFcro6qn1gu2qBl6hbBmHbPa1a1QBunMXLmnlS4dZKWJtrK1QVen5t0gJOVyOGGkoHaBKlyiGcF6XXOhfJFC0Gtw0EU2ftQBRIwb3tbayUg9CeZVy58qBNsLIh2EGTymGE2LR0V+29sJqupu37qKjm3jWy+7o0KxRfUxVr9+4hQGQySIjugOVx6e6SkJDyodKkUIFcC9g5SGeDpQtWfxVQsLDx4FnfS+WLlEUnkN9fSGN2EvXbsATWLZ0yczW1pKFo4kFFTMwHhrUqQkfMm5qOR/RHeivRg3qYKDCHSRiMftHSngkEnW+OUTEwPBW1EeH+tUrOG73eh+G/Qyj1HA3yatUumQxdA3MpPi4eCHXbJS+MYbuMzUxPX7ybHRUNLI/C9Xt30vhS7OvkVdBA1vCIGxYtxa+NwoXzG9AuboyOBIj6ElwgzoeiILTEgMD2dW4IEfs1h174eTEN5V0vyOxWqeogNQ7Br6E3Qrkhw8ZntJHgXgKYGivneZtrhBq9ouojDTYFN2krtut27rtYY0b1EUzCxcqILLzkwRIgARIII0QSHpEl0Yq9CmqgaVTUIunnpgy6tOPXS6ISojXzSPhWxDJzMzMXsbHaQrhfpk0ZiimI1t37d++58CPY4fBjMG8IVcO3TwMLgL8SxZK8Il5qk3mzKfOnsPyqp5dO2K1FZZs4R82ZsxSGhGQVwPTcVFzeMCwIkuRUn75YbnkGpLCOgy6F9YQYmGbaA4+pZVOItbA56wFS2ENVqtc/rnm/uO3+uvXqZnP1cX70LGJU37v1qltTuek+es7NLwtW7Nf3ka++SvIyIVYqGZiaiokZqameEgsj01hGNM4TEZTmPidyUQl1a3WRAR7FT63mBcxsHbUg1DdXpRuIlxkiSNcqkx8gq7hYp4qgKDHpVgRUFcpWYK3XWlgqJiamlYsX+bM+YvwGDSsWxOF+l68gvc33b+Cqnf2BXrHJHm10UAFFsm9mZLxkKz+by9EEfK5uC7mbevepnrzV81EUR/xREa6cWDKprCbRAFw/Y0YP2XLzj3i8r0aBSft3r8P16tVPS4+RZua5E1Tt0seK9EQxhs6LlOmd4x/dWXwDQmdcJ7INYtRJ8eFWDi0sYoPa3d37vl7zLAB4iEU5GqdclUIG/gSxoOJscMHHj1+avaCZRiTWGOsyKu+1LzNhfC9+kVoVtft/EXdc5bkA1xdC0pIgARIgAT+HQJG4UfCQ2gs9II9A68Fjo2GZwZLvzR54+m+bmfIwSOY0l29cRNPPbEHQ1OIteZYs1Gvdo2uHdvAR4RpK1I+DnyC7OXLlMqTK5d8iQjKwr/kbbv2w+yBHVW6eNF1m7ZjFRNW2umrBmySJ0+eFnYrgG0AeKiPf8xiid2jwCDULeW5NFNCCD8JtqNgxRFMNc00WFgFUFgthuYUzJ/PKnlV9WXHE3TsLsAmnxrV3LPZG1rnE/TkaZ5cObt3bg9iONBJzFCxAAbuDrUGGDOo5KPHT1Bf6WQ/zX7RbItciIVP8A2idBzNd+qsb9XK5RGLjvALuIeZ313/AKz1EunVwH0vXsbz46PHT8PtgNWSlha67rvrF5C4hu2GVAq0YVEZ/JZQKAkNBzS5KRAJDX2/6Yrn0z9Mm4mn8upBKC/l/oNH8EY+CQ7BOk84KIQ5JCUomegn+fvQMRzmhr0oiC1RtLAUi4BmleQJpLDhoYIVU+hQLLQrXKhg6ZLFd+/zhklWpLBum5ZmX0hqEcD4R0Y4ZmFvY98gJPBwamJB1PuOB7jO4BXBTYDlcBjP2BwlL1ozrMlEUZ9SJXQOqMio6FLFixUrUiirbRZ1N53zvQhDUbMI2FSd27eEi1XE6muU5hi7fO0G3MVYXYnvH0k5aGPQ4rYyNTWJjNStbZOiEBCxsEXVN508mRQWHbdk5Vq4xLfu2ifkmjeCujKJ336Z12/Z4XP+wubtewAT2dW4IMcSu/JlS/X/7muE4diXSlfrlKJEwMCXMB7cYH1pq+ZNsFkUzivNOgslittcU6ivXxT1kXeTum4F8+VD+j0HDuGL+EKigw6X+IrD2TzYQ6tQxUsSIAESIIFUJmAUfiQw7dS+Ff5dYfMDtjfgEv+tpQMMFMRxzAC2EwweNRFyWFZ5E3eEq4WwoOYuWo4JByaXdWpWxb9MjxpVfC5cGv/TdGTElGtQ3574lJRXKl92596/sUEZktIli545f6FaZUMPMls1bwT9SIb0WJH1w5jv82G/fw5nbHwXl5JmeUCdSx4rD2MKgnMLhoyahPV+2Z3e7IZHgvRvnxhjR02xwm7YWAUh2vhlGy9MdiUN8uwe1d0lOVJij826TdvwzuuSW8ilrT64lPQvX7Px9l0/SLChq1u9tthEgfevf8zHFiy1BrgjUApMXLwnjx2mU5v4mF/dL7oogy+PapXPnr8wbvIvSIUSq7lXRKBmVfe5i5b1+34MZqhYIIfjHCCUA+/dozMkOFoDO84xb6tdo6pYroM2zl+yAlFghU9RK4yHpSvWDRo54evO7SVXYTIIKh+FJjcFolevdXNKbHLAU/Zf/piPTWJtWzZFGvkg1NXh7SsuLv7P5Wsw3USjmnT+EmJ5HbDUrWWzRhu27Ny0fTei2rVqCsgiq7BXNask1yB1peGhgnVTcHnZ29vhdihetBDoYT8blKMszb4QdRCfOAgEu96xWQiX6A4hVGCRp3/f8bD/0FGsd0JlunVqp9Mj6xepdXKhJhNFfdBYLG1du3Eb3lCJJbvly5ZUfFfs3n/I1MwUhqtUebkzoVyZUidOn8MeG+EV1GyU5hhrWNdj4ZKVfQaPEk9VhHKsLMXTGXs7u4rlSi9cthpb6bp2aCOVK8Wqbzp5wyUaGPY4gWPbrn0wdVwTb3AcUYOvU/WNoFkZHMCwduPWtZt2YCSgDqbmZmpcLZp64pAbPHdAAnQ6NnZKtdXQKesyJDPwJXzyjM/23QfQgzALYYVi+a66zqIgxW3+6HEg5AohJJr9IjRIn/JuUtcN6xu9mjSARQT/GB4YiVw44wS/8YDlprhxJD0MkAAJkAAJpD6B9OGJeyH0FYyFEPcePCxdPOl/ub6Un4UcD6Hx2NgykwW2IhioMDwVOHcBU7pMmd6cjoDEmkI8y8ciOmlyiWR44I2ZjU3iJh8DRaQkSpQoZu1SekyIU1J5RS4puyKA58dYT6gQyi/hZYKfAVaZ5iIufdmRC0vRFLtx5GpFGG4WPC6FeSlFJT7t1s3UNTUgFjMcRU00+0VSqC8g1gFiG4CUAGAxLZOfsiCiBHDMkyZO/X38iMGw6CDHKkQpI8aAlaWVXIIo1AqDTT4wpPQGAupWqxGps6sHIdLAzjfPYN6ra0c8ljawUBM9iKGO/tVXVXWV1BUQEqQ0MFT05YJc3ReKxPDaYWorH/YGsKRwPBw4dHT7rv04pgLuPixfFGaholx9l2om6voA7LPQ5zj9QgIr7yaMZCiXovQVJMk1G6U5xqAZ1YPnXMqLgHRbSQHNWHW75MnUYfyaAh454WAYEaW+ETQrIxLjMIPJv/7x0/gR4h5U48LNiFsdyxQV5RrQKaXU9yUsMMq/zRR11rzNNYWiLM1+kaohpZF/FajrhhbhSBh5S3Hwo/ycT4VCXpIACZAACfyDBHwvX8FTKnOtybCh+fE/WIM0ogrTa/m0WF+tMGFSb+rVFKqn1CnRr69chVyzRPlMUZFeXGrm0kwJoWEDCQlgKMq9YQo9+rIbyCLXALsiQ4YkAwlR0qxRU4MUK1fyXu2VMqq7CWDVvYn0CuAKWwgJNHOhVlJZKQ+oW61GpNamWQEpmQEDCWnQg3ACSInVAXWV1GmEBClTnliuRN0X8liE4WpQSAxged/xAPeyQvk7L9XNVNcHYB2Tnykn7ybNkWygXM1GaY4xaFYYSFArFScF5GVJQnW75MmkMM6KxDHW0S+isVKxeeMGklzeQCFUV2bpyvUxsTFYxYrtRgXyuUpdr8aFpzySZnlArVMeK8KSWkWUGqO6ziKL+jaHXC1UK1SUiEtFN6nrhhbJDSRkoYGkxkgJCZAACaQ+AdPhI948BdQsG8/J8Nwru6OjZiyFJGAkBDDRgbfBLX8+hcmUZpuP48vxXASLCdNsDf/dimG7oIODvVgt9u/W5LMr3dnZKSbmhZWVVce2LcVuopQ3IbtDttfpXsNt4tWkYeMGtRU+4ZTr+UQpNW9zTeEnqgDVkgAJkAAJpDIBbCDPYmOD5Srqco1rrZ26/ZSQAAmQAAmQAAmQAAmQAAkYIQEDa+00zCYjBMQmkwAJkAAJkAAJkAAJkAAJkIAgQBuJI4EESIAESIAESIAESIAESIAEkgjQRkpiwRAJkAAJkAAJkAAJkAAJkAAJ0EbiGCABEiABEiABEiABEiABEiCBJAK0kZJYMEQCJEACJEACJEACJEACJEACtJE4BkiABEiABEiABEiABEiABEggiQBtpCQWDJEACZAACZAACZAACZAACZAAbSSOARIgARIgARIgARIgARIgARJIIkAbKYkFQyRAAiRAAiRAAiRAAiRAAiRAG4ljgARIgARIgARIgARIgARIgASSCNBGSmLBEAmQAAmQAAmQAAmQAAmQAAnQRuIYIAESIAESIAESIAESIAESIIEkArSRklgwRAIkQAIkQAIkQAIkQAIkQAK0kTgGSIAESIAESIAESIAESIAESCCJAG2kJBYMkQAJkAAJkAAJkAAJkAAJkABtJI4BEiABEiABEiABEiABEiABEkgiQBspiQVDJEACJEACJEACJEACJEACJEAbiWOABEiABEiABEiABEiABEiABJII0EZKYsEQCZAACZAACZAACZAACZAACdBG4hggARIgARIgARIgARIgARIggSQCtJGSWDBEAiRAAiRAAiRAAiRAAiRAArSROAZIgARIgARIgARIgARIgARIIIkAbaQkFgyRAAmQAAmQAAmQAAmQAAmQAG0kjgESIAESIAESIAESIAESIAESSCJAGymJBUMkQAIkQAIkQAIkQAIkQAIkQBuJY4AESIAESIAESIAESIAESIAEkgjQRkpiwRAJkAAJkAAJkAAJkAAJkAAJ0EbiGCABEiABEiABEiABEiABEiCBJAK0kZJYMEQCJEACJEACJEACJEACJEACtJE4BkiABEiABEiABEiABEiABEggiYBZUvDThIKfPfs0iqmVBEiABEiABEiABEiABEjAqAk42Nl9ivZ/chvpE9X7U7CgThIgARIgARIgARIgARIgARLgWjuOARIgARIgARIgARIgARIgARJIIkAbKYkFQyRAAiRAAiRAAiRAAiRAAiRAG4ljgARIgARIgARIgARIgARIgASSCNBGSmLBEAmQAAmQAAmQAAmQAAmQAAnQRuIYIAESIAESIAESIAESIAESIIEkArSRklgwRAIkQAIkQAIkQAIkQAIkQAK0kTgGSIAESIAESIAESIAESIAESCCJAG2kJBYMkQAJkAAJkAAJkAAJkAAJkABtJI4BEiABEiABEiABEiABEiABEkgiQBspiQVDJEACJEACJEACJEACJEACJEAbiWOABEiABEiABEiABEiABEiABJII0EZKYsEQCZAACZAACZAACZAACZAACdBG4hggARIgARIgARIgARIgARIggSQCtJGSWDBEAiRAAiRAAiRAAiRAAiRAArSROAZIgARIgARIgARIgARIgARIIIkAbaQkFgyRAAmQAAmQAAmQAAmQAAmQAG0kjgESIAESIAESIAESIAESIAESSCJAGymJBUMkQAIkQAIkQAIkQAIkQAIkQBuJY4AESIAESIAESIAESIAESIAEkgjQRkpiwRAJkAAJkAAJkAAJkAAJkAAJ0EbiGCABEiABEiABEiABEiABEiCBJAK0kZJYMEQCJEACJEACJEACJEACJEACtJE4BkiABEiABEiABEiABEiABEggiQBtpCQWDJEACZAACZAACZAACZAACZBA2rWR4uMT5i9Y5Ot7Qd1JUVHR4RERankqSx48eIgaBgUFpbzchISEJ8HBKU//YSk/oGIfVtB/MteePfs2bd4qNS0uLk4KpySQmvBTs6yUtF1fmltPon7ad/d/G66d8AvTlyYl8pmHAo7dCUXK435h0739U5JFX5qP16BPM+UkQAIkQAIkQAL/AQKpYSN916ffqDHjUwLrxo2boaFvZlHx8XFjxk46d95XnbF9h69qetRTy9USuUJ17EdKHj58hBoGBj4xoCcsLOza9RtSghkzZ5UsVfH+/QeS5FMEUlIxRbmfFJSirNS8hBXxvrTXb9i07K8VqOS69Rs7dOqW28WtXsMmq9esU1T70KEjtet4infT5q0mTPwxOPgp0nwAfIXmlF+mZlkpr5Ui5avXr6vPObfYJ9DCzCQ85v0MToWq/227dejOMwiP3gkduOO2Iva9Lj9ew3sVx8QkQAIkQAIkQAKfF4HUsJFu3b4TFJgiZ0vT5q337tv/ToK9v+01ZtSwdyZDghQqTImqD0uzZ+/+5l5tpLz169UdO2a4k5OjJEkjgX8d1CfiMO2X6b/8+tuHKQ8KetKmdYt1a1eUKlmi/4ChN2/ekuuBJ/Pqtetftm/Tp0/PenXr7Ny554umLSMjo+RpGAaBm0FRQRGxM5oVnNqsUIMiDmRCAiRAAiRAAiRAAmmfQGrYSHIKGzZuav/lV2XKVe4/YPCdO3elKEw3IXn+PHz69JlIsHnLNhH1+HHgj5Oniqf10rP8K1evXb2mc87ExMTM/GMOHvMjAVxVL168MKAQRUAzPgcMHNKpS/fXr1//8OMUZCxUpFQNj7p/LV8p8m7atGX4iNEH/vaGDwH1RGLhiDBQFjJiBR3qX9m9JrS1avPlsePHIfx95qxZs+eiUSgX2rBqC26No8dOioKwYhAVQNHI9f2wkc+e6RYR4TVx0uQ/Fy9dvGQZvBOowOSfpr58+VJEiU9UacrUX0QYC8Og/PbtO7hEi3r0/G7J0r9E1OXLV1AlaEDRp06dEQnUTdZHHumPHz8B5ZIfDFYBLnfs3IWoEydPtW3XEY31atlWSCBcuWrNN9/1RUC8UJk1a9e/vXrzF6sN0bRGTbyQF4kDAwOxqLJP3wGSpxFuHFQY7kR0xNDvR8Klg/5FK8ZP+AFdILQEBAT0+qY3hOi+tes2CCFip/82A5ohBEPUdsTIMbt278Mb1UbDkSwiMhJ6BHOMq9jYWJF33/4DSAOFg4cO9793Twj79P6mWdMm1atVadLIE5L4hAQhl382buzZwsurb59vR48e5h9w78JF5dJQzariLkDnggDeqJgYtxhmqBvqgPGzcOFiUYpmdnkF5GF1Ys1BDv4gLMH0OXcebb9167a6a+TKEcZ9MXfeAiFEbZHrwoVLuNSsuUi2+2rwwK03ER60/VaDuT67rgQnvHo9+0hAhemnrEYdbLf0wqOwN31692l0m8W+2ccfKf7z8aWnHors8EH9csCvzC8nC/10/Me9ukEufy08fh9RyDJ4840XcbreCQyP7brikssPR6G81qyz3jdDRHrETtx9G4VC+dAtSX5dEbvJNxB1237ZkENYXi7DJEACJEACJEAC/3kCqWojYUbVu8/AwoULjRk9wtnZOTo6WuKbPn16Ozs7XOYvkL9s2TL29vYiauYfc8+c9WnfvrWpuSme5WPiC/m1a9fP+pxDYMXK1T/8OLVD+7a9enU3SW+SkPBK5MKnWmFEeIT3Qd36qIOHjuTInv3Vq1e379zx9Kw/YfzoggUKDBk6UuwUevQ4cPGS5d/17u9WMH+7tq1XrV6/cdNmw2UhNiw0LCY2tnPnDqNHDXsWEjp69EQILTNlsrbOjABaVLpUCVTpcWDggQPe8fHxEA4cNAStQ0zderWXLlvZ9stOmKRCDttmxMhx8+YtgtOpUqUKv8+Yc/asD+TSC6Cm//aHULJj52406vSZs4j18/Pftn2Xc/bsIuWgIcNfxsX16tkd2X+aOg1CzSarQUkFFS1aBMp37dojJCeOn8SlW8GCV65c9WrR7uat27AinoeFd//6O5iUSHPv3n1v78NSdlTG3z9AuhSBZcuWDx8xtkL5ssOHDYbl9ufiZWZmpg0b1l+4cAkMFWzu6tN3YLmypbNmtUVHLPtr5ezZ85s09ixeoticuQuF+Qfbsn7Dprdu3R00sF/JksX+12/w06e6qfDgIcOnTJ2eMWOGli2bxyZalVmzZoXcyckB/F1d8yLcv//glavWtmvbpm3bljNmzjly9BiEV69e6/TV135+Af/r862FhcWli1cglF4wd3t927dixXJFixSWhOoAnE4QWlvpult66avq7dt3y5UtM37cKLihMAaOHtNZ1GPGTdi1a++okd839mwQGRUJib7skn55QDOxZo+7uRXAIDxz5s2g2rp1+7nzF1xdXdVdI9eP8Nlz56+/XTgKEwuD4VmobuWbuuZSRlOT9NmtM+CyQo7MlfPYOGbOMPfovd5bblXPm2VaA9eD/uEzj+hGSGRsQonfTl99Gj2xXl6k7LLu2pMI3XOBJSceDt51x97SfEiN3McDwiW1IjDRO6B1CYfyOax/OXp/9mGdZRsaHfci/lXfyjl/a5Q/OPpl37fmUI/VV8bs989kZvJVGefYhNdyPYdvP2ux/HLuLBk9i9LHJQfDMAmQAAmQAAkYNwFYHQbeIaGh5y9dxtPoj3nVbdD46x7fQsPmLducnPP6+/tragsNDUUsnEUiFg/XcTlr9jxxiQk0Lk+ePI1LaGveog0Cw4aPqlS5BtwsIo3iU6EQeaEBvo64uHhFSrh3EIXqQf7HrLkIYwoo0tSq3bBN2w4Iq8sSCn19Lyq0bdu+ExpgMED+05RpboVLSgnwCB9RUVFRfv7+CEz75TcRtWr1WlyK1qG4du07YXaLKMz+IUeVJA0IHD12DEKUC5sKyvHu3ac/5EAH+fPwcFExWCAiFzwVkIOnXIm8yQpQ8mT9+g8CYVEZeKXQlYgdNGSYrqDnzxGGqYYKtGzdHuHJP/0sbyzSoPlybQgjAXQK4YKFf5YuWwmtgP6OnbshjJ5FcTCekUB0BPSLxEggSlm/YSM0Y+Ub5OgmhHHEAgYVAuPGTxKJpU9UWCru7l0/pJEGWJduPYZ+PwIpR4+ZADnuApGrW/deYnThUnQl3DvoMhErfW7dtgO5li9ftXv33l+n/452oeaoj3xUaFZV0oAAGo5c8M8gjOaL+kgJ3pn9vcqSehzjH7UdOXocChLdJ7pJs2ukyiAghwn+aP7f3gchV9dcnuu0f2i6QfuO3XkmhJYjvbssf3PL/O7t7zTuMLr/r9MPkebaY10XvIiLR3i1zyOE80w6Un2G7pYXL8h/2HMb4Sn77iIcD59U4qvx/HMef7wZ7UKCz/XnHyONf0jUneAoBAZtui5FISA0XHgQjiivRedfxifIYxkmARIgARIgARIwBgIwc2DsaJpCZqlpIVaqWD5LFptK7h4jRwxt365NtmxvnEUG6mBhkVHEOjnq9vC8ep3kKcKlZ8MG8PnUqefZp/e3WBaVMeObxAYUFi1SBI4LkQBLrWBIXL12zcEhGyQ4JULKKKnKn9/1aYjOTfHOsnA8g/fBwyEhIVhcl6hN5yzS97oXcB9R5cuVFQlKly6JAAwnOI4QsLS0hHsHAXt7nW8tPiGZqvLlykF45uxZa2srlDVzxi+jRo/HbPvIkWONGzWwyfzGlSE1wdlZ51lCAnwaaDJi1a+WLbxWr9lw/cbNfK554VKb9vOPSHP16vWyZUvb2NggbGpqWqeOx4EDB9V51RKYVagw1k9iUo5YPz+/x4+DIiMjoeqHCeMqVq4B19OWTWszZcok5YV+EXavVGnCRN0Kujt3/CDZsFHn3MMLIwrrxOwTnZBVqlQWQs1PWK2Qnzx5Cg43BIKCgvFG4NLly2hOZmtrhPEyMUlyrr58GQMJ3J6JMRofcNYJaZ06tX6YOFZiLoSaVUUU+uLSpSsnT52CvzRDRnN4ICHs1PHLqT9PRyW//aZnjRrVINGXXShXfOpLrO5xjP+vu3dZuGjJ+LGjLl66hB754ovGBrpGUZD6Ul1zdRohCYuOi46Jvx/+ctR23QK8m8HR2KoU/iLhJsyYdOmWn30kkllamF0NjIx+mXAvNKZLGSchVH/CSSWENV1th+6+8/xFfJZMZnAl7bn2FG6o0Be62/ll/OuAUN0SXI8COqei4uU+x6e6S5blHUuYmyZ1uiINL0mABEiABEiABIyQQKraSNmzZ9+7e+us2fOxQA5egg3rVhYvXuxjoGMqiSn1jD/mYMHVgkWL169ZkSVLlhQqxCN/96oe0dEvMMUPSVys9TrZGhylGnVZ8hTXb9zwqNUwr0ueypUrXExcrAXjW55AEUbpkFhnfjMvt7bSBYRQkVJ9iYl4u7YtDx05amtr6+5e0aNmDUxzYSes37B51h+/qtNLkvdtMjK6u1eCEXLggPezMjorrkF93XGCkZERuXPnkdTaZsmCCggbTBJqBsQSOESZm5vj083NbchgNysrK4QluwjrAzXzWllZQh7+PFxQgu0kjJmePbrBNIIcsVltbTXzCiGsBQTSm5iI0uvU9sidOxckWC7onMNZM6OtbVY3t/yaUUJ46sTBHDlyoCaSLSdPrFlVJPhfv0HoLE/PemamZjdv3sG6Owj79+uD+sz8Y3abdp06dmw3bepkfdnlRUhhzcQQag7ypl80/uXXGb6+F7DuFGsI8X7y9kh6dddIRegLqGuuL2VM/JtnHMImKZbdGu/MFqYvXurksHlMEh8NDK2aq1ZBu4hY3aOBLBa6oWL4BQ1IEPYi7n7oixK/nsqT1aJ23ixnHunW5eImjIrVLWG1s9It+VO/sDZPtkRXHU8JCZAACZAACZCAMRJIVRsJgF1cXKZO+QGTqsZfeK1eu36SykYybFqouwiOlxWVKsAd1MyrDfZ1NE7cXi9Ppk/h7j374MTYt2dbiRLFMXt2cS2cOD2TZ1WGFWVls9d5n8Rr8eJlCBz03oMNLadPn8UxccIRBCHshzeJZH+Eb+fixUtifowdPojMmTOHLImhYL16dbALyNLComaNanCCYY6LYx6QoVq1qgayGW6yJigzMzP4HNauWx8cHPxFE0/hcCvk5gaHD85aEB45YEcFhMWCxmLtnKbBgIoJb0/OXDmxlUhRT6xng4XpnCP7//oNPHr4b2ERydOI/TOOjg65cuWEvFVLL1fXvAiIlzg8ALvUypfXOdnkL9RTXDo56TwSVatUhnNMnqBkyWLwlcXFxQnzQB5Vu5YH3nKJIpwBbqBEe08hF5eaVYWnCAbS5B/Gde3aGclw9AXMNgQAsHWrFi28ms2Zu2DSD1MGDeinmV2zIAg1E2P5qOYgL1TIrUTJYvv2/71587ZePbshu4GukZcYEaHbKKV4qWsuhrciGS4dEvcm5bXNONazgDzWxc4Clx3L5yjoqDOYpRccSof9wgZK13oCRxN/dim7Tcaf9vshyfWh7pnMTfFLStXm+MDTlMtWp/zE3dAqrkoT+nDPMuVnnGm77MKmbqUzmtGVpIcvxSRAAiRAAiRgfARSdVqAiSx2wOMoM+yNgQMnk4Vu7iK9MmfOLFwWly5dVu/1l5LJA4cPH8UPKIWEPIuI1D0zzpgh2Vo7wwodHOyR5a6fP84JkM6CkytXhNVlYakb0pz18cEqu+zZdfNvHPCFmq9ctVrK6+Ki87dgMxXqKU5ZEFFFihSBgwIHM+zZsw+ap03/XbcKsVJFKaPhQNUq7kiwZevOihXKI1CvXi2c+gCfkliRqC+vviYbBgWfA3wd8+b/CbNEaG7e/AsExk2YhJ767feZiMWhGpDkz58PnzgDAHLp5D2RRXzCdoKHZOXKtStWrIapgPGAw+sQBT4wG37+efIvP/+EOf3vM/6QcuFsOhjA+K1eJOj81ZcZMmSA3wyxOJUOcgDHcRE4ea9o0cIwsebNX4TzCXEJhcKvVaRQoWPHT5z39UWVihQphDSzZs3HDqJHjx7jaL4jR3RnNnh41MQn9gLBDENBhxOFogI7d+3GQXkYYOIyJZ/yUaFZVXQ09Nx/8BC/p4Te9008Gg6G5fYdu1DzsLDncXG64wpMTE00s8vr8M6y9PU4lHTq0P6332fhLD5Pzwa41Nc18uKKFy2yY+ce9Bq4Tf99pojSrLk8lzwMT1GP8s6LfAJxJJ1/SLTPveerEtfX1S+se9wwfMct/GxRwLNoHH93KdEL9FVJxy3XnuL3Z/GTr+rz6Pqsv4b0+DHZFReefFMxB4ycHDY6Z1FAyIvbwdELTz4QRZfImRmepZ+PPph/7B7U4vw6bGMSUeXyZNn7deldN599s+YKNjcJIT9JgARIgARIgARIIJX8SCaJOwfu3b8/ZuwETILBvV792r16fi3vAMzScCjcxEk/wUeBHxHqlviUXZ5ACgttuMS5ZDj6TDhqvu7euXZtDwill0Kh2MYjxVauVAmOkV7f9IUEE3d8iomTpFxKKQLqsuB4qeVRfeSo8bly5oRrYufuvdVr6paide3SMVGbbspVp3atatXccWwaZsanThwSzhbI4YFZMG/2t9/169y1Jy6dnZ2WL/tT2koEieEXVtmhaBwsVrKkbglconE1p2mTRiKXVIpCib4mK0BhP4w8o/A54LQ3sUkGUQ0b1P9+6AAcIrdw4RJcduvaCTtSEMCcHg6lb3v3RxhIEUZA8fp+yCBs2ZK28TRr2qhuvTo4y65Vy+Y4ZRuJcbAbvCgwzERGJIaHEGFs+Pl+6GAE8uVznTtnxjff/g/jBJcwNX+YNKFI4UJLlyzo028gzieEEEXX8vCAewYV871wwbORF7Kv+OvPBfNn9e7bv0u3XkiDHhk08H/Vq1dt3uyLmzdv/Tp9JjZcYWNS+fLloqN122PwunvX/9w53/DwcLExTAjln2rfI45tlEZFgwb1NKsqxvnsOQtg1hYqVFB3dMOrVzDUjx49AeUYDL9Nn6ozdx3TqbPLS39nWVXctQc5lOAswaHfjwIWrIAVOtVd4+XVTF4czgPcuWtvA8+mEA4dMkBEaddcni15eGLjAk+i4npsvCHErYtla18+h5uj1eovi7VbeWXDlaeQu2WznO1VCIFpzQoFRb4cvuduuj1325d0dMqcUeTC1wnCT6NeVp/jA4mnm93ERjrHVKcKOTZeeVpk2kmEv6uk88riJsxgarKzW6mOK6/02nQTkmJOlg2LOLzdypSuXuFsy9sW7bjmanabDJO/0BXKFwmQAAmQAAmQAAmkxyZ4AxTi4uPvPXhYWrUizkCWd0YFPXmCzSf67AGsjMJxX+b61y8p9OMxNnwCcOPoy2JYIX6HB6dF44wEhVrNS82ypCVnyAKXFHbhm5kpLU8c1KZZBKws7ANJiE9A/fUZNpo1+RihvibrA4VJcN16jatUrTxpwlh5udjrEhgU5OjgoGgafDuwKBRCeUaEMepCnz3LlSsXzDNFlHSJIw1hMAc+8sOp1jirQzpTQSRAX+DsBzhSYC5KWRAQ41k+ugAZVZX2O+ESpwXGxcXlSL4HCRIcXqfQBoUoXb3wT16iZlg+KjSriiERExNrZ5dVnh0nNAYFPcmVK6e0UBOxmtnlud5Zlr4elyuRwoa7BmU9evQIW7Ckg09ERs2aSzrVAZyvEBL10sUuk3TuAtLAk/MgLCazhZmdZbI9SDi8Ac8vrDJqDBXsNUKcjUWyO+7x85hs1hnUxzCgUJSCcx3U9aGEBEiABEiABEjACAn4Xr6SJ1dOc9XUHSj+BRvJCDvgM20yrCMcv3bw8OHJk6cd8t4Dh1JqNkSykVKzUJZFAiRAAiRAAiRAAiRgJAQM2Eh8pGokY+BDmgnXSpt2unWDU6dMSmUDCYViLRy2D31IvZmHBEiABEiABEiABEiABD6CAP1IHwHPCLJiZRq8SQZWxBkBAzaRBEiABEiABEiABEjgP0iAfqT/YKemTpOwMYYGUuqg/k+WUmDy8Tsh0Z9F05xtMj4aU/2zqCorSQIkQAIkQAIk8KkJcK3dpyZM/SRgvARuD9edVcgXCZAACZAACZAACXxeBFL195E+LzSsLQmQAAmQAAmQAAmQAAmQgBESoI1khJ3OJpMACZAACZAACZAACZAACeglQBtJLxpGkAAJkAAJkAAJkAAJkAAJGCEB2khG2OlsMgmQAAmQAAmQAAmQAAmQgF4CtJH0omEECZAACZAACZAACZAACZCAERKgjWSEnc4mkwAJkAAJkAAJkAAJkAAJ6CVAG0kvGkaQAAmQAAmQAAmQAAmQAAkYIQHaSEbY6WwyCZAACZAACZAACZAACZCAXgK0kfSiYQQJkAAJkAAJkAAJkAAJkIAREqCNZISdziaTAAmQAAmQAAmQAAmQAAnoJUAbSS8aRpAACZAACZAACZAACZAACRghAdpIRtjpbDIJkAAJkAAJkAAJkAAJkIBeArSR9KJhBAmQAAmQAAmQAAmQAAmQgBESoI1khJ3OJpMACZAACZAACZAACZAACeglQBtJLxpGkAAJkAAJkAAJkAAJkAAJGCEB2khG2OlsMgmQAAmQAAmQAAmQAAmQgF4CtJH0omEECZAACZAACZAACZAACZCAERKgjWSEnc4mkwAJkAAJkAAJkAAJkAAJ6CVAG0kvGkaQAAmQAAmQAAmQAAmQAAkYIQHaSEbY6WwyCZAACZAACZAACZAACZCAXgK0kfSiYQQJkAAJkAAJkAAJkAAJkIAREqCNZISdziaTAAmQAAmQAAmQAAmQAAnoJUAbSS8aRpAACZAACZAACZAACZAACRghAdpIRtjpbDIJkAAJkAAJkAAJkAAJkIBeArSR9KJhBAmQAAmQAAmQAAmQAAmQgBESoI1khJ3OJpMACZAACZAACZAACZAACeglQBtJLxpGkAAJkAAJkAAJkAAJkAAJGCEB2khG2OlsMgmQAAmQAAmQAAmQAAmQgF4CtJH0omEECZAACZAACZAACZAACZCAERKgjWSEnc4mkwAJkAAJkAAJkAAJkAAJ6CVAG0kvGkaQAAmQAAmQAAmQAAmQAAkYIQHaSEbY6WwyCZAACZAACZAACZAACZCAXgK0kfSiYQQJkAAJkAAJkAAJkAAJkIAREqCNZISdziaTAAmQAAmQAAmQAAmQAAnoJUAbSS8aRpAACZAACZAACZAACZAACRghAdpIRtjpbDIJkAAJkAAJkAAJkAAJkIBeAmZ6YxIj0qdLZ25utmHHruBnoQkJCYYTM5YESIAESIAESIAESIAESIAE0jgBU1NTB3u7wvldYexovtKHR0RoRgjh69ev4+LjY2Jj4+LiEDaQklEkQAIkQAIkQAIkQAIkQAIkkPYJpE+f3tzc3CJjRnMzM4TVFX6XHyl9+gzm5nirc1JCAiRAAiRAAiRAAiRAAiRAAv89AtyP9N/rU7aIBEiABEiABEiABEiABEjgwwnQRvpwdsxJAiRAAiRAAiRAAiRAAiTw3yNAG+m/16dsEQmQAAmQAAmQAAmQAAmQwIcT+D+2dVzzTdhoggAAAABJRU5ErkJggg==;" vertex="1" parent="1">
                    <mxGeometry x="81" y="1060" width="1121" height="848" as="geometry"/>
                </mxCell>
            </root>
        </mxGraphModel>
    </diagram>
</mxfile>